Montserrat-SemiBold.ufo
<glyph name="exclam" format="2">
  <advance width="273"/>
  <unicode hex="0021"/>
  <outline>
    <contour>
      <point x="93" y="227" type="line"/>
      <point x="180" y="227" type="line"/>
      <point x="202" y="700" type="line"/>
      <point x="72" y="700" type="line"/>
    </contour>
    <contour>
      <point x="137" y="-6" type="curve" smooth="yes"/>
      <point x="179" y="-6"/>
      <point x="209" y="26"/>
      <point x="209" y="65" type="curve" smooth="yes"/>
      <point x="209" y="105"/>
      <point x="179" y="136"/>
      <point x="137" y="136" type="curve" smooth="yes"/>
      <point x="95" y="136"/>
      <point x="64" y="105"/>
      <point x="64" y="65" type="curve" smooth="yes"/>
      <point x="64" y="26"/>
      <point x="95" y="-6"/>
    </contour>
  </outline>
</glyph>
<glyph name="dollar" format="2">
  <advance width="625"/>
  <unicode hex="0024"/>
  <outline>
    <contour>
      <point x="282" y="-120" type="line"/>
      <point x="355" y="-120" type="line"/>
      <point x="355" y="820" type="line"/>
      <point x="282" y="820" type="line"/>
    </contour>
    <contour>
      <point x="310" y="-9" type="curve" smooth="yes"/>
      <point x="498" y="-9"/>
      <point x="587" y="85"/>
      <point x="587" y="195" type="curve" smooth="yes"/>
      <point x="587" y="452"/>
      <point x="167" y="350"/>
      <point x="167" y="509" type="curve" smooth="yes"/>
      <point x="167" y="566"/>
      <point x="215" y="612"/>
      <point x="328" y="612" type="curve" smooth="yes"/>
      <point x="390" y="612"/>
      <point x="459" y="594"/>
      <point x="521" y="556" type="curve"/>
      <point x="558" y="647" type="line"/>
      <point x="498" y="687"/>
      <point x="412" y="709"/>
      <point x="329" y="709" type="curve" smooth="yes"/>
      <point x="141" y="709"/>
      <point x="54" y="615"/>
      <point x="54" y="504" type="curve" smooth="yes"/>
      <point x="54" y="244"/>
      <point x="474" y="347"/>
      <point x="474" y="187" type="curve" smooth="yes"/>
      <point x="474" y="131"/>
      <point x="425" y="88"/>
      <point x="310" y="88" type="curve" smooth="yes"/>
      <point x="222" y="88"/>
      <point x="133" y="121"/>
      <point x="79" y="167" type="curve"/>
      <point x="38" y="77" type="line"/>
      <point x="95" y="26"/>
      <point x="202" y="-9"/>
    </contour>
  </outline>
</glyph>
<glyph name="percent" format="2">
  <advance width="851"/>
  <unicode hex="0025"/>
  <outline>
    <contour>
      <point x="143" y="0" type="line"/>
      <point x="230" y="0" type="line"/>
      <point x="708" y="700" type="line"/>
      <point x="621" y="700" type="line"/>
    </contour>
    <contour>
      <point x="200" y="324" type="curve" smooth="yes"/>
      <point x="299" y="324"/>
      <point x="365" y="400"/>
      <point x="365" y="515" type="curve" smooth="yes"/>
      <point x="365" y="630"/>
      <point x="299" y="706"/>
      <point x="200" y="706" type="curve" smooth="yes"/>
      <point x="101" y="706"/>
      <point x="35" y="629"/>
      <point x="35" y="515" type="curve" smooth="yes"/>
      <point x="35" y="401"/>
      <point x="101" y="324"/>
    </contour>
    <contour>
      <point x="200" y="388" type="curve" smooth="yes"/>
      <point x="143" y="388"/>
      <point x="108" y="436"/>
      <point x="108" y="515" type="curve" smooth="yes"/>
      <point x="108" y="594"/>
      <point x="143" y="642"/>
      <point x="200" y="642" type="curve" smooth="yes"/>
      <point x="258" y="642"/>
      <point x="292" y="595"/>
      <point x="292" y="515" type="curve" smooth="yes"/>
      <point x="292" y="435"/>
      <point x="258" y="388"/>
    </contour>
    <contour>
      <point x="651" y="-6" type="curve" smooth="yes"/>
      <point x="750" y="-6"/>
      <point x="816" y="71"/>
      <point x="816" y="185" type="curve" smooth="yes"/>
      <point x="816" y="299"/>
      <point x="750" y="376"/>
      <point x="651" y="376" type="curve" smooth="yes"/>
      <point x="552" y="376"/>
      <point x="486" y="299"/>
      <point x="486" y="185" type="curve" smooth="yes"/>
      <point x="486" y="71"/>
      <point x="552" y="-6"/>
    </contour>
    <contour>
      <point x="651" y="58" type="curve" smooth="yes"/>
      <point x="593" y="58"/>
      <point x="559" y="105"/>
      <point x="559" y="185" type="curve" smooth="yes"/>
      <point x="559" y="265"/>
      <point x="593" y="312"/>
      <point x="651" y="312" type="curve" smooth="yes"/>
      <point x="708" y="312"/>
      <point x="743" y="264"/>
      <point x="743" y="185" type="curve" smooth="yes"/>
      <point x="743" y="106"/>
      <point x="708" y="58"/>
    </contour>
  </outline>
</glyph>
<glyph name="quotesingle" format="2">
  <advance width="215"/>
  <unicode hex="0027"/>
  <outline>
    <contour>
      <point x="67" y="426" type="line"/>
      <point x="147" y="426" type="line"/>
      <point x="154.99" y="700" type="line"/>
      <point x="60" y="700" type="line"/>
    </contour>
  </outline>
</glyph>
<glyph name="parenleft" format="2">
  <advance width="342"/>
  <unicode hex="0028"/>
  <outline>
    <contour>
      <point x="210" y="-194" type="curve"/>
      <point x="315" y="-194" type="line"/>
      <point x="233" y="-50"/>
      <point x="198" y="101"/>
      <point x="198" y="274" type="curve" smooth="yes"/>
      <point x="198" y="447"/>
      <point x="233" y="598"/>
      <point x="315" y="742" type="curve"/>
      <point x="210" y="742" type="line"/>
      <point x="133" y="623"/>
      <point x="90" y="458"/>
      <point x="90" y="274" type="curve" smooth="yes"/>
      <point x="90" y="90"/>
      <point x="133" y="-73"/>
    </contour>
  </outline>
</glyph>
<glyph name="parenright" format="2">
  <advance width="343"/>
  <unicode hex="0029"/>
  <outline>
    <contour>
      <point x="132" y="-194" type="line"/>
      <point x="210" y="-73"/>
      <point x="253" y="90"/>
      <point x="253" y="274" type="curve" smooth="yes"/>
      <point x="253" y="458"/>
      <point x="210" y="623"/>
      <point x="132" y="742" type="curve"/>
      <point x="27" y="742" type="line"/>
      <point x="109" y="598"/>
      <point x="145" y="447"/>
      <point x="145" y="274" type="curve" smooth="yes"/>
      <point x="145" y="101"/>
      <point x="109" y="-50"/>
      <point x="27" y="-194" type="curve"/>
    </contour>
  </outline>
</glyph>
<glyph name="asterisk" format="2">
  <advance width="408"/>
  <unicode hex="002A"/>
  <outline>
    <contour>
      <point x="390" y="617" type="line"/>
      <point x="355" y="680" type="line"/>
      <point x="225" y="603" type="line"/>
      <point x="237" y="596" type="line"/>
      <point x="238" y="742" type="line"/>
      <point x="170" y="742" type="line"/>
      <point x="171" y="596" type="line"/>
      <point x="183" y="603" type="line"/>
      <point x="53" y="680" type="line"/>
      <point x="18" y="617" type="line"/>
      <point x="154" y="542" type="line"/>
      <point x="154" y="563" type="line"/>
      <point x="18" y="488" type="line"/>
      <point x="53" y="426" type="line"/>
      <point x="183" y="502" type="line"/>
      <point x="171" y="509" type="line"/>
      <point x="170" y="363" type="line"/>
      <point x="238" y="363" type="line"/>
      <point x="237" y="509" type="line"/>
      <point x="225" y="502" type="line"/>
      <point x="355" y="426" type="line"/>
      <point x="390" y="488" type="line"/>
      <point x="255" y="563" type="line"/>
      <point x="255" y="542" type="line"/>
    </contour>
  </outline>
</glyph>
<glyph name="plus" format="2">
  <advance width="586"/>
  <unicode hex="002B"/>
  <outline>
    <contour>
      <point x="245" y="128" type="line"/>
      <point x="341" y="128" type="line"/>
      <point x="341" y="572" type="line"/>
      <point x="245" y="572" type="line"/>
    </contour>
    <contour>
      <point x="66" y="305" type="line"/>
      <point x="520" y="305" type="line"/>
      <point x="520" y="395" type="line"/>
      <point x="66" y="395" type="line"/>
    </contour>
  </outline>
</glyph>
<glyph name="comma" format="2">
  <advance width="235"/>
  <unicode hex="002C"/>
  <outline>
    <contour>
      <point x="51" y="-150" type="line"/>
      <point x="123" y="-150" type="line"/>
      <point x="172" y="-10" type="line" smooth="yes"/>
      <point x="187" y="32"/>
      <point x="192" y="49"/>
      <point x="192" y="70" type="curve" smooth="yes"/>
      <point x="192" y="114"/>
      <point x="161" y="146"/>
      <point x="119" y="146" type="curve" smooth="yes"/>
      <point x="77" y="146"/>
      <point x="45" y="115"/>
      <point x="45" y="70" type="curve" smooth="yes"/>
      <point x="45" y="25"/>
      <point x="77" y="-4"/>
      <point x="120" y="-4" type="curve"/>
      <point x="105" y="63" type="line"/>
    </contour>
  </outline>
</glyph>
<glyph name="zero" format="2">
  <advance width="670"/>
  <unicode hex="0030"/>
  <outline>
    <contour>
      <point x="335" y="-9" type="curve" smooth="yes"/>
      <point x="499" y="-9"/>
      <point x="624" y="120"/>
      <point x="624" y="350" type="curve" smooth="yes"/>
      <point x="624" y="580"/>
      <point x="499" y="709"/>
      <point x="335" y="709" type="curve" smooth="yes"/>
      <point x="171" y="709"/>
      <point x="46" y="580"/>
      <point x="46" y="350" type="curve" smooth="yes"/>
      <point x="46" y="120"/>
      <point x="171" y="-9"/>
    </contour>
    <contour>
      <point x="335" y="93" type="curve" smooth="yes"/>
      <point x="232" y="93"/>
      <point x="161" y="176"/>
      <point x="161" y="350" type="curve" smooth="yes"/>
      <point x="161" y="524"/>
      <point x="232" y="607"/>
      <point x="335" y="607" type="curve" smooth="yes"/>
      <point x="438" y="607"/>
      <point x="509" y="524"/>
      <point x="509" y="350" type="curve" smooth="yes"/>
      <point x="509" y="176"/>
      <point x="438" y="93"/>
    </contour>
  </outline>
</glyph>
<glyph name="one" format="2">
  <advance width="375"/>
  <unicode hex="0031"/>
  <outline>
    <contour>
      <point x="161" y="0" type="line"/>
      <point x="275" y="0" type="line"/>
      <point x="275" y="700" type="line"/>
      <point x="8" y="700" type="line"/>
      <point x="8" y="601" type="line"/>
      <point x="211" y="601" type="line"/>
      <point x="161" y="655" type="line"/>
    </contour>
  </outline>
</glyph>
<glyph name="two" format="2">
  <advance width="578"/>
  <unicode hex="0032"/>
  <outline>
    <contour>
      <point x="36" y="0" type="line"/>
      <point x="545" y="0" type="line"/>
      <point x="545" y="99" type="line"/>
      <point x="129" y="99" type="line"/>
      <point x="155" y="55" type="line"/>
      <point x="401" y="290" type="line" smooth="yes"/>
      <point x="497" y="381"/>
      <point x="517" y="443"/>
      <point x="517" y="511" type="curve" smooth="yes"/>
      <point x="517" y="633"/>
      <point x="421" y="709"/>
      <point x="272" y="709" type="curve" smooth="yes"/>
      <point x="162" y="709"/>
      <point x="66" y="669"/>
      <point x="11" y="600" type="curve"/>
      <point x="89" y="533" type="line"/>
      <point x="131" y="584"/>
      <point x="190" y="607"/>
      <point x="262" y="607" type="curve" smooth="yes"/>
      <point x="354" y="607"/>
      <point x="402" y="567"/>
      <point x="402" y="499" type="curve" smooth="yes"/>
      <point x="402" y="458"/>
      <point x="389" y="415"/>
      <point x="318" y="347" type="curve" smooth="yes"/>
      <point x="36" y="78" type="line"/>
    </contour>
  </outline>
</glyph>
<glyph name="five" format="2">
  <advance width="579"/>
  <unicode hex="0035"/>
  <outline>
    <contour>
      <point x="275" y="-9" type="curve" smooth="yes"/>
      <point x="458" y="-9"/>
      <point x="546" y="90"/>
      <point x="546" y="213" type="curve" smooth="yes"/>
      <point x="546" y="337"/>
      <point x="462" y="426"/>
      <point x="255" y="426" type="curve" smooth="yes"/>
      <point x="117" y="426" type="line"/>
      <point x="178" y="370" type="line"/>
      <point x="206" y="657" type="line"/>
      <point x="145" y="601" type="line"/>
      <point x="506" y="601" type="line"/>
      <point x="506.01" y="700" type="line"/>
      <point x="103" y="700" type="line"/>
      <point x="67" y="326" type="line"/>
      <point x="230" y="326" type="line" smooth="yes"/>
      <point x="384" y="326"/>
      <point x="431" y="280"/>
      <point x="431" y="208" type="curve" smooth="yes"/>
      <point x="431" y="137"/>
      <point x="373" y="93"/>
      <point x="274" y="93" type="curve" smooth="yes"/>
      <point x="192" y="93"/>
      <point x="115" y="122"/>
      <point x="66" y="165" type="curve"/>
      <point x="14" y="74" type="line"/>
      <point x="77" y="22"/>
      <point x="176" y="-9"/>
    </contour>
  </outline>
</glyph>
<glyph name="six" format="2">
  <advance width="622"/>
  <unicode hex="0036"/>
  <outline>
    <contour>
      <point x="344" y="-9" type="curve" smooth="yes"/>
      <point x="485" y="-9"/>
      <point x="596" y="78"/>
      <point x="596" y="215" type="curve" smooth="yes"/>
      <point x="596" y="345"/>
      <point x="494" y="429"/>
      <point x="355" y="429" type="curve" smooth="yes"/>
      <point x="252" y="429"/>
      <point x="166" y="386"/>
      <point x="133" y="302" type="curve"/>
      <point x="171" y="258" type="line"/>
      <point x="162" y="294"/>
      <point x="161" y="332"/>
      <point x="161" y="359" type="curve" smooth="yes"/>
      <point x="161" y="526"/>
      <point x="248" y="611"/>
      <point x="385" y="611" type="curve" smooth="yes"/>
      <point x="435" y="611"/>
      <point x="482" y="602"/>
      <point x="519" y="577" type="curve"/>
      <point x="562" y="666" type="line"/>
      <point x="516" y="695"/>
      <point x="451" y="709"/>
      <point x="383" y="709" type="curve" smooth="yes"/>
      <point x="184" y="709"/>
      <point x="46" y="579"/>
      <point x="46" y="339" type="curve" smooth="yes"/>
      <point x="46" y="115"/>
      <point x="155" y="-9"/>
    </contour>
    <contour>
      <point x="339" y="84" type="curve" smooth="yes"/>
      <point x="238" y="84"/>
      <point x="183" y="140"/>
      <point x="183" y="209" type="curve" smooth="yes"/>
      <point x="183" y="282"/>
      <point x="245" y="336"/>
      <point x="335" y="336" type="curve" smooth="yes"/>
      <point x="427" y="336"/>
      <point x="485" y="287"/>
      <point x="485" y="210" type="curve" smooth="yes"/>
      <point x="485" y="133"/>
      <point x="425" y="84"/>
    </contour>
  </outline>
</glyph>
<glyph name="seven" format="2">
  <advance width="603"/>
  <unicode hex="0037"/>
  <outline>
    <contour>
      <point x="166" y="0" type="line"/>
      <point x="287" y="0" type="line"/>
      <point x="565" y="622" type="line"/>
      <point x="565" y="700" type="line"/>
      <point x="29" y="700" type="line"/>
      <point x="29" y="479" type="line"/>
      <point x="139" y="479" type="line"/>
      <point x="139" y="657" type="line"/>
      <point x="81" y="601" type="line"/>
      <point x="488" y="601" type="line"/>
      <point x="459" y="653" type="line"/>
    </contour>
  </outline>
</glyph>
<glyph name="eight" format="2">
  <advance width="648"/>
  <unicode hex="0038"/>
  <outline>
    <contour>
      <point x="323" y="-9" type="curve" smooth="yes"/>
      <point x="495" y="-9"/>
      <point x="606" y="71"/>
      <point x="606" y="200" type="curve" smooth="yes"/>
      <point x="606" y="324"/>
      <point x="501" y="396"/>
      <point x="323" y="396" type="curve" smooth="yes"/>
      <point x="145" y="396"/>
      <point x="42" y="325"/>
      <point x="42" y="200" type="curve" smooth="yes"/>
      <point x="42" y="71"/>
      <point x="151" y="-9"/>
    </contour>
    <contour>
      <point x="323" y="84" type="curve" smooth="yes"/>
      <point x="219" y="84"/>
      <point x="157" y="129"/>
      <point x="157" y="203" type="curve" smooth="yes"/>
      <point x="157" y="276"/>
      <point x="219" y="321"/>
      <point x="323" y="321" type="curve" smooth="yes"/>
      <point x="427" y="321"/>
      <point x="491" y="276"/>
      <point x="491" y="203" type="curve" smooth="yes"/>
      <point x="491" y="129"/>
      <point x="427" y="84"/>
    </contour>
    <contour>
      <point x="323" y="334" type="curve" smooth="yes"/>
      <point x="485" y="334"/>
      <point x="581" y="401"/>
      <point x="581" y="516" type="curve" smooth="yes"/>
      <point x="581" y="635"/>
      <point x="477" y="709"/>
      <point x="323" y="709" type="curve" smooth="yes"/>
      <point x="170" y="709"/>
      <point x="67" y="635"/>
      <point x="67" y="516" type="curve" smooth="yes"/>
      <point x="67" y="401"/>
      <point x="161" y="334"/>
    </contour>
    <contour>
      <point x="323" y="407" type="curve" smooth="yes"/>
      <point x="234" y="407"/>
      <point x="180" y="447"/>
      <point x="180" y="511" type="curve" smooth="yes"/>
      <point x="180" y="577"/>
      <point x="236" y="616"/>
      <point x="323" y="616" type="curve" smooth="yes"/>
      <point x="410" y="616"/>
      <point x="468" y="577"/>
      <point x="468" y="511" type="curve" smooth="yes"/>
      <point x="468" y="447"/>
      <point x="413" y="407"/>
    </contour>
  </outline>
</glyph>
<glyph name="nine" format="2">
  <advance width="622"/>
  <unicode hex="0039"/>
  <outline>
    <contour>
      <point x="278" y="709" type="curve" smooth="yes"/>
      <point x="137" y="709"/>
      <point x="26" y="622"/>
      <point x="26" y="485" type="curve" smooth="yes"/>
      <point x="26" y="355"/>
      <point x="128" y="271"/>
      <point x="267" y="271" type="curve" smooth="yes"/>
      <point x="370" y="271"/>
      <point x="456" y="314"/>
      <point x="489" y="398" type="curve"/>
      <point x="451" y="442" type="line"/>
      <point x="460" y="406"/>
      <point x="461" y="368"/>
      <point x="461" y="341" type="curve" smooth="yes"/>
      <point x="461" y="174"/>
      <point x="374" y="89"/>
      <point x="237" y="89" type="curve" smooth="yes"/>
      <point x="187" y="89"/>
      <point x="140" y="98"/>
      <point x="103" y="123" type="curve"/>
      <point x="60" y="34" type="line"/>
      <point x="106" y="5"/>
      <point x="171" y="-9"/>
      <point x="239" y="-9" type="curve" smooth="yes"/>
      <point x="438" y="-9"/>
      <point x="576" y="121"/>
      <point x="576" y="361" type="curve" smooth="yes"/>
      <point x="576" y="585"/>
      <point x="467" y="709"/>
    </contour>
    <contour>
      <point x="283" y="616" type="curve" smooth="yes"/>
      <point x="384" y="616"/>
      <point x="439" y="560"/>
      <point x="439" y="491" type="curve" smooth="yes"/>
      <point x="439" y="418"/>
      <point x="377" y="364"/>
      <point x="287" y="364" type="curve" smooth="yes"/>
      <point x="195" y="364"/>
      <point x="137" y="413"/>
      <point x="137" y="490" type="curve" smooth="yes"/>
      <point x="137" y="567"/>
      <point x="197" y="616"/>
    </contour>
  </outline>
</glyph>
<glyph name="at" format="2">
  <advance width="1034"/>
  <unicode hex="0040"/>
  <outline>
    <contour>
      <point x="517" y="-203" type="curve" smooth="yes"/>
      <point x="589" y="-203"/>
      <point x="674" y="-187"/>
      <point x="735" y="-156" type="curve"/>
      <point x="710" y="-83" type="line"/>
      <point x="650" y="-114"/>
      <point x="578" y="-127"/>
      <point x="517" y="-127" type="curve" smooth="yes"/>
      <point x="283" y="-127"/>
      <point x="129" y="30"/>
      <point x="129" y="254" type="curve" smooth="yes"/>
      <point x="129" y="476"/>
      <point x="285" y="633"/>
      <point x="521" y="633" type="curve" smooth="yes"/>
      <point x="753" y="633"/>
      <point x="912" y="486"/>
      <point x="912" y="268" type="curve" smooth="yes"/>
      <point x="912" y="149"/>
      <point x="881" y="80"/>
      <point x="823" y="80" type="curve" smooth="yes"/>
      <point x="794" y="80"/>
      <point x="769" y="98"/>
      <point x="769" y="150" type="curve" smooth="yes"/>
      <point x="769" y="499" type="line"/>
      <point x="670" y="499" type="line"/>
      <point x="670" y="376" type="line"/>
      <point x="679" y="253" type="line"/>
      <point x="674" y="194" type="line"/>
      <point x="674" y="132" type="line" smooth="yes"/>
      <point x="674" y="43"/>
      <point x="724" y="-6"/>
      <point x="803" y="-6" type="curve" smooth="yes"/>
      <point x="922" y="-6"/>
      <point x="988" y="99"/>
      <point x="988" y="270" type="curve" smooth="yes"/>
      <point x="988" y="527"/>
      <point x="796" y="708"/>
      <point x="521" y="708" type="curve" smooth="yes"/>
      <point x="238" y="708"/>
      <point x="46" y="517"/>
      <point x="46" y="254" type="curve" smooth="yes"/>
      <point x="46" y="-11"/>
      <point x="236" y="-203"/>
    </contour>
    <contour>
      <point x="496" y="-6" type="curve" smooth="yes"/>
      <point x="635" y="-6"/>
      <point x="725" y="84"/>
      <point x="725" y="250" type="curve" smooth="yes"/>
      <point x="725" y="416"/>
      <point x="631" y="504"/>
      <point x="496" y="504" type="curve" smooth="yes"/>
      <point x="354" y="504"/>
      <point x="252" y="398"/>
      <point x="252" y="250" type="curve" smooth="yes"/>
      <point x="252" y="101"/>
      <point x="354" y="-6"/>
    </contour>
    <contour>
      <point x="512" y="82" type="curve" smooth="yes"/>
      <point x="418" y="82"/>
      <point x="353" y="148"/>
      <point x="353" y="250" type="curve" smooth="yes"/>
      <point x="353" y="352"/>
      <point x="418" y="416"/>
      <point x="512" y="416" type="curve" smooth="yes"/>
      <point x="603" y="416"/>
      <point x="672" y="355"/>
      <point x="672" y="250" type="curve" smooth="yes"/>
      <point x="672" y="145"/>
      <point x="603" y="82"/>
    </contour>
  </outline>
</glyph>
<glyph name="A" format="2">
  <advance width="740"/>
  <unicode hex="0041"/>
  <anchor x="370" y="0" name="bottom"/>
  <anchor x="743" y="0" name="ogonek"/>
  <anchor x="370" y="700" name="top"/>
  <anchor x="113" y="700" name="topleft"/>
  <outline>
    <contour>
      <point x="-3" y="0" type="line"/>
      <point x="115" y="0" type="line"/>
      <point x="392" y="637" type="line"/>
      <point x="346" y="637" type="line"/>
      <point x="623" y="0" type="line"/>
      <point x="743" y="0" type="line"/>
      <point x="426" y="700" type="line"/>
      <point x="313" y="700" type="line"/>
    </contour>
    <contour>
      <point x="137" y="168" type="line"/>
      <point x="586" y="168" type="line"/>
      <point x="554" y="260" type="line"/>
      <point x="168" y="260" type="line"/>
    </contour>
  </outline>
</glyph>
<glyph name="B" format="2">
  <advance width="759"/>
  <unicode hex="0042"/>
  <anchor x="379" y="0" name="bottom"/>
  <anchor x="379" y="700" name="top"/>
  <outline>
    <contour>
      <point x="100" y="0" type="line"/>
      <point x="441" y="0" type="line" smooth="yes"/>
      <point x="619" y="0"/>
      <point x="711" y="70"/>
      <point x="711" y="190" type="curve" smooth="yes"/>
      <point x="711" y="310"/>
      <point x="623" y="374"/>
      <point x="512" y="374" type="curve"/>
      <point x="494" y="341" type="line"/>
      <point x="588" y="341"/>
      <point x="675" y="406"/>
      <point x="675" y="518" type="curve" smooth="yes"/>
      <point x="675" y="630"/>
      <point x="585" y="700"/>
      <point x="421" y="700" type="curve" smooth="yes"/>
      <point x="100" y="700" type="line"/>
    </contour>
    <contour>
      <point x="214" y="93" type="line"/>
      <point x="214" y="607" type="line"/>
      <point x="409" y="607" type="line" smooth="yes"/>
      <point x="505" y="607"/>
      <point x="560" y="573"/>
      <point x="560" y="504" type="curve" smooth="yes"/>
      <point x="560" y="435"/>
      <point x="505" y="401"/>
      <point x="409" y="401" type="curve" smooth="yes"/>
      <point x="205" y="401" type="line"/>
      <point x="205" y="308" type="line"/>
      <point x="435" y="308" type="line" smooth="yes"/>
      <point x="539" y="308"/>
      <point x="596" y="275"/>
      <point x="596" y="200" type="curve" smooth="yes"/>
      <point x="596" y="125"/>
      <point x="539" y="93"/>
      <point x="435" y="93" type="curve" smooth="yes"/>
    </contour>
  </outline>
</glyph>
<glyph name="G" format="2">
  <advance width="772"/>
  <unicode hex="0047"/>
  <guideline x="425" y="328" angle="90"/>
  <anchor x="405" y="0" name="bottom"/>
  <anchor x="412" y="700" name="top"/>
  <outline>
    <contour>
      <point x="421" y="-9" type="curve" smooth="yes"/>
      <point x="519" y="-9"/>
      <point x="619" y="21"/>
      <point x="690" y="80" type="curve"/>
      <point x="625" y="167" type="line"/>
      <point x="566" y="113"/>
      <point x="499" y="93"/>
      <point x="427" y="93" type="curve" smooth="yes"/>
      <point x="272" y="93"/>
      <point x="161" y="202"/>
      <point x="161" y="350" type="curve" smooth="yes"/>
      <point x="161" y="500"/>
      <point x="272" y="607"/>
      <point x="428" y="607" type="curve" smooth="yes"/>
      <point x="505" y="607"/>
      <point x="570" y="582"/>
      <point x="626" y="526" type="curve"/>
      <point x="698" y="598" type="line"/>
      <point x="633" y="671"/>
      <point x="537" y="709"/>
      <point x="423" y="709" type="curve" smooth="yes"/>
      <point x="205" y="709"/>
      <point x="46" y="558"/>
      <point x="46" y="350" type="curve" smooth="yes"/>
      <point x="46" y="142"/>
      <point x="205" y="-9"/>
    </contour>
    <contour>
      <point x="580" y="95" type="line"/>
      <point x="690" y="80" type="line"/>
      <point x="690" y="356" type="line"/>
      <point x="580" y="356" type="line"/>
    </contour>
  </outline>
</glyph>
<glyph name="I" format="2">
  <advance width="314"/>
  <unicode hex="0049"/>
  <anchor x="157" y="0" name="bottom"/>
  <anchor x="214" y="0" name="ogonek"/>
  <anchor x="157" y="700" name="top"/>
  <anchor x="19" y="699" name="topleft"/>
  <outline>
    <contour>
      <point x="100" y="0" type="line"/>
      <point x="214" y="0" type="line"/>
      <point x="214" y="700" type="line"/>
      <point x="100" y="700" type="line"/>
    </contour>
  </outline>
</glyph>
<glyph name="J" format="2">
  <advance width="520"/>
  <unicode hex="004A"/>
  <anchor x="244" y="700" name="top"/>
  <outline>
    <contour>
      <point x="198" y="-9" type="curve" smooth="yes"/>
      <point x="347" y="-9"/>
      <point x="426" y="70"/>
      <point x="426" y="231" type="curve" smooth="yes"/>
      <point x="426" y="700" type="line"/>
      <point x="61.01" y="700" type="line"/>
      <point x="61" y="601" type="line"/>
      <point x="312" y="601" type="line"/>
      <point x="312" y="225" type="line" smooth="yes"/>
      <point x="312" y="135"/>
      <point x="273" y="90"/>
      <point x="198" y="90" type="curve" smooth="yes"/>
      <point x="140" y="90"/>
      <point x="93" y="118"/>
      <point x="55" y="171" type="curve"/>
      <point x="-11" y="92" type="line"/>
      <point x="35" y="27"/>
      <point x="113" y="-9"/>
    </contour>
  </outline>
</glyph>
<glyph name="K" format="2">
  <advance width="724"/>
  <unicode hex="004B"/>
  <anchor x="376" y="0" name="bottom"/>
  <anchor x="376" y="700" name="top"/>
  <outline>
    <contour>
      <point x="201" y="167" type="line"/>
      <point x="337" y="305" type="line"/>
      <point x="401" y="376" type="line"/>
      <point x="707" y="700" type="line"/>
      <point x="577" y="700" type="line"/>
      <point x="195" y="306" type="line"/>
    </contour>
    <contour>
      <point x="100" y="0" type="line"/>
      <point x="214" y="0" type="line"/>
      <point x="214" y="700" type="line"/>
      <point x="100" y="700" type="line"/>
    </contour>
    <contour>
      <point x="592" y="0" type="line"/>
      <point x="726" y="0" type="line"/>
      <point x="390" y="411" type="line"/>
      <point x="314" y="326" type="line"/>
    </contour>
  </outline>
</glyph>
<glyph name="M" format="2">
  <advance width="955"/>
  <unicode hex="004D"/>
  <anchor x="477" y="0" name="bottom"/>
  <anchor x="477" y="700" name="top"/>
  <outline>
    <contour>
      <point x="100" y="0" type="line"/>
      <point x="210" y="0" type="line"/>
      <point x="210" y="526" type="line"/>
      <point x="182" y="526" type="line"/>
      <point x="451" y="82" type="line"/>
      <point x="503" y="82" type="line"/>
      <point x="769" y="526" type="line"/>
      <point x="744" y="526" type="line"/>
      <point x="745" y="0" type="line"/>
      <point x="855" y="0" type="line"/>
      <point x="854" y="700" type="line"/>
      <point x="760" y="700" type="line"/>
      <point x="454" y="181" type="line"/>
      <point x="504" y="181" type="line"/>
      <point x="194" y="700" type="line"/>
      <point x="100" y="700" type="line"/>
    </contour>
  </outline>
</glyph>
<glyph name="N" format="2">
  <advance width="811"/>
  <unicode hex="004E"/>
  <anchor x="405" y="0" name="bottom"/>
  <anchor x="405" y="700" name="top"/>
  <outline>
    <contour>
      <point x="100" y="0" type="line"/>
      <point x="214" y="0" type="line"/>
      <point x="214" y="556" type="line"/>
      <point x="166" y="556" type="line"/>
      <point x="617" y="0" type="line"/>
      <point x="711" y="0" type="line"/>
      <point x="711" y="700" type="line"/>
      <point x="597" y="700" type="line"/>
      <point x="597" y="144" type="line"/>
      <point x="645" y="144" type="line"/>
      <point x="194" y="700" type="line"/>
      <point x="100" y="700" type="line"/>
    </contour>
  </outline>
</glyph>
<glyph name="O" format="2">
  <advance width="841"/>
  <unicode hex="004F"/>
  <anchor x="421" y="0" name="bottom"/>
  <anchor x="421" y="350" name="center"/>
  <anchor x="503" y="0" name="ogonek"/>
  <anchor x="421" y="700" name="top"/>
  <anchor x="48" y="700" name="topleft"/>
  <anchor x="633" y="700" name="topright"/>
  <outline>
    <contour>
      <point x="421" y="-9" type="curve" smooth="yes"/>
      <point x="636" y="-9"/>
      <point x="795" y="143"/>
      <point x="795" y="350" type="curve" smooth="yes"/>
      <point x="795" y="557"/>
      <point x="636" y="709"/>
      <point x="421" y="709" type="curve" smooth="yes"/>
      <point x="205" y="709"/>
      <point x="46" y="556"/>
      <point x="46" y="350" type="curve" smooth="yes"/>
      <point x="46" y="144"/>
      <point x="205" y="-9"/>
    </contour>
    <contour>
      <point x="421" y="93" type="curve" smooth="yes"/>
      <point x="271" y="93"/>
      <point x="161" y="202"/>
      <point x="161" y="350" type="curve" smooth="yes"/>
      <point x="161" y="498"/>
      <point x="271" y="607"/>
      <point x="421" y="607" type="curve" smooth="yes"/>
      <point x="570" y="607"/>
      <point x="680" y="498"/>
      <point x="680" y="350" type="curve" smooth="yes"/>
      <point x="680" y="202"/>
      <point x="570" y="93"/>
    </contour>
  </outline>
</glyph>
<glyph name="P" format="2">
  <advance width="724"/>
  <unicode hex="0050"/>
  <outline>
    <contour>
      <point x="100" y="0" type="line"/>
      <point x="214" y="0" type="line"/>
      <point x="214" y="261" type="line"/>
      <point x="163" y="207" type="line"/>
      <point x="380" y="207" type="line" smooth="yes"/>
      <point x="563" y="207"/>
      <point x="675" y="300"/>
      <point x="675" y="453" type="curve" smooth="yes"/>
      <point x="675" y="607"/>
      <point x="563" y="700"/>
      <point x="380" y="700" type="curve" smooth="yes"/>
      <point x="100" y="700" type="line"/>
    </contour>
    <contour>
      <point x="214" y="249" type="line"/>
      <point x="214" y="658" type="line"/>
      <point x="163" y="601" type="line"/>
      <point x="376" y="601" type="line" smooth="yes"/>
      <point x="497" y="601"/>
      <point x="560" y="547"/>
      <point x="560" y="453" type="curve" smooth="yes"/>
      <point x="560" y="360"/>
      <point x="497" y="306"/>
      <point x="376" y="306" type="curve" smooth="yes"/>
      <point x="163" y="306" type="line"/>
    </contour>
  </outline>
</glyph>
<glyph name="Q" format="2">
  <advance width="841"/>
  <unicode hex="0051"/>
  <anchor x="421" y="700" name="top"/>
  <outline>
    <contour>
      <point x="421" y="-9" type="curve" smooth="yes"/>
      <point x="636" y="-9"/>
      <point x="795" y="143"/>
      <point x="795" y="350" type="curve" smooth="yes"/>
      <point x="795" y="557"/>
      <point x="636" y="709"/>
      <point x="421" y="709" type="curve" smooth="yes"/>
      <point x="205" y="709"/>
      <point x="46" y="556"/>
      <point x="46" y="350" type="curve" smooth="yes"/>
      <point x="46" y="144"/>
      <point x="205" y="-9"/>
    </contour>
    <contour>
      <point x="650" y="-150" type="curve" smooth="yes"/>
      <point x="722" y="-150"/>
      <point x="784" y="-121"/>
      <point x="829" y="-67" type="curve"/>
      <point x="776" y="-2" type="line"/>
      <point x="741" y="-41"/>
      <point x="700" y="-60"/>
      <point x="652" y="-60" type="curve" smooth="yes"/>
      <point x="599" y="-60"/>
      <point x="551" y="-32"/>
      <point x="493" y="43" type="curve"/>
      <point x="371" y="11" type="line"/>
      <point x="480" y="-108"/>
      <point x="553" y="-150"/>
    </contour>
    <contour>
      <point x="421" y="93" type="curve" smooth="yes"/>
      <point x="271" y="93"/>
      <point x="161" y="202"/>
      <point x="161" y="350" type="curve" smooth="yes"/>
      <point x="161" y="498"/>
      <point x="271" y="607"/>
      <point x="421" y="607" type="curve" smooth="yes"/>
      <point x="570" y="607"/>
      <point x="680" y="498"/>
      <point x="680" y="350" type="curve" smooth="yes"/>
      <point x="680" y="202"/>
      <point x="570" y="93"/>
    </contour>
  </outline>
</glyph>
<glyph name="R" format="2">
  <advance width="729"/>
  <unicode hex="0052"/>
  <anchor x="372" y="0" name="bottom"/>
  <anchor x="372" y="700" name="top"/>
  <outline>
    <contour>
      <point x="100" y="0" type="line"/>
      <point x="214" y="0" type="line"/>
      <point x="214" y="261" type="line"/>
      <point x="163" y="208" type="line"/>
      <point x="380" y="208" type="line" smooth="yes"/>
      <point x="563" y="208"/>
      <point x="675" y="300"/>
      <point x="675" y="453" type="curve" smooth="yes"/>
      <point x="675" y="607"/>
      <point x="563" y="700"/>
      <point x="380" y="700" type="curve" smooth="yes"/>
      <point x="100" y="700" type="line"/>
    </contour>
    <contour>
      <point x="563" y="0" type="line"/>
      <point x="687" y="0" type="line"/>
      <point x="508" y="254" type="line"/>
      <point x="385" y="254" type="line"/>
    </contour>
    <contour>
      <point x="214" y="249" type="line"/>
      <point x="214" y="658" type="line"/>
      <point x="163" y="601" type="line"/>
      <point x="376" y="601" type="line" smooth="yes"/>
      <point x="497" y="601"/>
      <point x="560" y="547"/>
      <point x="560" y="453" type="curve" smooth="yes"/>
      <point x="560" y="360"/>
      <point x="497" y="305"/>
      <point x="376" y="305" type="curve" smooth="yes"/>
      <point x="163" y="305" type="line"/>
    </contour>
  </outline>
</glyph>
<glyph name="T" format="2">
  <advance width="594"/>
  <unicode hex="0054"/>
  <anchor x="297" y="0" name="bottom"/>
  <anchor x="297" y="336" name="center"/>
  <anchor x="297" y="700" name="top"/>
  <outline>
    <contour>
      <point x="240" y="0" type="line"/>
      <point x="354" y="0" type="line"/>
      <point x="354" y="601" type="line"/>
      <point x="590" y="601" type="line"/>
      <point x="590" y="700" type="line"/>
      <point x="4" y="700" type="line"/>
      <point x="4" y="601" type="line"/>
      <point x="240" y="601" type="line"/>
    </contour>
  </outline>
</glyph>
<glyph name="U" format="2">
  <advance width="790"/>
  <unicode hex="0055"/>
  <anchor x="396" y="0" name="bottom"/>
  <anchor x="599" y="0" name="ogonek"/>
  <anchor x="396" y="700" name="top"/>
  <anchor x="658" y="700" name="topright"/>
  <outline>
    <contour>
      <point x="395" y="-9" type="curve" smooth="yes"/>
      <point x="583" y="-9"/>
      <point x="696" y="100"/>
      <point x="696" y="304" type="curve" smooth="yes"/>
      <point x="696" y="700" type="line"/>
      <point x="584" y="700" type="line"/>
      <point x="584" y="308" type="line" smooth="yes"/>
      <point x="584" y="159"/>
      <point x="516" y="93"/>
      <point x="396" y="93" type="curve" smooth="yes"/>
      <point x="276" y="93"/>
      <point x="208" y="159"/>
      <point x="208" y="308" type="curve" smooth="yes"/>
      <point x="208" y="700" type="line"/>
      <point x="94" y="700" type="line"/>
      <point x="94" y="304" type="line" smooth="yes"/>
      <point x="94" y="100"/>
      <point x="207" y="-9"/>
    </contour>
  </outline>
</glyph>
<glyph name="V" format="2">
  <advance width="720"/>
  <unicode hex="0056"/>
  <outline>
    <contour>
      <point x="304" y="0" type="line"/>
      <point x="417" y="0" type="line"/>
      <point x="723" y="700" type="line"/>
      <point x="609" y="700" type="line"/>
      <point x="328" y="61" type="line"/>
      <point x="399" y="61" type="line"/>
      <point x="121" y="700" type="line"/>
      <point x="-3" y="700" type="line"/>
    </contour>
  </outline>
</glyph>
<glyph name="W" format="2">
  <advance width="1135"/>
  <unicode hex="0057"/>
  <anchor x="568" y="0" name="bottom"/>
  <anchor x="568" y="700" name="top"/>
  <outline>
    <contour>
      <point x="263" y="0" type="line"/>
      <point x="385" y="0" type="line"/>
      <point x="585" y="584" type="line"/>
      <point x="553" y="584" type="line"/>
      <point x="751" y="0" type="line"/>
      <point x="872" y="0" type="line"/>
      <point x="1105" y="700" type="line"/>
      <point x="996" y="700" type="line"/>
      <point x="781" y="61" type="line"/>
      <point x="838" y="61" type="line"/>
      <point x="625" y="700" type="line"/>
      <point x="519" y="700" type="line"/>
      <point x="300" y="61" type="line"/>
      <point x="359" y="61" type="line"/>
      <point x="148" y="700" type="line"/>
      <point x="30" y="700" type="line"/>
    </contour>
  </outline>
</glyph>
<glyph name="X" format="2">
  <advance width="683"/>
  <unicode hex="0058"/>
  <outline>
    <contour>
      <point x="11" y="0" type="line"/>
      <point x="142" y="0" type="line"/>
      <point x="365" y="313" type="line"/>
      <point x="314" y="313" type="line"/>
      <point x="540" y="0" type="line"/>
      <point x="672" y="0" type="line"/>
      <point x="378" y="404" type="line"/>
      <point x="378" y="320" type="line"/>
      <point x="654" y="700" type="line"/>
      <point x="530" y="700" type="line"/>
      <point x="317" y="405" type="line"/>
      <point x="370" y="406" type="line"/>
      <point x="156" y="700" type="line"/>
      <point x="26" y="700" type="line"/>
      <point x="304" y="314" type="line"/>
      <point x="304" y="402" type="line"/>
    </contour>
  </outline>
</glyph>
<glyph name="bracketleft" format="2">
  <advance width="341"/>
  <unicode hex="005B"/>
  <outline>
    <contour>
      <point x="100" y="-194" type="line"/>
      <point x="323" y="-194" type="line"/>
      <point x="323" y="-104" type="line"/>
      <point x="210" y="-104" type="line"/>
      <point x="210" y="652" type="line"/>
      <point x="323" y="652" type="line"/>
      <point x="323" y="742" type="line"/>
      <point x="100" y="742" type="line"/>
    </contour>
  </outline>
</glyph>
<glyph name="backslash" format="2">
  <advance width="361"/>
  <unicode hex="005C"/>
  <outline>
    <contour>
      <point x="390" y="-100" type="line"/>
      <point x="60" y="842" type="line"/>
      <point x="-39" y="842" type="line"/>
      <point x="291" y="-100" type="line"/>
    </contour>
  </outline>
</glyph>
<glyph name="bracketright" format="2">
  <advance width="341"/>
  <unicode hex="005D"/>
  <outline>
    <contour>
      <point x="241" y="-194" type="line"/>
      <point x="241" y="742" type="line"/>
      <point x="18" y="742" type="line"/>
      <point x="18" y="652" type="line"/>
      <point x="131" y="652" type="line"/>
      <point x="131" y="-104" type="line"/>
      <point x="18" y="-104" type="line"/>
      <point x="18" y="-194" type="line"/>
    </contour>
  </outline>
</glyph>
<glyph name="asciicircum" format="2">
  <advance width="587"/>
  <unicode hex="005E"/>
  <outline>
    <contour>
      <point x="71" y="142" type="line"/>
      <point x="158" y="142" type="line"/>
      <point x="317" y="525" type="line"/>
      <point x="270" y="525" type="line"/>
      <point x="429" y="142" type="line"/>
      <point x="516" y="142" type="line"/>
      <point x="339" y="558" type="line"/>
      <point x="249" y="558" type="line"/>
    </contour>
  </outline>
</glyph>
<glyph name="a" format="2">
  <advance width="602"/>
  <unicode hex="0061"/>
  <anchor x="290" y="0" name="bottom"/>
  <anchor x="520" y="0" name="ogonek"/>
  <anchor x="294" y="532" name="top"/>
  <outline>
    <contour>
      <point x="415" y="0" type="line"/>
      <point x="520" y="0" type="line"/>
      <point x="520" y="316" type="line" smooth="yes"/>
      <point x="520" y="466"/>
      <point x="434" y="538"/>
      <point x="285" y="538" type="curve" smooth="yes"/>
      <point x="199" y="538"/>
      <point x="118" y="515"/>
      <point x="62" y="471" type="curve"/>
      <point x="107" y="389" type="line"/>
      <point x="148" y="422"/>
      <point x="211" y="443"/>
      <point x="272" y="443" type="curve" smooth="yes"/>
      <point x="364" y="443"/>
      <point x="410" y="398"/>
      <point x="410" y="322" type="curve" smooth="yes"/>
      <point x="410" y="132" type="line"/>
      <point x="415" y="110" type="line"/>
    </contour>
    <contour>
      <point x="246" y="-6" type="curve" smooth="yes"/>
      <point x="341" y="-6"/>
      <point x="405" y="29"/>
      <point x="430" y="89" type="curve"/>
      <point x="410" y="165" type="line"/>
      <point x="387" y="108"/>
      <point x="331" y="78"/>
      <point x="265" y="78" type="curve" smooth="yes"/>
      <point x="197" y="78"/>
      <point x="156" y="108"/>
      <point x="156" y="156" type="curve" smooth="yes"/>
      <point x="156" y="197"/>
      <point x="179" y="231"/>
      <point x="270" y="231" type="curve" smooth="yes"/>
      <point x="426" y="231" type="line"/>
      <point x="426" y="310" type="line"/>
      <point x="265" y="310" type="line" smooth="yes"/>
      <point x="104" y="310"/>
      <point x="47" y="239"/>
      <point x="47" y="152" type="curve" smooth="yes"/>
      <point x="47" y="59"/>
      <point x="125" y="-6"/>
    </contour>
  </outline>
</glyph>
<glyph name="c" format="2">
  <advance width="576"/>
  <unicode hex="0063"/>
  <anchor x="302" y="0" name="bottom"/>
  <anchor x="305" y="532" name="top"/>
  <outline>
    <contour>
      <point x="324" y="-6" type="curve" smooth="yes"/>
      <point x="424" y="-6"/>
      <point x="505" y="36"/>
      <point x="546" y="113" type="curve"/>
      <point x="462" y="165" type="line"/>
      <point x="429" y="113"/>
      <point x="379" y="90"/>
      <point x="323" y="90" type="curve" smooth="yes"/>
      <point x="225" y="90"/>
      <point x="151" y="157"/>
      <point x="151" y="266" type="curve" smooth="yes"/>
      <point x="151" y="374"/>
      <point x="225" y="442"/>
      <point x="323" y="442" type="curve" smooth="yes"/>
      <point x="379" y="442"/>
      <point x="429" y="418"/>
      <point x="462" y="367" type="curve"/>
      <point x="546" y="419" type="line"/>
      <point x="505" y="497"/>
      <point x="424" y="538"/>
      <point x="324" y="538" type="curve" smooth="yes"/>
      <point x="159" y="538"/>
      <point x="40" y="425"/>
      <point x="40" y="266" type="curve" smooth="yes"/>
      <point x="40" y="107"/>
      <point x="159" y="-6"/>
    </contour>
  </outline>
</glyph>
<glyph name="f" format="2">
  <advance width="361"/>
  <unicode hex="0066"/>
  <outline>
    <contour>
      <point x="102" y="0" type="line"/>
      <point x="212" y="0" type="line"/>
      <point x="212" y="453" type="line"/>
      <point x="209" y="503" type="line"/>
      <point x="209" y="569" type="line" smooth="yes"/>
      <point x="209" y="628"/>
      <point x="237" y="658"/>
      <point x="292" y="658" type="curve" smooth="yes"/>
      <point x="319" y="658"/>
      <point x="344" y="649"/>
      <point x="363" y="635" type="curve"/>
      <point x="395" y="719" type="line"/>
      <point x="368" y="739"/>
      <point x="328" y="748"/>
      <point x="286" y="748" type="curve" smooth="yes"/>
      <point x="167" y="748"/>
      <point x="102" y="678"/>
      <point x="102" y="570" type="curve" smooth="yes"/>
    </contour>
    <contour>
      <point x="13" y="442" type="line"/>
      <point x="360" y="442" type="line"/>
      <point x="360" y="532" type="line"/>
      <point x="13" y="532" type="line"/>
    </contour>
  </outline>
</glyph>
<glyph name="l" format="2">
  <advance width="284"/>
  <unicode hex="006C"/>
  <anchor x="142" y="0" name="bottom"/>
  <anchor x="142" y="360" name="center"/>
  <anchor x="323" y="360" name="dot"/>
  <anchor x="142" y="742" name="top"/>
  <anchor x="283" y="742" name="topright"/>
  <outline>
    <contour>
      <point x="87" y="0" type="line"/>
      <point x="197" y="0" type="line"/>
      <point x="197" y="742" type="line"/>
      <point x="87" y="742" type="line"/>
    </contour>
  </outline>
</glyph>
<glyph name="m" format="2">
  <advance width="1055"/>
  <unicode hex="006D"/>
  <anchor x="529" y="0" name="bottom"/>
  <outline>
    <contour>
      <point x="753" y="538" type="curve" smooth="yes"/>
      <point x="648" y="538"/>
      <point x="561" y="486"/>
      <point x="528" y="407" type="curve"/>
      <point x="574" y="389" type="line"/>
      <point x="550" y="489"/>
      <point x="470" y="538"/>
      <point x="370" y="538" type="curve" smooth="yes"/>
      <point x="281" y="538"/>
      <point x="209" y="501"/>
      <point x="174" y="434" type="curve"/>
      <point x="192" y="392" type="line"/>
      <point x="192" y="532" type="line"/>
      <point x="87" y="532" type="line"/>
      <point x="87" y="0" type="line"/>
      <point x="197" y="0" type="line"/>
      <point x="197" y="272" type="line" smooth="yes"/>
      <point x="197" y="383"/>
      <point x="257" y="440"/>
      <point x="346" y="440" type="curve" smooth="yes"/>
      <point x="428" y="440"/>
      <point x="475" y="391"/>
      <point x="475" y="292" type="curve" smooth="yes"/>
      <point x="475" y="0" type="line"/>
      <point x="585" y="0" type="line"/>
      <point x="585" y="272" type="line" smooth="yes"/>
      <point x="585" y="383"/>
      <point x="645" y="440"/>
      <point x="734" y="440" type="curve" smooth="yes"/>
      <point x="816" y="440"/>
      <point x="863" y="391"/>
      <point x="863" y="292" type="curve" smooth="yes"/>
      <point x="863" y="0" type="line"/>
      <point x="973" y="0" type="line"/>
      <point x="973" y="305" type="line" smooth="yes"/>
      <point x="973" y="464"/>
      <point x="883" y="538"/>
    </contour>
  </outline>
</glyph>
<glyph name="n" format="2">
  <advance width="683"/>
  <unicode hex="006E"/>
  <anchor x="344" y="0" name="bottom"/>
  <anchor x="344" y="532" name="top"/>
  <outline>
    <contour>
      <point x="378" y="538" type="curve" smooth="yes"/>
      <point x="285" y="538"/>
      <point x="210" y="501"/>
      <point x="174" y="434" type="curve"/>
      <point x="192" y="390" type="line"/>
      <point x="192" y="532" type="line"/>
      <point x="87" y="532" type="line"/>
      <point x="87" y="0" type="line"/>
      <point x="197" y="0" type="line"/>
      <point x="197" y="272" type="line" smooth="yes"/>
      <point x="197" y="383"/>
      <point x="260" y="440"/>
      <point x="355" y="440" type="curve" smooth="yes"/>
      <point x="441" y="440"/>
      <point x="491" y="391"/>
      <point x="491" y="292" type="curve" smooth="yes"/>
      <point x="491" y="0" type="line"/>
      <point x="601" y="0" type="line"/>
      <point x="601" y="305" type="line" smooth="yes"/>
      <point x="601" y="464"/>
      <point x="507" y="538"/>
    </contour>
  </outline>
</glyph>
<glyph name="r" format="2">
  <advance width="415"/>
  <unicode hex="0072"/>
  <anchor x="142" y="0" name="bottom"/>
  <anchor x="235" y="532" name="top"/>
  <outline>
    <contour>
      <point x="87" y="0" type="line"/>
      <point x="197" y="0" type="line"/>
      <point x="197" y="261" type="line" smooth="yes"/>
      <point x="197" y="374"/>
      <point x="259" y="433"/>
      <point x="358" y="433" type="curve" smooth="yes"/>
      <point x="366" y="433"/>
      <point x="374" y="432"/>
      <point x="383" y="431" type="curve"/>
      <point x="383" y="538" type="line"/>
      <point x="282" y="538"/>
      <point x="212" y="501"/>
      <point x="181" y="430" type="curve"/>
      <point x="192" y="388" type="line"/>
      <point x="192" y="532" type="line"/>
      <point x="87" y="532" type="line"/>
    </contour>
  </outline>
</glyph>
<glyph name="t" format="2">
  <advance width="419"/>
  <unicode hex="0074"/>
  <anchor x="255" y="0" name="bottom"/>
  <anchor x="187" y="285" name="center"/>
  <anchor x="157" y="649" name="top"/>
  <anchor x="292" y="742" name="topright"/>
  <outline>
    <contour>
      <point x="278" y="-6" type="curve" smooth="yes"/>
      <point x="322" y="-6"/>
      <point x="366" y="6"/>
      <point x="396" y="30" type="curve"/>
      <point x="363" y="109" type="line"/>
      <point x="344" y="94"/>
      <point x="318" y="86"/>
      <point x="291" y="86" type="curve" smooth="yes"/>
      <point x="240" y="86"/>
      <point x="212" y="116"/>
      <point x="212" y="170" type="curve" smooth="yes"/>
      <point x="212" y="649" type="line"/>
      <point x="102" y="649" type="line"/>
      <point x="102" y="167" type="line" smooth="yes"/>
      <point x="102" y="54"/>
      <point x="166" y="-6"/>
    </contour>
    <contour>
      <point x="13" y="442" type="line"/>
      <point x="360" y="442" type="line"/>
      <point x="360" y="532" type="line"/>
      <point x="13" y="532" type="line"/>
    </contour>
  </outline>
</glyph>
<glyph name="u" format="2">
  <advance width="679"/>
  <unicode hex="0075"/>
  <anchor x="337" y="0" name="bottom"/>
  <anchor x="592" y="0" name="ogonek"/>
  <anchor x="337" y="532" name="top"/>
  <anchor x="538" y="532" name="topright"/>
  <outline>
    <contour>
      <point x="313" y="-6" type="curve" smooth="yes"/>
      <point x="395" y="-6"/>
      <point x="469" y="31"/>
      <point x="505" y="98" type="curve"/>
      <point x="487" y="142" type="line"/>
      <point x="487" y="0" type="line"/>
      <point x="592" y="0" type="line"/>
      <point x="592" y="532" type="line"/>
      <point x="482" y="532" type="line"/>
      <point x="482" y="260" type="line" smooth="yes"/>
      <point x="482" y="149"/>
      <point x="420" y="92"/>
      <point x="326" y="92" type="curve" smooth="yes"/>
      <point x="241" y="92"/>
      <point x="192" y="141"/>
      <point x="192" y="240" type="curve" smooth="yes"/>
      <point x="192" y="532" type="line"/>
      <point x="82" y="532" type="line"/>
      <point x="82" y="227" type="line" smooth="yes"/>
      <point x="82" y="68"/>
      <point x="175" y="-6"/>
    </contour>
  </outline>
</glyph>
<glyph name="w" format="2">
  <advance width="910"/>
  <unicode hex="0077"/>
  <anchor x="452" y="0" name="bottom"/>
  <anchor x="452" y="530" name="top"/>
  <outline>
    <contour>
      <point x="202" y="0" type="line"/>
      <point x="307" y="0" type="line"/>
      <point x="472" y="427" type="line"/>
      <point x="440" y="427" type="line"/>
      <point x="602" y="0" type="line"/>
      <point x="707" y="0" type="line"/>
      <point x="905" y="532" type="line"/>
      <point x="807" y="532" type="line"/>
      <point x="630" y="57" type="line"/>
      <point x="679" y="57" type="line"/>
      <point x="504" y="532" type="line"/>
      <point x="411" y="532" type="line"/>
      <point x="232" y="57" type="line"/>
      <point x="281" y="57" type="line"/>
      <point x="109" y="532" type="line"/>
      <point x="5" y="532" type="line"/>
    </contour>
  </outline>
</glyph>
<glyph name="y" format="2">
  <advance width="568"/>
  <unicode hex="0079"/>
  <anchor x="423" y="0" name="bottom"/>
  <anchor x="271" y="532" name="top"/>
  <outline>
    <contour>
      <point x="120" y="-200" type="curve" smooth="yes"/>
      <point x="205" y="-200"/>
      <point x="269" y="-165"/>
      <point x="317" y="-48" type="curve" smooth="yes"/>
      <point x="571" y="532" type="line"/>
      <point x="464" y="532" type="line"/>
      <point x="259" y="56" type="line"/>
      <point x="249" y="42" type="line"/>
      <point x="217" y="-29" type="line" smooth="yes"/>
      <point x="192" y="-86"/>
      <point x="165" y="-107"/>
      <point x="120" y="-107" type="curve" smooth="yes"/>
      <point x="85" y="-107"/>
      <point x="51" y="-93"/>
      <point x="26" y="-69" type="curve"/>
      <point x="-20" y="-151" type="line"/>
      <point x="14" y="-183"/>
      <point x="68" y="-200"/>
    </contour>
    <contour>
      <point x="238" y="-18" type="line"/>
      <point x="312" y="66" type="line"/>
      <point x="111" y="532" type="line"/>
      <point x="-3" y="532" type="line"/>
    </contour>
  </outline>
</glyph>
<glyph name="z" format="2">
  <advance width="526"/>
  <unicode hex="007A"/>
  <anchor x="270" y="0" name="bottom"/>
  <anchor x="265" y="532" name="top"/>
  <outline>
    <contour>
      <point x="39.01" y="0" type="line"/>
      <point x="491" y="0" type="line"/>
      <point x="491" y="90" type="line"/>
      <point x="125" y="90" type="line"/>
      <point x="148" y="52" type="line"/>
      <point x="483" y="461" type="line"/>
      <point x="483" y="532" type="line"/>
      <point x="45" y="532" type="line"/>
      <point x="45" y="442" type="line"/>
      <point x="395" y="442" type="line"/>
      <point x="374" y="480" type="line"/>
      <point x="39" y="71" type="line"/>
    </contour>
  </outline>
</glyph>
<glyph name="asciitilde" format="2">
  <advance width="586"/>
  <unicode hex="007E"/>
  <outline>
    <contour>
      <point x="394" y="261" type="curve" smooth="yes"/>
      <point x="472" y="261"/>
      <point x="527" y="315"/>
      <point x="530" y="433" type="curve"/>
      <point x="459" y="433" type="line"/>
      <point x="457" y="380"/>
      <point x="432" y="345"/>
      <point x="390" y="345" type="curve" smooth="yes"/>
      <point x="332" y="345"/>
      <point x="289" y="440"/>
      <point x="192" y="440" type="curve" smooth="yes"/>
      <point x="114" y="440"/>
      <point x="59" y="386"/>
      <point x="56" y="269" type="curve"/>
      <point x="127" y="269" type="line"/>
      <point x="129" y="322"/>
      <point x="155" y="356"/>
      <point x="196" y="356" type="curve" smooth="yes"/>
      <point x="254" y="356"/>
      <point x="298" y="261"/>
    </contour>
  </outline>
</glyph>
<glyph name="cent" format="2">
  <advance width="576"/>
  <unicode hex="00A2"/>
  <outline>
    <contour>
      <point x="280" y="-120" type="line"/>
      <point x="352" y="-120" type="line"/>
      <point x="352" y="652" type="line"/>
      <point x="280" y="652" type="line"/>
    </contour>
    <contour>
      <point x="324" y="-6" type="curve" smooth="yes"/>
      <point x="424" y="-6"/>
      <point x="505" y="36"/>
      <point x="546" y="113" type="curve"/>
      <point x="462" y="165" type="line"/>
      <point x="429" y="113"/>
      <point x="379" y="90"/>
      <point x="323" y="90" type="curve" smooth="yes"/>
      <point x="225" y="90"/>
      <point x="151" y="157"/>
      <point x="151" y="266" type="curve" smooth="yes"/>
      <point x="151" y="374"/>
      <point x="225" y="442"/>
      <point x="323" y="442" type="curve" smooth="yes"/>
      <point x="379" y="442"/>
      <point x="429" y="418"/>
      <point x="462" y="367" type="curve"/>
      <point x="546" y="419" type="line"/>
      <point x="505" y="497"/>
      <point x="424" y="538"/>
      <point x="324" y="538" type="curve" smooth="yes"/>
      <point x="159" y="538"/>
      <point x="40" y="425"/>
      <point x="40" y="266" type="curve" smooth="yes"/>
      <point x="40" y="107"/>
      <point x="159" y="-6"/>
    </contour>
  </outline>
</glyph>
<glyph name="copyright" format="2">
  <advance width="798"/>
  <unicode hex="00A9"/>
  <outline>
    <contour>
      <point x="398" y="-3" type="curve" smooth="yes"/>
      <point x="597" y="-3"/>
      <point x="752" y="153"/>
      <point x="752" y="352" type="curve" smooth="yes"/>
      <point x="752" y="551"/>
      <point x="601" y="703"/>
      <point x="400" y="703" type="curve" smooth="yes"/>
      <point x="199" y="703"/>
      <point x="46" y="547"/>
      <point x="46" y="350" type="curve" smooth="yes"/>
      <point x="46" y="153"/>
      <point x="199" y="-3"/>
    </contour>
    <contour>
      <point x="398" y="47" type="curve" smooth="yes"/>
      <point x="226" y="47"/>
      <point x="98" y="180"/>
      <point x="98" y="350" type="curve" smooth="yes"/>
      <point x="98" y="520"/>
      <point x="226" y="653"/>
      <point x="400" y="653" type="curve" smooth="yes"/>
      <point x="573" y="653"/>
      <point x="700" y="523"/>
      <point x="700" y="352" type="curve" smooth="yes"/>
      <point x="700" y="181"/>
      <point x="569" y="47"/>
    </contour>
    <contour>
      <point x="409" y="145" type="curve" smooth="yes"/>
      <point x="482" y="145"/>
      <point x="542" y="178"/>
      <point x="573" y="230" type="curve"/>
      <point x="509" y="274" type="line"/>
      <point x="485" y="238"/>
      <point x="449" y="222"/>
      <point x="408" y="222" type="curve" smooth="yes"/>
      <point x="338" y="222"/>
      <point x="284" y="272"/>
      <point x="284" y="350" type="curve" smooth="yes"/>
      <point x="284" y="428"/>
      <point x="338" y="478"/>
      <point x="408" y="478" type="curve" smooth="yes"/>
      <point x="449" y="478"/>
      <point x="485" y="462"/>
      <point x="509" y="426" type="curve"/>
      <point x="573" y="472" type="line"/>
      <point x="542" y="522"/>
      <point x="482" y="555"/>
      <point x="409" y="555" type="curve" smooth="yes"/>
      <point x="286" y="555"/>
      <point x="198" y="470"/>
      <point x="198" y="350" type="curve" smooth="yes"/>
      <point x="198" y="230"/>
      <point x="286" y="145"/>
    </contour>
  </outline>
</glyph>
<glyph name="ordfeminine" format="2">
  <advance width="406"/>
  <unicode hex="00AA"/>
  <outline>
    <contour>
      <point x="272" y="427" type="line"/>
      <point x="344" y="427" type="line"/>
      <point x="344" y="614" type="line" smooth="yes"/>
      <point x="344" y="705"/>
      <point x="290" y="748"/>
      <point x="190" y="748" type="curve" smooth="yes"/>
      <point x="138" y="748"/>
      <point x="80" y="732"/>
      <point x="45" y="705" type="curve"/>
      <point x="74" y="654" type="line"/>
      <point x="101" y="675"/>
      <point x="142" y="688"/>
      <point x="182" y="688" type="curve" smooth="yes"/>
      <point x="238" y="688"/>
      <point x="266" y="666"/>
      <point x="266" y="617" type="curve" smooth="yes"/>
      <point x="266" y="504" type="line"/>
      <point x="272" y="492" type="line"/>
    </contour>
    <contour>
      <point x="162" y="423" type="curve" smooth="yes"/>
      <point x="223" y="423"/>
      <point x="264" y="445"/>
      <point x="278" y="472" type="curve"/>
      <point x="266" y="521" type="line"/>
      <point x="251" y="493"/>
      <point x="222" y="477"/>
      <point x="178" y="477" type="curve" smooth="yes"/>
      <point x="135" y="477"/>
      <point x="109" y="492"/>
      <point x="109" y="521" type="curve" smooth="yes"/>
      <point x="109" y="547"/>
      <point x="131" y="563"/>
      <point x="184" y="563" type="curve" smooth="yes"/>
      <point x="277" y="563" type="line"/>
      <point x="277" y="612" type="line"/>
      <point x="173" y="612" type="line" smooth="yes"/>
      <point x="75" y="612"/>
      <point x="35" y="572"/>
      <point x="35" y="518" type="curve" smooth="yes"/>
      <point x="35" y="464"/>
      <point x="78" y="423"/>
    </contour>
  </outline>
</glyph>
<glyph name="registered" format="2">
  <advance width="798"/>
  <unicode hex="00AE"/>
  <outline>
    <contour>
      <point x="398" y="-3" type="curve" smooth="yes"/>
      <point x="597" y="-3"/>
      <point x="752" y="153"/>
      <point x="752" y="352" type="curve" smooth="yes"/>
      <point x="752" y="551"/>
      <point x="601" y="703"/>
      <point x="400" y="703" type="curve" smooth="yes"/>
      <point x="199" y="703"/>
      <point x="46" y="547"/>
      <point x="46" y="350" type="curve" smooth="yes"/>
      <point x="46" y="153"/>
      <point x="199" y="-3"/>
    </contour>
    <contour>
      <point x="511" y="152" type="line"/>
      <point x="588" y="152" type="line"/>
      <point x="489" y="304" type="line"/>
      <point x="412" y="304" type="line"/>
    </contour>
    <contour>
      <point x="398" y="47" type="curve" smooth="yes"/>
      <point x="226" y="47"/>
      <point x="98" y="180"/>
      <point x="98" y="350" type="curve" smooth="yes"/>
      <point x="98" y="520"/>
      <point x="226" y="653"/>
      <point x="400" y="653" type="curve" smooth="yes"/>
      <point x="573" y="653"/>
      <point x="700" y="523"/>
      <point x="700" y="352" type="curve" smooth="yes"/>
      <point x="700" y="181"/>
      <point x="569" y="47"/>
    </contour>
    <contour>
      <point x="254" y="152" type="line"/>
      <point x="331" y="152" type="line"/>
      <point x="331" y="275" type="line"/>
      <point x="416" y="275" type="line" smooth="yes"/>
      <point x="518" y="275"/>
      <point x="580" y="325"/>
      <point x="580" y="412" type="curve" smooth="yes"/>
      <point x="580" y="495"/>
      <point x="518" y="548"/>
      <point x="416" y="548" type="curve" smooth="yes"/>
      <point x="254" y="548" type="line"/>
    </contour>
    <contour>
      <point x="330" y="338" type="line"/>
      <point x="330" y="485" type="line"/>
      <point x="411" y="485" type="line" smooth="yes"/>
      <point x="471" y="485"/>
      <point x="506" y="459"/>
      <point x="506" y="412" type="curve" smooth="yes"/>
      <point x="506" y="365"/>
      <point x="471" y="338"/>
      <point x="411" y="338" type="curve" smooth="yes"/>
    </contour>
  </outline>
</glyph>
<glyph name="plusminus" format="2">
  <advance width="586"/>
  <unicode hex="00B1"/>
  <outline>
    <contour>
      <point x="66" y="0" type="line"/>
      <point x="520" y="0" type="line"/>
      <point x="520" y="90" type="line"/>
      <point x="66" y="90" type="line"/>
    </contour>
    <contour>
      <point x="245" y="191" type="line"/>
      <point x="341" y="191" type="line"/>
      <point x="341" y="623" type="line"/>
      <point x="245" y="623" type="line"/>
    </contour>
    <contour>
      <point x="66" y="362" type="line"/>
      <point x="520" y="362" type="line"/>
      <point x="520" y="452" type="line"/>
      <point x="66" y="452" type="line"/>
    </contour>
  </outline>
</glyph>
<glyph name="paragraph" format="2">
  <advance width="657"/>
  <unicode hex="00B6"/>
  <outline>
    <contour>
      <point x="227" y="-100" type="line"/>
      <point x="318" y="-100" type="line"/>
      <point x="318" y="657" type="line"/>
      <point x="466" y="657" type="line"/>
      <point x="466" y="-100" type="line"/>
      <point x="557" y="-100" type="line"/>
      <point x="557" y="742" type="line"/>
      <point x="244" y="742" type="line" smooth="yes"/>
      <point x="107" y="742"/>
      <point x="18" y="672"/>
      <point x="18" y="560" type="curve" smooth="yes"/>
      <point x="18" y="449"/>
      <point x="105" y="379"/>
      <point x="227" y="377" type="curve"/>
    </contour>
  </outline>
</glyph>
<glyph name="ordmasculine" format="2">
  <advance width="420"/>
  <unicode hex="00BA"/>
  <outline>
    <contour>
      <point x="210" y="423" type="curve" smooth="yes"/>
      <point x="315" y="423"/>
      <point x="390" y="491"/>
      <point x="390" y="586" type="curve" smooth="yes"/>
      <point x="390" y="680"/>
      <point x="315" y="748"/>
      <point x="210" y="748" type="curve" smooth="yes"/>
      <point x="106" y="748"/>
      <point x="30" y="680"/>
      <point x="30" y="586" type="curve" smooth="yes"/>
      <point x="30" y="491"/>
      <point x="106" y="423"/>
    </contour>
    <contour>
      <point x="210" y="488" type="curve" smooth="yes"/>
      <point x="148" y="488"/>
      <point x="106" y="528"/>
      <point x="106" y="586" type="curve" smooth="yes"/>
      <point x="106" y="644"/>
      <point x="148" y="683"/>
      <point x="210" y="683" type="curve" smooth="yes"/>
      <point x="272" y="683"/>
      <point x="314" y="644"/>
      <point x="314" y="586" type="curve" smooth="yes"/>
      <point x="314" y="528"/>
      <point x="272" y="488"/>
    </contour>
  </outline>
</glyph>
<glyph name="questiondown" format="2">
  <advance width="577"/>
  <unicode hex="00BF"/>
  <outline>
    <contour>
      <point x="306" y="-163" type="curve" smooth="yes"/>
      <point x="425" y="-163"/>
      <point x="514" y="-120"/>
      <point x="570" y="-47" type="curve"/>
      <point x="486" y="12" type="line"/>
      <point x="448" y="-38"/>
      <point x="392" y="-66"/>
      <point x="314" y="-66" type="curve" smooth="yes"/>
      <point x="231" y="-66"/>
      <point x="180" y="-25"/>
      <point x="180" y="26" type="curve" smooth="yes"/>
      <point x="180" y="131"/>
      <point x="353" y="158"/>
      <point x="353" y="305" type="curve"/>
      <point x="238" y="305" type="line"/>
      <point x="237" y="186"/>
      <point x="66" y="172"/>
      <point x="65" y="13" type="curve" smooth="yes"/>
      <point x="64" y="-96"/>
      <point x="160" y="-163"/>
    </contour>
    <contour>
      <point x="295" y="396" type="curve" smooth="yes"/>
      <point x="337" y="396"/>
      <point x="367" y="427"/>
      <point x="367" y="466" type="curve" smooth="yes"/>
      <point x="367" y="506"/>
      <point x="337" y="538"/>
      <point x="295" y="538" type="curve" smooth="yes"/>
      <point x="253" y="538"/>
      <point x="223" y="506"/>
      <point x="223" y="466" type="curve" smooth="yes"/>
      <point x="223" y="427"/>
      <point x="253" y="396"/>
    </contour>
  </outline>
</glyph>
<glyph name="multiply" format="2">
  <advance width="586"/>
  <unicode hex="00D7"/>
  <outline>
    <contour>
      <point x="103" y="221" type="line"/>
      <point x="163" y="155" type="line"/>
      <point x="484" y="479" type="line"/>
      <point x="423" y="545" type="line"/>
    </contour>
    <contour>
      <point x="103" y="479" type="line"/>
      <point x="423" y="155" type="line"/>
      <point x="484" y="221" type="line"/>
      <point x="163" y="545" type="line"/>
    </contour>
  </outline>
</glyph>
<glyph name="Thorn" format="2">
  <advance width="724"/>
  <unicode hex="00DE"/>
  <outline>
    <contour>
      <point x="188" y="122" type="line"/>
      <point x="380" y="122" type="line" smooth="yes"/>
      <point x="563" y="122"/>
      <point x="675" y="216"/>
      <point x="675" y="369" type="curve" smooth="yes"/>
      <point x="675" y="522"/>
      <point x="563" y="616"/>
      <point x="380" y="616" type="curve" smooth="yes"/>
      <point x="188" y="616" type="line"/>
      <point x="188" y="517" type="line"/>
      <point x="376" y="517" type="line" smooth="yes"/>
      <point x="497" y="517"/>
      <point x="560" y="463"/>
      <point x="560" y="369" type="curve" smooth="yes"/>
      <point x="560" y="275"/>
      <point x="497" y="221"/>
      <point x="376" y="221" type="curve" smooth="yes"/>
      <point x="188" y="221" type="line"/>
    </contour>
    <contour>
      <point x="100" y="0" type="line"/>
      <point x="214" y="0" type="line"/>
      <point x="214" y="700" type="line"/>
      <point x="100" y="700" type="line"/>
    </contour>
  </outline>
</glyph>
<glyph name="ae" format="2">
  <advance width="991"/>
  <unicode hex="00E6"/>
  <anchor x="476" y="0" name="bottom"/>
  <anchor x="465" y="532" name="top"/>
  <outline>
    <contour>
      <point x="258" y="-6" type="curve" smooth="yes"/>
      <point x="360" y="-6"/>
      <point x="470" y="34"/>
      <point x="497" y="171" type="curve"/>
      <point x="426" y="172" type="line"/>
      <point x="471" y="48"/>
      <point x="575" y="-6"/>
      <point x="700" y="-6" type="curve" smooth="yes"/>
      <point x="791" y="-6"/>
      <point x="864" y="23"/>
      <point x="914" y="80" type="curve"/>
      <point x="853" y="151" type="line"/>
      <point x="813" y="110"/>
      <point x="765" y="90"/>
      <point x="704" y="90" type="curve" smooth="yes"/>
      <point x="592" y="90"/>
      <point x="519" y="159"/>
      <point x="519" y="260" type="curve" smooth="yes"/>
      <point x="519" y="278" type="line" smooth="yes"/>
      <point x="519" y="390"/>
      <point x="601" y="445"/>
      <point x="682" y="445" type="curve" smooth="yes"/>
      <point x="764" y="445"/>
      <point x="845" y="390"/>
      <point x="844" y="281" type="curve"/>
      <point x="890" y="309" type="line"/>
      <point x="498" y="309" type="line"/>
      <point x="498" y="230" type="line"/>
      <point x="948" y="230" type="line"/>
      <point x="950" y="241"/>
      <point x="951" y="253"/>
      <point x="951" y="268" type="curve" smooth="yes"/>
      <point x="951" y="425"/>
      <point x="838" y="538"/>
      <point x="683" y="538" type="curve" smooth="yes"/>
      <point x="578" y="538"/>
      <point x="492" y="486"/>
      <point x="450" y="404" type="curve"/>
      <point x="504" y="399" type="line"/>
      <point x="481" y="489"/>
      <point x="406" y="538"/>
      <point x="284" y="538" type="curve" smooth="yes"/>
      <point x="200" y="538"/>
      <point x="118" y="515"/>
      <point x="62" y="471" type="curve"/>
      <point x="107" y="389" type="line"/>
      <point x="148" y="422"/>
      <point x="211" y="443"/>
      <point x="273" y="443" type="curve" smooth="yes"/>
      <point x="364" y="443"/>
      <point x="410" y="398"/>
      <point x="410" y="322" type="curve" smooth="yes"/>
      <point x="410" y="201" type="line" smooth="yes"/>
      <point x="410" y="128"/>
      <point x="357" y="78"/>
      <point x="267" y="78" type="curve" smooth="yes"/>
      <point x="198" y="78"/>
      <point x="156" y="107"/>
      <point x="156" y="158" type="curve" smooth="yes"/>
      <point x="156" y="197"/>
      <point x="180" y="230"/>
      <point x="270" y="230" type="curve" smooth="yes"/>
      <point x="426" y="230" type="line"/>
      <point x="426" y="309" type="line"/>
      <point x="265" y="309" type="line" smooth="yes"/>
      <point x="104" y="309"/>
      <point x="47" y="237"/>
      <point x="47" y="156" type="curve" smooth="yes"/>
      <point x="47" y="60"/>
      <point x="126" y="-6"/>
    </contour>
  </outline>
</glyph>
<glyph name="eth" format="2">
  <advance width="644"/>
  <unicode hex="00F0"/>
  <outline>
    <contour>
      <point x="296" y="-9" type="curve" smooth="yes"/>
      <point x="491" y="-9"/>
      <point x="604" y="126"/>
      <point x="604" y="344" type="curve" smooth="yes"/>
      <point x="604" y="598"/>
      <point x="464" y="730"/>
      <point x="250" y="730" type="curve" smooth="yes"/>
      <point x="187" y="730"/>
      <point x="132" y="721"/>
      <point x="88" y="708" type="curve"/>
      <point x="106" y="615" type="line"/>
      <point x="143" y="628"/>
      <point x="193" y="638"/>
      <point x="250" y="638" type="curve" smooth="yes"/>
      <point x="399" y="638"/>
      <point x="493" y="548"/>
      <point x="493" y="369" type="curve" smooth="yes"/>
      <point x="493" y="332"/>
      <point x="491" y="294"/>
      <point x="482" y="258" type="curve"/>
      <point x="525" y="275" type="line"/>
      <point x="496" y="381"/>
      <point x="411" y="441"/>
      <point x="297" y="441" type="curve" smooth="yes"/>
      <point x="152" y="441"/>
      <point x="40" y="354"/>
      <point x="40" y="216" type="curve" smooth="yes"/>
      <point x="40" y="78"/>
      <point x="152" y="-9"/>
    </contour>
    <contour>
      <point x="304" y="84" type="curve" smooth="yes"/>
      <point x="213" y="84"/>
      <point x="151" y="136"/>
      <point x="151" y="216" type="curve" smooth="yes"/>
      <point x="151" y="296"/>
      <point x="211" y="348"/>
      <point x="309" y="348" type="curve" smooth="yes"/>
      <point x="400" y="348"/>
      <point x="466" y="292"/>
      <point x="466" y="216" type="curve" smooth="yes"/>
      <point x="466" y="146"/>
      <point x="406" y="84"/>
    </contour>
    <contour>
      <point x="155" y="472" type="line"/>
      <point x="574" y="638" type="line"/>
      <point x="545" y="710" type="line"/>
      <point x="126" y="543" type="line"/>
    </contour>
  </outline>
</glyph>
<glyph name="divide" format="2">
  <advance width="586"/>
  <unicode hex="00F7"/>
  <outline>
    <contour>
      <point x="66" y="305" type="line"/>
      <point x="520" y="305" type="line"/>
      <point x="520" y="395" type="line"/>
      <point x="66" y="395" type="line"/>
    </contour>
    <contour>
      <point x="293" y="84" type="curve" smooth="yes"/>
      <point x="329" y="84"/>
      <point x="357" y="112"/>
      <point x="357" y="151" type="curve" smooth="yes"/>
      <point x="357" y="189"/>
      <point x="329" y="216"/>
      <point x="293" y="216" type="curve" smooth="yes"/>
      <point x="258" y="216"/>
      <point x="230" y="189"/>
      <point x="230" y="151" type="curve" smooth="yes"/>
      <point x="230" y="112"/>
      <point x="258" y="84"/>
    </contour>
    <contour>
      <point x="293" y="484" type="curve" smooth="yes"/>
      <point x="329" y="484"/>
      <point x="357" y="512"/>
      <point x="357" y="550" type="curve" smooth="yes"/>
      <point x="357" y="589"/>
      <point x="329" y="616"/>
      <point x="293" y="616" type="curve" smooth="yes"/>
      <point x="258" y="616"/>
      <point x="230" y="589"/>
      <point x="230" y="550" type="curve" smooth="yes"/>
      <point x="230" y="512"/>
      <point x="258" y="484"/>
    </contour>
  </outline>
</glyph>
<glyph name="idotless" format="2">
  <advance width="284"/>
  <unicode hex="0131"/>
  <anchor x="142" y="0" name="bottom"/>
  <anchor x="197" y="0" name="ogonek"/>
  <anchor x="142" y="532" name="top"/>
  <outline>
    <contour>
      <point x="87" y="0" type="line"/>
      <point x="197" y="0" type="line"/>
      <point x="197" y="532" type="line"/>
      <point x="87" y="532" type="line"/>
    </contour>
  </outline>
</glyph>
<glyph name="kgreenlandic" format="2">
  <advance width="615"/>
  <unicode hex="0138"/>
  <anchor x="292" y="0" name="bottom"/>
  <anchor x="292" y="532" name="top"/>
  <outline>
    <contour>
      <point x="176" y="123" type="line"/>
      <point x="309" y="248" type="line"/>
      <point x="368" y="298" type="line"/>
      <point x="604" y="532" type="line"/>
      <point x="471" y="532" type="line"/>
      <point x="179" y="264" type="line"/>
    </contour>
    <contour>
      <point x="87" y="0" type="line"/>
      <point x="197" y="0" type="line"/>
      <point x="197" y="532" type="line"/>
      <point x="87" y="532" type="line"/>
    </contour>
    <contour>
      <point x="491" y="0" type="line"/>
      <point x="625" y="0" type="line"/>
      <point x="359" y="338" type="line"/>
      <point x="289" y="249" type="line"/>
    </contour>
  </outline>
</glyph>
<glyph name="eng" format="2">
  <advance width="683"/>
  <unicode hex="014B"/>
  <outline>
    <contour>
      <point x="378" y="538" type="curve" smooth="yes"/>
      <point x="285" y="538"/>
      <point x="210" y="501"/>
      <point x="174" y="434" type="curve"/>
      <point x="192" y="390" type="line"/>
      <point x="192" y="532" type="line"/>
      <point x="87" y="532" type="line"/>
      <point x="87" y="0" type="line"/>
      <point x="197" y="0" type="line"/>
      <point x="197" y="272" type="line" smooth="yes"/>
      <point x="197" y="383"/>
      <point x="260" y="440"/>
      <point x="355" y="440" type="curve" smooth="yes"/>
      <point x="441" y="440"/>
      <point x="491" y="391"/>
      <point x="491" y="292" type="curve" smooth="yes"/>
      <point x="491" y="-19" type="line" smooth="yes"/>
      <point x="491" y="-78"/>
      <point x="464" y="-108"/>
      <point x="416" y="-108" type="curve" smooth="yes"/>
      <point x="386" y="-108"/>
      <point x="359" y="-100"/>
      <point x="340" y="-85" type="curve"/>
      <point x="306" y="-169" type="line"/>
      <point x="334" y="-191"/>
      <point x="378" y="-200"/>
      <point x="423" y="-200" type="curve" smooth="yes"/>
      <point x="538" y="-200"/>
      <point x="601" y="-129"/>
      <point x="601" y="-16" type="curve" smooth="yes"/>
      <point x="601" y="305" type="line" smooth="yes"/>
      <point x="601" y="464"/>
      <point x="507" y="538"/>
    </contour>
  </outline>
</glyph>
<glyph name="OE" format="2">
  <advance width="1128"/>
  <unicode hex="0152"/>
  <anchor x="614" y="0" name="bottom"/>
  <anchor x="614" y="700" name="top"/>
  <outline>
    <contour>
      <point x="426" y="0" type="curve" smooth="yes"/>
      <point x="587" y="0" type="line"/>
      <point x="587" y="99" type="line"/>
      <point x="432" y="99" type="line" smooth="yes"/>
      <point x="267" y="99"/>
      <point x="161" y="199"/>
      <point x="161" y="349" type="curve" smooth="yes"/>
      <point x="161" y="501"/>
      <point x="267" y="601"/>
      <point x="432" y="601" type="curve" smooth="yes"/>
      <point x="587" y="601" type="line"/>
      <point x="587" y="700" type="line"/>
      <point x="426" y="700" type="line" smooth="yes"/>
      <point x="200" y="700"/>
      <point x="46" y="559"/>
      <point x="46" y="349" type="curve" smooth="yes"/>
      <point x="46" y="141"/>
      <point x="200" y="0"/>
    </contour>
    <contour>
      <point x="663" y="404" type="line"/>
      <point x="663" y="307" type="line"/>
      <point x="1017" y="307" type="line"/>
      <point x="1017" y="404" type="line"/>
    </contour>
    <contour>
      <point x="672" y="99" type="line"/>
      <point x="672" y="601" type="line"/>
      <point x="1060" y="601" type="line"/>
      <point x="1060" y="700" type="line"/>
      <point x="558" y="700" type="line"/>
      <point x="558" y="0" type="line"/>
      <point x="1074" y="0" type="line"/>
      <point x="1074" y="99" type="line"/>
    </contour>
  </outline>
</glyph>
<glyph name="oe" format="2">
  <advance width="1066"/>
  <unicode hex="0153"/>
  <anchor x="543" y="0" name="bottom"/>
  <anchor x="543" y="532" name="top"/>
  <outline>
    <contour>
      <point x="320" y="-6" type="curve" smooth="yes"/>
      <point x="482" y="-6"/>
      <point x="589" y="107"/>
      <point x="589" y="266" type="curve" smooth="yes"/>
      <point x="589" y="425"/>
      <point x="482" y="538"/>
      <point x="320" y="538" type="curve" smooth="yes"/>
      <point x="159" y="538"/>
      <point x="40" y="425"/>
      <point x="40" y="266" type="curve" smooth="yes"/>
      <point x="40" y="107"/>
      <point x="159" y="-6"/>
    </contour>
    <contour>
      <point x="320" y="90" type="curve" smooth="yes"/>
      <point x="224" y="90"/>
      <point x="151" y="159"/>
      <point x="151" y="266" type="curve" smooth="yes"/>
      <point x="151" y="373"/>
      <point x="224" y="442"/>
      <point x="320" y="442" type="curve" smooth="yes"/>
      <point x="417" y="442"/>
      <point x="489" y="373"/>
      <point x="489" y="266" type="curve" smooth="yes"/>
      <point x="489" y="159"/>
      <point x="417" y="90"/>
    </contour>
    <contour>
      <point x="779" y="-6" type="curve" smooth="yes"/>
      <point x="869" y="-6"/>
      <point x="943" y="24"/>
      <point x="991" y="80" type="curve"/>
      <point x="931" y="151" type="line"/>
      <point x="893" y="110"/>
      <point x="843" y="90"/>
      <point x="782" y="90" type="curve" smooth="yes"/>
      <point x="671" y="90"/>
      <point x="597" y="159"/>
      <point x="597" y="260" type="curve" smooth="yes"/>
      <point x="597" y="278" type="line" smooth="yes"/>
      <point x="597" y="377"/>
      <point x="664" y="445"/>
      <point x="760" y="445" type="curve" smooth="yes"/>
      <point x="856" y="445"/>
      <point x="923" y="377"/>
      <point x="922" y="281" type="curve"/>
      <point x="966" y="307" type="line"/>
      <point x="576" y="307" type="line"/>
      <point x="576" y="228" type="line"/>
      <point x="1024" y="228" type="line"/>
      <point x="1025" y="239"/>
      <point x="1026" y="253"/>
      <point x="1026" y="262" type="curve" smooth="yes"/>
      <point x="1026" y="427"/>
      <point x="916" y="538"/>
      <point x="760" y="538" type="curve" smooth="yes"/>
      <point x="604" y="538"/>
      <point x="496" y="424"/>
      <point x="496" y="266" type="curve" smooth="yes"/>
      <point x="496" y="107"/>
      <point x="604" y="-6"/>
    </contour>
  </outline>
</glyph>
<glyph name="Uogonek" format="2">
  <advance width="790"/>
  <unicode hex="0172"/>
  <outline>
    <contour>
      <point x="584" y="700" type="line"/>
      <point x="584" y="308" type="line" smooth="yes"/>
      <point x="584" y="159"/>
      <point x="516" y="93"/>
      <point x="396" y="93" type="curve" smooth="yes"/>
      <point x="276" y="93"/>
      <point x="208" y="159"/>
      <point x="208" y="308" type="curve" smooth="yes"/>
      <point x="208" y="700" type="line"/>
      <point x="94" y="700" type="line"/>
      <point x="94" y="304" type="line" smooth="yes"/>
      <point x="94" y="100"/>
      <point x="207" y="-9"/>
      <point x="395" y="-9" type="curve" smooth="yes"/>
      <point x="409" y="-9"/>
      <point x="424" y="-8"/>
      <point x="438" y="-7" type="curve"/>
      <point x="439" y="35" type="line"/>
      <point x="333" y="-7"/>
      <point x="295" y="-66"/>
      <point x="295" y="-122" type="curve" smooth="yes"/>
      <point x="295" y="-183"/>
      <point x="341" y="-226"/>
      <point x="420" y="-226" type="curve" smooth="yes"/>
      <point x="454" y="-226"/>
      <point x="488" y="-217"/>
      <point x="513" y="-203" type="curve"/>
      <point x="493" y="-147" type="line"/>
      <point x="477" y="-157"/>
      <point x="453" y="-163"/>
      <point x="432" y="-163" type="curve" smooth="yes"/>
      <point x="397" y="-163"/>
      <point x="372" y="-145"/>
      <point x="372" y="-113" type="curve" smooth="yes"/>
      <point x="372" y="-78"/>
      <point x="398" y="-34"/>
      <point x="514" y="8" type="curve" smooth="yes"/>
      <point x="625" y="48"/>
      <point x="696" y="140"/>
      <point x="696" y="304" type="curve" smooth="yes"/>
      <point x="696" y="700" type="line"/>
    </contour>
  </outline>
</glyph>
<glyph name="longs" format="2">
  <advance width="312"/>
  <unicode hex="017F"/>
  <outline>
    <contour>
      <point x="112" y="0" type="line"/>
      <point x="222" y="0" type="line"/>
      <point x="222" y="569" type="line" smooth="yes"/>
      <point x="222" y="628"/>
      <point x="250" y="658"/>
      <point x="302" y="658" type="curve" smooth="yes"/>
      <point x="329" y="658"/>
      <point x="354" y="649"/>
      <point x="373" y="635" type="curve"/>
      <point x="405" y="719" type="line"/>
      <point x="378" y="739"/>
      <point x="338" y="748"/>
      <point x="296" y="748" type="curve" smooth="yes"/>
      <point x="177" y="748"/>
      <point x="112" y="678"/>
      <point x="112" y="570" type="curve" smooth="yes"/>
    </contour>
    <contour>
      <point x="23" y="442" type="line"/>
      <point x="167" y="442" type="line"/>
      <point x="167" y="532" type="line"/>
      <point x="23" y="532" type="line"/>
    </contour>
  </outline>
</glyph>
<glyph name="florin" format="2">
  <advance width="456"/>
  <unicode hex="0192"/>
  <outline>
    <contour>
      <point x="22" y="-200" type="curve" smooth="yes"/>
      <point x="132" y="-200"/>
      <point x="203" y="-130"/>
      <point x="216" y="-22" type="curve" smooth="yes"/>
      <point x="276" y="453" type="line"/>
      <point x="278" y="503" type="line"/>
      <point x="286" y="567" type="line" smooth="yes"/>
      <point x="294" y="626"/>
      <point x="327" y="656"/>
      <point x="381" y="656" type="curve" smooth="yes"/>
      <point x="407" y="656"/>
      <point x="431" y="647"/>
      <point x="449" y="633" type="curve"/>
      <point x="490" y="716" type="line"/>
      <point x="464" y="738"/>
      <point x="420" y="748"/>
      <point x="378" y="748" type="curve" smooth="yes"/>
      <point x="265" y="748"/>
      <point x="192" y="678"/>
      <point x="180" y="570" type="curve" smooth="yes"/>
      <point x="106" y="-19" type="line" smooth="yes"/>
      <point x="99" y="-78"/>
      <point x="66" y="-108"/>
      <point x="17" y="-108" type="curve" smooth="yes"/>
      <point x="-12" y="-108"/>
      <point x="-35" y="-100"/>
      <point x="-53" y="-85" type="curve"/>
      <point x="-93" y="-168" type="line"/>
      <point x="-67" y="-190"/>
      <point x="-24" y="-200"/>
    </contour>
    <contour>
      <point x="73" y="427" type="line"/>
      <point x="420" y="427" type="line"/>
      <point x="430" y="517" type="line"/>
      <point x="84" y="517" type="line"/>
    </contour>
  </outline>
</glyph>
<glyph name="Ohorn" format="2">
  <advance width="841"/>
  <unicode hex="01A0"/>
  <anchor x="421" y="0" name="bottom"/>
  <anchor x="421" y="700" name="top"/>
  <outline>
    <contour>
      <point x="421" y="-9" type="curve" smooth="yes"/>
      <point x="636" y="-9"/>
      <point x="795" y="143"/>
      <point x="795" y="350" type="curve" smooth="yes"/>
      <point x="795" y="483"/>
      <point x="726" y="597"/>
      <point x="626" y="653" type="curve"/>
      <point x="481" y="636" type="line"/>
      <point x="521" y="630"/>
      <point x="568" y="624"/>
      <point x="609" y="624" type="curve" smooth="yes"/>
      <point x="720" y="624"/>
      <point x="783" y="675"/>
      <point x="783" y="762" type="curve" smooth="yes"/>
      <point x="783" y="797"/>
      <point x="772" y="829"/>
      <point x="754" y="854" type="curve"/>
      <point x="686" y="828" type="line"/>
      <point x="697" y="811"/>
      <point x="706" y="790"/>
      <point x="706" y="766" type="curve" smooth="yes"/>
      <point x="706" y="719"/>
      <point x="673" y="695"/>
      <point x="614" y="695" type="curve" smooth="yes"/>
      <point x="559" y="695"/>
      <point x="504" y="709"/>
      <point x="425" y="709" type="curve" smooth="yes"/>
      <point x="206" y="709"/>
      <point x="46" y="557"/>
      <point x="46" y="350" type="curve" smooth="yes"/>
      <point x="46" y="144"/>
      <point x="205" y="-9"/>
    </contour>
    <contour>
      <point x="421" y="93" type="curve" smooth="yes"/>
      <point x="272" y="93"/>
      <point x="161" y="202"/>
      <point x="161" y="350" type="curve" smooth="yes"/>
      <point x="161" y="498"/>
      <point x="272" y="607"/>
      <point x="421" y="607" type="curve" smooth="yes"/>
      <point x="570" y="607"/>
      <point x="680" y="497"/>
      <point x="680" y="350" type="curve" smooth="yes"/>
      <point x="680" y="203"/>
      <point x="570" y="93"/>
    </contour>
  </outline>
</glyph>
<glyph name="gstroke" format="2">
  <advance width="701"/>
  <unicode hex="01E5"/>
  <outline>
    <contour>
      <point x="323" y="-200" type="curve" smooth="yes"/>
      <point x="507" y="-200"/>
      <point x="605" y="-114"/>
      <point x="605" y="77" type="curve" smooth="yes"/>
      <point x="605" y="532" type="line"/>
      <point x="500" y="532" type="line"/>
      <point x="500" y="395" type="line"/>
      <point x="505" y="281" type="line"/>
      <point x="495" y="168" type="line"/>
      <point x="495" y="65" type="line" smooth="yes"/>
      <point x="495" y="-48"/>
      <point x="440" y="-104"/>
      <point x="319" y="-104" type="curve" smooth="yes"/>
      <point x="243" y="-104"/>
      <point x="166" y="-78"/>
      <point x="118" y="-38" type="curve"/>
      <point x="65" y="-123" type="line"/>
      <point x="125" y="-174"/>
      <point x="225" y="-200"/>
    </contour>
    <contour>
      <point x="281" y="-56" type="line"/>
      <point x="669" y="-56" type="line"/>
      <point x="669" y="19" type="line"/>
      <point x="281" y="18" type="line"/>
    </contour>
    <contour>
      <point x="312" y="48" type="curve" smooth="yes"/>
      <point x="445" y="48"/>
      <point x="558" y="124"/>
      <point x="558" y="294" type="curve" smooth="yes"/>
      <point x="558" y="463"/>
      <point x="445" y="538"/>
      <point x="312" y="538" type="curve" smooth="yes"/>
      <point x="157" y="538"/>
      <point x="40" y="440"/>
      <point x="40" y="294" type="curve" smooth="yes"/>
      <point x="40" y="147"/>
      <point x="157" y="48"/>
    </contour>
    <contour>
      <point x="324" y="140" type="curve" smooth="yes"/>
      <point x="223" y="140"/>
      <point x="151" y="202"/>
      <point x="151" y="294" type="curve" smooth="yes"/>
      <point x="151" y="385"/>
      <point x="223" y="447"/>
      <point x="324" y="447" type="curve" smooth="yes"/>
      <point x="425" y="447"/>
      <point x="497" y="385"/>
      <point x="497" y="294" type="curve" smooth="yes"/>
      <point x="497" y="202"/>
      <point x="425" y="140"/>
    </contour>
  </outline>
</glyph>
<glyph name="Oogonek" format="2">
  <advance width="841"/>
  <unicode hex="01EA"/>
  <anchor x="421" y="700" name="top"/>
  <outline>
    <contour>
      <point x="432" y="-226" type="curve" smooth="yes"/>
      <point x="466" y="-226"/>
      <point x="500" y="-217"/>
      <point x="525" y="-203" type="curve"/>
      <point x="505" y="-147" type="line"/>
      <point x="489" y="-157"/>
      <point x="465" y="-163"/>
      <point x="444" y="-163" type="curve" smooth="yes"/>
      <point x="409" y="-163"/>
      <point x="384" y="-145"/>
      <point x="384" y="-113" type="curve" smooth="yes"/>
      <point x="384" y="-64"/>
      <point x="438" y="-19"/>
      <point x="528" y="6" type="curve" smooth="yes"/>
      <point x="677" y="45"/>
      <point x="795" y="171"/>
      <point x="795" y="350" type="curve" smooth="yes"/>
      <point x="795" y="557"/>
      <point x="636" y="709"/>
      <point x="421" y="709" type="curve" smooth="yes"/>
      <point x="206" y="709"/>
      <point x="46" y="557"/>
      <point x="46" y="350" type="curve" smooth="yes"/>
      <point x="46" y="143"/>
      <point x="206" y="-9"/>
      <point x="421" y="-9" type="curve" smooth="yes"/>
      <point x="432" y="-9"/>
      <point x="443" y="-8"/>
      <point x="458" y="-7" type="curve"/>
      <point x="451" y="35" type="line"/>
      <point x="344" y="-6"/>
      <point x="307" y="-66"/>
      <point x="307" y="-122" type="curve" smooth="yes"/>
      <point x="307" y="-183"/>
      <point x="353" y="-226"/>
    </contour>
    <contour>
      <point x="421" y="93" type="curve" smooth="yes"/>
      <point x="271" y="93"/>
      <point x="161" y="202"/>
      <point x="161" y="350" type="curve" smooth="yes"/>
      <point x="161" y="498"/>
      <point x="271" y="607"/>
      <point x="421" y="607" type="curve" smooth="yes"/>
      <point x="570" y="607"/>
      <point x="680" y="498"/>
      <point x="680" y="350" type="curve" smooth="yes"/>
      <point x="680" y="202"/>
      <point x="570" y="93"/>
    </contour>
  </outline>
</glyph>
<glyph name="oogonek" format="2">
  <advance width="640"/>
  <unicode hex="01EB"/>
  <anchor x="319" y="0" name="bottom"/>
  <anchor x="319" y="266" name="center"/>
  <anchor x="319" y="532" name="top"/>
  <anchor x="451" y="532" name="topright"/>
  <outline>
    <contour>
      <point x="349" y="-226" type="curve" smooth="yes"/>
      <point x="383" y="-226"/>
      <point x="417" y="-217"/>
      <point x="442" y="-203" type="curve"/>
      <point x="422" y="-147" type="line"/>
      <point x="406" y="-157"/>
      <point x="382" y="-163"/>
      <point x="361" y="-163" type="curve" smooth="yes"/>
      <point x="326" y="-163"/>
      <point x="301" y="-145"/>
      <point x="301" y="-112" type="curve" smooth="yes"/>
      <point x="301" y="-74"/>
      <point x="328" y="-31"/>
      <point x="436" y="15" type="curve" smooth="yes"/>
      <point x="536" y="58"/>
      <point x="600" y="149"/>
      <point x="600" y="266" type="curve" smooth="yes"/>
      <point x="600" y="425"/>
      <point x="482" y="538"/>
      <point x="320" y="538" type="curve" smooth="yes"/>
      <point x="159" y="538"/>
      <point x="40" y="425"/>
      <point x="40" y="266" type="curve" smooth="yes"/>
      <point x="40" y="107"/>
      <point x="159" y="-6"/>
      <point x="320" y="-6" type="curve" smooth="yes"/>
      <point x="336" y="-6"/>
      <point x="352" y="-5"/>
      <point x="373" y="-2" type="curve"/>
      <point x="364" y="35" type="line"/>
      <point x="261" y="-6"/>
      <point x="224" y="-66"/>
      <point x="224" y="-124" type="curve" smooth="yes"/>
      <point x="224" y="-183"/>
      <point x="270" y="-226"/>
    </contour>
    <contour>
      <point x="320" y="90" type="curve" smooth="yes"/>
      <point x="224" y="90"/>
      <point x="151" y="159"/>
      <point x="151" y="266" type="curve" smooth="yes"/>
      <point x="151" y="373"/>
      <point x="224" y="442"/>
      <point x="320" y="442" type="curve" smooth="yes"/>
      <point x="417" y="442"/>
      <point x="489" y="373"/>
      <point x="489" y="266" type="curve" smooth="yes"/>
      <point x="489" y="159"/>
      <point x="417" y="90"/>
    </contour>
  </outline>
</glyph>
<glyph name="jdotless" format="2">
  <advance width="289"/>
  <unicode hex="0237"/>
  <anchor x="147" y="532" name="top"/>
  <outline>
    <contour>
      <point x="24" y="-200" type="curve" smooth="yes"/>
      <point x="139" y="-200"/>
      <point x="202" y="-129"/>
      <point x="202" y="-16" type="curve" smooth="yes"/>
      <point x="202" y="532" type="line"/>
      <point x="92" y="532" type="line"/>
      <point x="92" y="-19" type="line" smooth="yes"/>
      <point x="92" y="-78"/>
      <point x="65" y="-108"/>
      <point x="17" y="-108" type="curve" smooth="yes"/>
      <point x="-13" y="-108"/>
      <point x="-40" y="-100"/>
      <point x="-59" y="-85" type="curve"/>
      <point x="-93" y="-169" type="line"/>
      <point x="-65" y="-191"/>
      <point x="-21" y="-200"/>
    </contour>
  </outline>
</glyph>
<glyph name="schwa" format="2">
  <advance width="617"/>
  <unicode hex="0259"/>
  <anchor x="308" y="0" name="bottom"/>
  <anchor x="93" y="532" name="ogonek"/>
  <anchor x="308" y="532" name="top"/>
  <outline>
    <contour>
      <point x="287" y="538" type="curve" smooth="yes"/>
      <point x="197" y="538"/>
      <point x="123" y="508"/>
      <point x="75" y="452" type="curve"/>
      <point x="135" y="381" type="line"/>
      <point x="173" y="422"/>
      <point x="223" y="442"/>
      <point x="284" y="442" type="curve" smooth="yes"/>
      <point x="395" y="442"/>
      <point x="469" y="373"/>
      <point x="469" y="272" type="curve" smooth="yes"/>
      <point x="469" y="254" type="line" smooth="yes"/>
      <point x="469" y="155"/>
      <point x="402" y="87"/>
      <point x="306" y="87" type="curve" smooth="yes"/>
      <point x="210" y="87"/>
      <point x="143" y="155"/>
      <point x="144" y="251" type="curve"/>
      <point x="100" y="225" type="line"/>
      <point x="490" y="225" type="line"/>
      <point x="490" y="304" type="line"/>
      <point x="42" y="304" type="line"/>
      <point x="41" y="293"/>
      <point x="40" y="279"/>
      <point x="40" y="270" type="curve" smooth="yes"/>
      <point x="40" y="105"/>
      <point x="150" y="-6"/>
      <point x="306" y="-6" type="curve" smooth="yes"/>
      <point x="462" y="-6"/>
      <point x="577" y="108"/>
      <point x="577" y="266" type="curve" smooth="yes"/>
      <point x="577" y="425"/>
      <point x="462" y="538"/>
    </contour>
  </outline>
</glyph>
<glyph name="primemod" format="2">
  <advance width="215"/>
  <unicode hex="02B9"/>
  <outline>
    <contour>
      <point x="67" y="426" type="line"/>
      <point x="147" y="426" type="line"/>
      <point x="154.99" y="700" type="line"/>
      <point x="60" y="700" type="line"/>
    </contour>
  </outline>
</glyph>
<glyph name="ringhalfleft" format="2">
  <advance width="600"/>
  <unicode hex="02BF"/>
  <outline>
    <contour>
      <point x="299" y="594" type="curve"/>
      <point x="299" y="642" type="line"/>
      <point x="262" y="642"/>
      <point x="235" y="669"/>
      <point x="235" y="705" type="curve" smooth="yes"/>
      <point x="235" y="742"/>
      <point x="263" y="769"/>
      <point x="299" y="769" type="curve"/>
      <point x="299" y="818" type="line"/>
      <point x="232" y="818"/>
      <point x="183" y="767"/>
      <point x="183" y="705" type="curve" smooth="yes"/>
      <point x="183" y="643"/>
      <point x="232" y="594"/>
    </contour>
  </outline>
</glyph>
<glyph name="verticallinemod" format="2">
  <advance width="175"/>
  <unicode hex="02C8"/>
  <outline>
    <contour>
      <point x="50" y="508" type="line"/>
      <point x="125" y="508" type="line"/>
      <point x="125" y="700" type="line"/>
      <point x="50" y="700" type="line"/>
    </contour>
  </outline>
</glyph>
<glyph name="firsttonechinese" format="2">
  <advance width="600"/>
  <unicode hex="02C9"/>
  <outline>
    <contour>
      <point x="132" y="640" type="line"/>
      <point x="468" y="640" type="line"/>
      <point x="468" y="708" type="line"/>
      <point x="132" y="708" type="line"/>
    </contour>
  </outline>
</glyph>
<glyph name="secondtonechinese" format="2">
  <advance width="600"/>
  <unicode hex="02CA"/>
  <anchor x="300" y="532" name="_top"/>
  <anchor x="300" y="709" name="top"/>
  <outline>
    <contour>
      <point x="219" y="607" type="line"/>
      <point x="321" y="607" type="line"/>
      <point x="492" y="741" type="line"/>
      <point x="355" y="741" type="line"/>
    </contour>
  </outline>
</glyph>
<glyph name="fourthtonechinese" format="2">
  <advance width="600"/>
  <unicode hex="02CB"/>
  <anchor x="300" y="532" name="_top"/>
  <anchor x="300" y="709" name="top"/>
  <outline>
    <contour>
      <point x="279" y="607" type="line"/>
      <point x="381" y="607" type="line"/>
      <point x="245" y="741" type="line"/>
      <point x="108" y="741" type="line"/>
    </contour>
  </outline>
</glyph>
<glyph name="gravecomb" format="2">
  <unicode hex="0300"/>
  <anchor x="300" y="532" name="_top"/>
  <anchor x="300" y="709" name="top"/>
  <outline>
    <contour>
      <point x="279" y="607" type="line"/>
      <point x="381" y="607" type="line"/>
      <point x="245" y="741" type="line"/>
      <point x="108" y="741" type="line"/>
    </contour>
  </outline>
</glyph>
<glyph name="circumflexcomb" format="2">
  <unicode hex="0302"/>
  <anchor x="300" y="532" name="_top"/>
  <anchor x="300" y="699" name="top"/>
  <outline>
    <contour>
      <point x="114" y="607" type="line"/>
      <point x="211" y="607" type="line"/>
      <point x="347" y="720" type="line"/>
      <point x="253" y="720" type="line"/>
      <point x="389" y="607" type="line"/>
      <point x="486" y="607" type="line"/>
      <point x="351" y="741" type="line"/>
      <point x="249" y="741" type="line"/>
    </contour>
  </outline>
</glyph>
<glyph name="tildecomb" format="2">
  <unicode hex="0303"/>
  <anchor x="300" y="532" name="_top"/>
  <anchor x="300" y="699" name="top"/>
  <outline>
    <contour>
      <point x="371" y="608" type="curve" smooth="yes"/>
      <point x="432" y="608"/>
      <point x="472" y="659"/>
      <point x="474" y="734" type="curve"/>
      <point x="413" y="734" type="line"/>
      <point x="411" y="697"/>
      <point x="392" y="675"/>
      <point x="363" y="675" type="curve" smooth="yes"/>
      <point x="328" y="675"/>
      <point x="294" y="742"/>
      <point x="229" y="742" type="curve" smooth="yes"/>
      <point x="168" y="742"/>
      <point x="128" y="692"/>
      <point x="126" y="614" type="curve"/>
      <point x="187" y="614" type="line"/>
      <point x="189" y="653"/>
      <point x="208" y="675"/>
      <point x="237" y="675" type="curve" smooth="yes"/>
      <point x="273" y="675"/>
      <point x="306" y="608"/>
    </contour>
  </outline>
</glyph>
<glyph name="macroncomb" format="2">
  <unicode hex="0304"/>
  <anchor x="300" y="532" name="_top"/>
  <anchor x="300" y="679" name="top"/>
  <outline>
    <contour>
      <point x="132" y="640" type="line"/>
      <point x="468" y="640" type="line"/>
      <point x="468" y="708" type="line"/>
      <point x="132" y="708" type="line"/>
    </contour>
  </outline>
</glyph>
<glyph name="brevecomb" format="2">
  <unicode hex="0306"/>
  <anchor x="300" y="532" name="_top"/>
  <anchor x="300" y="699" name="top"/>
  <outline>
    <contour>
      <point x="300" y="601" type="curve" smooth="yes"/>
      <point x="393" y="601"/>
      <point x="464" y="654"/>
      <point x="468" y="741" type="curve"/>
      <point x="394" y="741" type="line"/>
      <point x="392" y="693"/>
      <point x="351" y="663"/>
      <point x="300" y="663" type="curve" smooth="yes"/>
      <point x="249" y="663"/>
      <point x="208" y="693"/>
      <point x="206" y="741" type="curve"/>
      <point x="132" y="741" type="line"/>
      <point x="136" y="654"/>
      <point x="207" y="601"/>
    </contour>
  </outline>
</glyph>
<glyph name="dotaccentcomb" format="2">
  <unicode hex="0307"/>
  <anchor x="300" y="687" name="_center"/>
  <anchor x="300" y="532" name="_top"/>
  <anchor x="300" y="713" name="top"/>
  <outline>
    <contour>
      <point x="300" y="622" type="curve" smooth="yes"/>
      <point x="337" y="622"/>
      <point x="365" y="650"/>
      <point x="365" y="687" type="curve" smooth="yes"/>
      <point x="365" y="724"/>
      <point x="337" y="752"/>
      <point x="300" y="752" type="curve" smooth="yes"/>
      <point x="263" y="752"/>
      <point x="235" y="724"/>
      <point x="235" y="687" type="curve" smooth="yes"/>
      <point x="235" y="650"/>
      <point x="263" y="622"/>
    </contour>
  </outline>
</glyph>
<glyph name="dieresiscomb" format="2">
  <unicode hex="0308"/>
  <anchor x="300" y="532" name="_top"/>
  <anchor x="300" y="683" name="top"/>
  <outline>
    <contour>
      <point x="395" y="621" type="curve" smooth="yes"/>
      <point x="426" y="621"/>
      <point x="451" y="644"/>
      <point x="451" y="677" type="curve" smooth="yes"/>
      <point x="451" y="710"/>
      <point x="426" y="733"/>
      <point x="395" y="733" type="curve" smooth="yes"/>
      <point x="364" y="733"/>
      <point x="339" y="710"/>
      <point x="339" y="677" type="curve" smooth="yes"/>
      <point x="339" y="644"/>
      <point x="364" y="621"/>
    </contour>
    <contour>
      <point x="205" y="621" type="curve" smooth="yes"/>
      <point x="236" y="621"/>
      <point x="261" y="644"/>
      <point x="261" y="677" type="curve" smooth="yes"/>
      <point x="261" y="710"/>
      <point x="236" y="733"/>
      <point x="205" y="733" type="curve" smooth="yes"/>
      <point x="174" y="733"/>
      <point x="149" y="710"/>
      <point x="149" y="677" type="curve" smooth="yes"/>
      <point x="149" y="644"/>
      <point x="174" y="621"/>
    </contour>
  </outline>
</glyph>
<glyph name="hookabovecomb" format="2">
  <unicode hex="0309"/>
  <anchor x="300" y="532" name="_top"/>
  <anchor x="300" y="779" name="top"/>
  <outline>
    <contour>
      <point x="322" y="597" type="line"/>
      <point x="379" y="624"/>
      <point x="406" y="663"/>
      <point x="406" y="715" type="curve" smooth="yes"/>
      <point x="406" y="774"/>
      <point x="362" y="812"/>
      <point x="300" y="812" type="curve" smooth="yes"/>
      <point x="266" y="812"/>
      <point x="231" y="802"/>
      <point x="205" y="782" type="curve"/>
      <point x="229" y="732" type="line"/>
      <point x="249" y="745"/>
      <point x="268" y="751"/>
      <point x="289" y="751" type="curve" smooth="yes"/>
      <point x="319" y="751"/>
      <point x="340" y="732"/>
      <point x="340" y="706" type="curve" smooth="yes"/>
      <point x="340" y="679"/>
      <point x="324" y="658"/>
      <point x="285" y="640" type="curve"/>
    </contour>
  </outline>
</glyph>
<glyph name="ringcomb" format="2">
  <unicode hex="030A"/>
  <anchor x="300" y="532" name="_top"/>
  <anchor x="300" y="773" name="top"/>
  <outline>
    <contour>
      <point x="299" y="594" type="curve" smooth="yes"/>
      <point x="364" y="594"/>
      <point x="413" y="643"/>
      <point x="413" y="705" type="curve" smooth="yes"/>
      <point x="413" y="767"/>
      <point x="364" y="818"/>
      <point x="299" y="818" type="curve" smooth="yes"/>
      <point x="235" y="818"/>
      <point x="186" y="767"/>
      <point x="186" y="705" type="curve" smooth="yes"/>
      <point x="186" y="643"/>
      <point x="235" y="594"/>
    </contour>
    <contour>
      <point x="299" y="640" type="curve" smooth="yes"/>
      <point x="262" y="640"/>
      <point x="235" y="668"/>
      <point x="235" y="705" type="curve" smooth="yes"/>
      <point x="235" y="743"/>
      <point x="263" y="771"/>
      <point x="299" y="771" type="curve" smooth="yes"/>
      <point x="336" y="771"/>
      <point x="364" y="742"/>
      <point x="364" y="705" type="curve" smooth="yes"/>
      <point x="364" y="668"/>
      <point x="337" y="640"/>
    </contour>
  </outline>
</glyph>
<glyph name="hungarumlautcomb" format="2">
  <unicode hex="030B"/>
  <anchor x="300" y="532" name="_top"/>
  <anchor x="300" y="709" name="top"/>
  <outline>
    <contour>
      <point x="345" y="607" type="line"/>
      <point x="436" y="607" type="line"/>
      <point x="544" y="741" type="line"/>
      <point x="430" y="741" type="line"/>
    </contour>
    <contour>
      <point x="164" y="607" type="line"/>
      <point x="255" y="607" type="line"/>
      <point x="364" y="741" type="line"/>
      <point x="250" y="741" type="line"/>
    </contour>
  </outline>
</glyph>
<glyph name="breveinvertedcomb" format="2">
  <unicode hex="0311"/>
  <anchor x="300" y="532" name="_top"/>
  <anchor x="300" y="699" name="top"/>
  <outline>
    <contour>
      <point x="132" y="607" type="curve"/>
      <point x="206" y="607" type="line"/>
      <point x="208" y="655"/>
      <point x="249" y="685"/>
      <point x="300" y="685" type="curve" smooth="yes"/>
      <point x="351" y="685"/>
      <point x="392" y="655"/>
      <point x="394" y="607" type="curve"/>
      <point x="468" y="607" type="line"/>
      <point x="464" y="694"/>
      <point x="393" y="747"/>
      <point x="300" y="747" type="curve" smooth="yes"/>
      <point x="207" y="747"/>
      <point x="136" y="694"/>
    </contour>
  </outline>
</glyph>
<glyph name="commaturnedabovecomb" format="2">
  <unicode hex="0312"/>
  <anchor x="300" y="532" name="_top"/>
  <anchor x="300" y="743" name="top"/>
  <outline>
    <contour>
      <point x="300" y="601" type="curve" smooth="yes"/>
      <point x="340" y="601"/>
      <point x="361" y="621"/>
      <point x="361" y="650" type="curve" smooth="yes"/>
      <point x="361" y="680"/>
      <point x="339" y="699"/>
      <point x="300" y="699" type="curve"/>
      <point x="314" y="658" type="line"/>
      <point x="356" y="797" type="line"/>
      <point x="294" y="797" type="line"/>
      <point x="255" y="704" type="line"/>
      <point x="243" y="680"/>
      <point x="239" y="665"/>
      <point x="239" y="650" type="curve" smooth="yes"/>
      <point x="239" y="622"/>
      <point x="260" y="601"/>
    </contour>
  </outline>
</glyph>
<glyph name="horncomb" format="2">
  <unicode hex="031B"/>
  <anchor x="300" y="532" name="_topright"/>
  <outline>
    <contour>
      <point x="281" y="450" type="line"/>
      <point x="300" y="450" type="line" smooth="yes"/>
      <point x="388" y="450"/>
      <point x="441" y="506"/>
      <point x="441" y="593" type="curve" smooth="yes"/>
      <point x="441" y="629"/>
      <point x="430" y="661"/>
      <point x="412" y="685" type="curve"/>
      <point x="343" y="659" type="line"/>
      <point x="355" y="643"/>
      <point x="363" y="621"/>
      <point x="363" y="597" type="curve" smooth="yes"/>
      <point x="363" y="560"/>
      <point x="342" y="532"/>
      <point x="300" y="532" type="curve" smooth="yes"/>
      <point x="281" y="532" type="line"/>
    </contour>
  </outline>
</glyph>
<glyph name="dotbelowcomb" format="2">
  <unicode hex="0323"/>
  <anchor x="300" y="0" name="_bottom"/>
  <anchor x="300" y="-151" name="bottom"/>
  <outline>
    <contour>
      <point x="300" y="-200" type="curve" smooth="yes"/>
      <point x="331" y="-200"/>
      <point x="356" y="-178"/>
      <point x="356" y="-145" type="curve" smooth="yes"/>
      <point x="356" y="-112"/>
      <point x="331" y="-88"/>
      <point x="300" y="-88" type="curve" smooth="yes"/>
      <point x="269" y="-88"/>
      <point x="244" y="-112"/>
      <point x="244" y="-145" type="curve" smooth="yes"/>
      <point x="244" y="-178"/>
      <point x="269" y="-200"/>
    </contour>
  </outline>
</glyph>
<glyph name="dieresisbelowcomb" format="2">
  <unicode hex="0324"/>
  <anchor x="300" y="0" name="_bottom"/>
  <anchor x="300" y="-154" name="bottom"/>
  <outline>
    <contour>
      <point x="389" y="-196" type="curve" smooth="yes"/>
      <point x="418" y="-196"/>
      <point x="443" y="-174"/>
      <point x="443" y="-142" type="curve" smooth="yes"/>
      <point x="443" y="-111"/>
      <point x="418" y="-88"/>
      <point x="389" y="-88" type="curve" smooth="yes"/>
      <point x="359" y="-88"/>
      <point x="335" y="-111"/>
      <point x="335" y="-142" type="curve" smooth="yes"/>
      <point x="335" y="-174"/>
      <point x="359" y="-196"/>
    </contour>
    <contour>
      <point x="211" y="-196" type="curve" smooth="yes"/>
      <point x="241" y="-196"/>
      <point x="266" y="-174"/>
      <point x="266" y="-142" type="curve" smooth="yes"/>
      <point x="266" y="-111"/>
      <point x="241" y="-88"/>
      <point x="211" y="-88" type="curve" smooth="yes"/>
      <point x="182" y="-88"/>
      <point x="158" y="-111"/>
      <point x="158" y="-142" type="curve" smooth="yes"/>
      <point x="158" y="-174"/>
      <point x="182" y="-196"/>
    </contour>
  </outline>
</glyph>
<glyph name="commaaccentcomb" format="2">
  <unicode hex="0326"/>
  <anchor x="300" y="0" name="_bottom"/>
  <anchor x="300" y="-151" name="bottom"/>
  <outline>
    <contour>
      <point x="254" y="-264" type="line"/>
      <point x="310" y="-264" type="line"/>
      <point x="341" y="-193" type="line" smooth="yes"/>
      <point x="353" y="-170"/>
      <point x="356" y="-153"/>
      <point x="356" y="-138" type="curve" smooth="yes"/>
      <point x="356" y="-110"/>
      <point x="334" y="-88"/>
      <point x="300" y="-88" type="curve" smooth="yes"/>
      <point x="266" y="-88"/>
      <point x="244" y="-109"/>
      <point x="244" y="-138" type="curve" smooth="yes"/>
      <point x="244" y="-167"/>
      <point x="265" y="-187"/>
      <point x="300" y="-187" type="curve"/>
      <point x="289" y="-146" type="line"/>
    </contour>
  </outline>
</glyph>
<glyph name="brevebelowcomb" format="2">
  <unicode hex="032E"/>
  <anchor x="300" y="0" name="_bottom"/>
  <anchor x="300" y="-162" name="bottom"/>
  <outline>
    <contour>
      <point x="300" y="-211" type="curve" smooth="yes"/>
      <point x="393" y="-211"/>
      <point x="464" y="-159"/>
      <point x="468" y="-79" type="curve"/>
      <point x="397" y="-79" type="line"/>
      <point x="397" y="-124"/>
      <point x="355" y="-152"/>
      <point x="300" y="-152" type="curve" smooth="yes"/>
      <point x="245" y="-152"/>
      <point x="203" y="-124"/>
      <point x="203" y="-79" type="curve"/>
      <point x="132" y="-79" type="line"/>
      <point x="136" y="-159"/>
      <point x="207" y="-211"/>
    </contour>
  </outline>
</glyph>
<glyph name="macronbelowcomb" format="2">
  <unicode hex="0331"/>
  <anchor x="300" y="0" name="_bottom"/>
  <anchor x="300" y="-146" name="bottom"/>
  <outline>
    <contour>
      <point x="132" y="-176" type="line"/>
      <point x="468" y="-176" type="line"/>
      <point x="468" y="-108" type="line"/>
      <point x="132" y="-108" type="line"/>
    </contour>
  </outline>
</glyph>
<glyph name="slashshortcomb" format="2">
  <unicode hex="0337"/>
  <anchor x="217" y="388" name="_center"/>
  <outline>
    <contour>
      <point x="102" y="249" type="line"/>
      <point x="381" y="461" type="line"/>
      <point x="332" y="527" type="line"/>
      <point x="53" y="314" type="line"/>
    </contour>
  </outline>
</glyph>
<glyph name="Delta" format="2">
  <advance width="740"/>
  <unicode hex="0394"/>
  <outline>
    <contour>
      <point x="426" y="700" type="line"/>
      <point x="313" y="700" type="line"/>
      <point x="-3" y="0" type="line"/>
      <point x="743" y="0" type="line"/>
    </contour>
    <contour>
      <point x="133" y="43" type="line"/>
      <point x="392" y="637" type="line"/>
      <point x="346" y="637" type="line"/>
      <point x="604" y="43" type="line"/>
      <point x="639" y="99" type="line"/>
      <point x="98" y="99" type="line"/>
    </contour>
  </outline>
</glyph>
<glyph name="Omega" format="2">
  <advance width="896"/>
  <unicode hex="03A9"/>
  <outline>
    <contour>
      <point x="9" y="0" type="line"/>
      <point x="360" y="0" type="line"/>
      <point x="360" y="92" type="line"/>
      <point x="249" y="147"/>
      <point x="190" y="245"/>
      <point x="190" y="355" type="curve" smooth="yes"/>
      <point x="190" y="505"/>
      <point x="296" y="607"/>
      <point x="448" y="607" type="curve" smooth="yes"/>
      <point x="600" y="607"/>
      <point x="706" y="505"/>
      <point x="706" y="355" type="curve" smooth="yes"/>
      <point x="706" y="246"/>
      <point x="647" y="148"/>
      <point x="536" y="92" type="curve"/>
      <point x="536" y="0" type="line"/>
      <point x="887" y="0" type="line"/>
      <point x="887" y="99" type="line"/>
      <point x="706" y="99" type="line"/>
      <point x="778" y="162"/>
      <point x="821" y="252"/>
      <point x="821" y="361" type="curve" smooth="yes"/>
      <point x="821" y="567"/>
      <point x="660" y="709"/>
      <point x="448" y="709" type="curve" smooth="yes"/>
      <point x="236" y="709"/>
      <point x="75" y="567"/>
      <point x="75" y="361" type="curve" smooth="yes"/>
      <point x="75" y="252"/>
      <point x="118" y="162"/>
      <point x="190" y="99" type="curve"/>
      <point x="9" y="99" type="line"/>
    </contour>
  </outline>
</glyph>
<glyph name="mu" format="2">
  <advance width="684"/>
  <unicode hex="03BC"/>
  <outline>
    <contour>
      <point x="87" y="-194" type="line"/>
      <point x="197" y="-194" type="line"/>
      <point x="197" y="120" type="line"/>
      <point x="174" y="80" type="line"/>
      <point x="203" y="24"/>
      <point x="259" y="-6"/>
      <point x="333" y="-6" type="curve" smooth="yes"/>
      <point x="400" y="-6"/>
      <point x="477" y="23"/>
      <point x="510" y="108" type="curve"/>
      <point x="492" y="142" type="line"/>
      <point x="492" y="0" type="line"/>
      <point x="597" y="0" type="line"/>
      <point x="597" y="532" type="line"/>
      <point x="487" y="532" type="line"/>
      <point x="487" y="260" type="line" smooth="yes"/>
      <point x="487" y="149"/>
      <point x="425" y="92"/>
      <point x="331" y="92" type="curve" smooth="yes"/>
      <point x="246" y="92"/>
      <point x="197" y="141"/>
      <point x="197" y="240" type="curve" smooth="yes"/>
      <point x="197" y="532" type="line"/>
      <point x="87" y="532" type="line"/>
    </contour>
  </outline>
</glyph>
<glyph name="pi" format="2">
  <advance width="725"/>
  <unicode hex="03C0"/>
  <outline>
    <contour>
      <point x="32" y="259" type="curve"/>
      <point x="116" y="284" type="line"/>
      <point x="100" y="308"/>
      <point x="88" y="337"/>
      <point x="88" y="361" type="curve" smooth="yes"/>
      <point x="88" y="419"/>
      <point x="124" y="442"/>
      <point x="186" y="442" type="curve" smooth="yes"/>
      <point x="715" y="442" type="line"/>
      <point x="715" y="532" type="line"/>
      <point x="173" y="532" type="line" smooth="yes"/>
      <point x="64" y="532"/>
      <point x="-10" y="467"/>
      <point x="-10" y="379" type="curve" smooth="yes"/>
      <point x="-10" y="340"/>
      <point x="4" y="291"/>
    </contour>
    <contour>
      <point x="171" y="0" type="line"/>
      <point x="281" y="0" type="line"/>
      <point x="334" y="464" type="line"/>
      <point x="224" y="464" type="line"/>
    </contour>
    <contour>
      <point x="464" y="0" type="line"/>
      <point x="574" y="0" type="line"/>
      <point x="574" y="464" type="line"/>
      <point x="464" y="464" type="line"/>
    </contour>
  </outline>
</glyph>
<glyph name="Dje-cy" format="2">
  <advance width="837"/>
  <unicode hex="0402"/>
  <outline>
    <contour>
      <point x="251" y="0" type="line"/>
      <point x="364" y="0" type="line"/>
      <point x="364" y="630" type="line"/>
      <point x="337" y="601" type="line"/>
      <point x="624" y="601" type="line"/>
      <point x="624" y="700" type="line"/>
      <point x="15" y="700" type="line"/>
      <point x="15" y="601" type="line"/>
      <point x="278" y="601" type="line"/>
      <point x="251" y="630" type="line"/>
    </contour>
    <contour>
      <point x="482" y="3" type="line"/>
      <point x="642" y="-30"/>
      <point x="802" y="27"/>
      <point x="802" y="210" type="curve" smooth="yes"/>
      <point x="802" y="414"/>
      <point x="603" y="479"/>
      <point x="346" y="388" type="curve"/>
      <point x="347" y="285" type="line"/>
      <point x="522" y="366"/>
      <point x="688" y="340"/>
      <point x="688" y="208" type="curve" smooth="yes"/>
      <point x="688" y="102"/>
      <point x="582" y="76"/>
      <point x="495" y="98" type="curve"/>
    </contour>
  </outline>
</glyph>
<glyph name="I-cy" format="2">
  <advance width="321"/>
  <unicode hex="0406"/>
  <anchor x="161" y="0" name="bottom"/>
  <anchor x="217" y="0" name="ogonek"/>
  <anchor x="161" y="700" name="top"/>
  <anchor x="23" y="699" name="topleft"/>
  <outline>
    <contour>
      <point x="104" y="0" type="line"/>
      <point x="217" y="0" type="line"/>
      <point x="217" y="700" type="line"/>
      <point x="104" y="700" type="line"/>
    </contour>
  </outline>
</glyph>
<glyph name="Yi-cy" format="2">
  <advance width="314"/>
  <unicode hex="0407"/>
  <anchor x="157" y="0" name="bottom"/>
  <anchor x="214" y="0" name="ogonek"/>
  <anchor x="157" y="833" name="top"/>
  <anchor x="19" y="699" name="topleft"/>
  <outline>
    <contour>
      <point x="100" y="0" type="line"/>
      <point x="214" y="0" type="line"/>
      <point x="214" y="700" type="line"/>
      <point x="100" y="700" type="line"/>
    </contour>
    <contour>
      <point x="252" y="771" type="curve" smooth="yes"/>
      <point x="283" y="771"/>
      <point x="308" y="794"/>
      <point x="308" y="827" type="curve" smooth="yes"/>
      <point x="308" y="860"/>
      <point x="283" y="883"/>
      <point x="252" y="883" type="curve" smooth="yes"/>
      <point x="221" y="883"/>
      <point x="196" y="860"/>
      <point x="196" y="827" type="curve" smooth="yes"/>
      <point x="196" y="794"/>
      <point x="221" y="771"/>
    </contour>
    <contour>
      <point x="62" y="771" type="curve" smooth="yes"/>
      <point x="93" y="771"/>
      <point x="118" y="794"/>
      <point x="118" y="827" type="curve" smooth="yes"/>
      <point x="118" y="860"/>
      <point x="93" y="883"/>
      <point x="62" y="883" type="curve" smooth="yes"/>
      <point x="31" y="883"/>
      <point x="6" y="860"/>
      <point x="6" y="827" type="curve" smooth="yes"/>
      <point x="6" y="794"/>
      <point x="31" y="771"/>
    </contour>
  </outline>
</glyph>
<glyph name="Dzhe-cy" format="2">
  <advance width="807"/>
  <unicode hex="040F"/>
  <outline>
    <contour>
      <point x="703" y="700" type="line"/>
      <point x="589" y="700" type="line"/>
      <point x="589" y="99" type="line"/>
      <point x="217" y="99" type="line"/>
      <point x="217" y="700" type="line"/>
      <point x="104" y="700" type="line"/>
      <point x="104" y="0" type="line"/>
      <point x="350" y="0" type="line"/>
      <point x="350" y="-156" type="line"/>
      <point x="456" y="-156" type="line"/>
      <point x="456" y="0" type="line"/>
      <point x="703" y="0" type="line"/>
    </contour>
  </outline>
</glyph>
<glyph name="Be-cy" format="2">
  <advance width="733"/>
  <unicode hex="0411"/>
  <outline>
    <contour>
      <point x="104" y="0" type="line"/>
      <point x="411" y="0" type="line" smooth="yes"/>
      <point x="587" y="0"/>
      <point x="686" y="77"/>
      <point x="686" y="215" type="curve" smooth="yes"/>
      <point x="686" y="347"/>
      <point x="597" y="418"/>
      <point x="430" y="418" type="curve" smooth="yes"/>
      <point x="217" y="418" type="line"/>
      <point x="217" y="603" type="line"/>
      <point x="640" y="603" type="line"/>
      <point x="640" y="700" type="line"/>
      <point x="104" y="700" type="line"/>
    </contour>
    <contour>
      <point x="217" y="90" type="line"/>
      <point x="217" y="328" type="line"/>
      <point x="406" y="328" type="line" smooth="yes"/>
      <point x="516" y="328"/>
      <point x="571" y="290"/>
      <point x="571" y="211" type="curve" smooth="yes"/>
      <point x="571" y="132"/>
      <point x="514" y="90"/>
      <point x="406" y="90" type="curve" smooth="yes"/>
    </contour>
  </outline>
</glyph>
<glyph name="Ve-cy" format="2">
  <advance width="746"/>
  <unicode hex="0412"/>
  <anchor x="381" y="0" name="bottom"/>
  <anchor x="381" y="700" name="top"/>
  <outline>
    <contour>
      <point x="104" y="0" type="line"/>
      <point x="430" y="0" type="line" smooth="yes"/>
      <point x="603" y="0"/>
      <point x="692" y="72"/>
      <point x="692" y="193" type="curve" smooth="yes"/>
      <point x="692" y="312"/>
      <point x="605" y="375"/>
      <point x="449" y="375" type="curve"/>
      <point x="431" y="342" type="line"/>
      <point x="567" y="342"/>
      <point x="658" y="405"/>
      <point x="658" y="520" type="curve" smooth="yes"/>
      <point x="658" y="637"/>
      <point x="565" y="700"/>
      <point x="411" y="700" type="curve" smooth="yes"/>
      <point x="104" y="700" type="line"/>
    </contour>
    <contour>
      <point x="217" y="90" type="line"/>
      <point x="217" y="311" type="line"/>
      <point x="427" y="311" type="line" smooth="yes"/>
      <point x="525" y="311"/>
      <point x="577" y="277"/>
      <point x="577" y="202" type="curve" smooth="yes"/>
      <point x="577" y="126"/>
      <point x="525" y="90"/>
      <point x="427" y="90" type="curve" smooth="yes"/>
    </contour>
    <contour>
      <point x="217" y="397" type="line"/>
      <point x="217" y="610" type="line"/>
      <point x="402" y="610" type="line" smooth="yes"/>
      <point x="492" y="610"/>
      <point x="542" y="573"/>
      <point x="542" y="503" type="curve" smooth="yes"/>
      <point x="542" y="433"/>
      <point x="492" y="397"/>
      <point x="402" y="397" type="curve" smooth="yes"/>
    </contour>
  </outline>
</glyph>
<glyph name="El-cy" format="2">
  <advance width="793"/>
  <unicode hex="041B"/>
  <anchor x="576" y="0" name="#exit"/>
  <anchor x="576" y="0" name="bottomleft"/>
  <outline>
    <contour>
      <point x="81" y="-9" type="curve" smooth="yes"/>
      <point x="225" y="-9"/>
      <point x="267" y="135"/>
      <point x="276" y="412" type="curve" smooth="yes"/>
      <point x="284" y="631" type="line"/>
      <point x="259" y="601" type="line"/>
      <point x="603" y="601" type="line"/>
      <point x="576" y="630" type="line"/>
      <point x="576" y="0" type="line"/>
      <point x="689" y="0" type="line"/>
      <point x="689" y="700" type="line"/>
      <point x="185" y="700" type="line"/>
      <point x="175" y="408" type="line" smooth="yes"/>
      <point x="167" y="201"/>
      <point x="139" y="98"/>
      <point x="53" y="98" type="curve" smooth="yes"/>
      <point x="42" y="98"/>
      <point x="33" y="99"/>
      <point x="22" y="102" type="curve"/>
      <point x="14" y="0" type="line"/>
      <point x="39" y="-6"/>
      <point x="60" y="-9"/>
    </contour>
  </outline>
</glyph>
<glyph name="Em-cy" format="2">
  <advance width="963"/>
  <unicode hex="041C"/>
  <anchor x="481" y="0" name="bottom"/>
  <anchor x="757" y="0" name="bottomleft"/>
  <anchor x="481" y="700" name="top"/>
  <outline>
    <contour>
      <point x="104" y="0" type="line"/>
      <point x="214" y="0" type="line"/>
      <point x="214" y="526" type="line"/>
      <point x="186" y="526" type="line"/>
      <point x="455" y="82" type="line"/>
      <point x="507" y="82" type="line"/>
      <point x="773" y="526" type="line"/>
      <point x="748" y="526" type="line"/>
      <point x="749" y="0" type="line"/>
      <point x="859" y="0" type="line"/>
      <point x="858" y="700" type="line"/>
      <point x="764" y="700" type="line"/>
      <point x="458" y="181" type="line"/>
      <point x="508" y="181" type="line"/>
      <point x="198" y="700" type="line"/>
      <point x="104" y="700" type="line"/>
    </contour>
  </outline>
</glyph>
<glyph name="Te-cy" format="2">
  <advance width="612"/>
  <unicode hex="0422"/>
  <anchor x="308" y="0" name="bottom"/>
  <anchor x="249" y="0" name="bottomleft"/>
  <anchor x="308" y="336" name="center"/>
  <anchor x="308" y="700" name="top"/>
  <outline>
    <contour>
      <point x="249" y="0" type="line"/>
      <point x="362" y="0" type="line"/>
      <point x="362" y="630" type="line"/>
      <point x="335" y="601" type="line"/>
      <point x="598" y="601" type="line"/>
      <point x="598" y="700" type="line"/>
      <point x="14" y="700" type="line"/>
      <point x="14" y="601" type="line"/>
      <point x="277" y="601" type="line"/>
      <point x="249" y="630" type="line"/>
    </contour>
  </outline>
</glyph>
<glyph name="U-cy" format="2">
  <advance width="697"/>
  <unicode hex="0423"/>
  <anchor x="344" y="700" name="top"/>
  <outline>
    <contour>
      <point x="107" y="99" type="curve"/>
      <point x="78" y="7" type="line"/>
      <point x="195" y="-43"/>
      <point x="310" y="-8"/>
      <point x="382" y="129" type="curve" smooth="yes"/>
      <point x="690" y="700" type="line"/>
      <point x="577" y="700" type="line"/>
      <point x="326" y="220" type="line"/>
      <point x="315" y="207" type="line"/>
      <point x="281" y="153" type="line" smooth="yes"/>
      <point x="236" y="81"/>
      <point x="179" y="74"/>
    </contour>
    <contour>
      <point x="323" y="118" type="line"/>
      <point x="386" y="209" type="line"/>
      <point x="136" y="700" type="line"/>
      <point x="14" y="700" type="line"/>
    </contour>
  </outline>
</glyph>
<glyph name="Ha-cy" format="2">
  <advance width="678"/>
  <unicode hex="0425"/>
  <anchor x="529" y="0" name="bottomleft"/>
  <outline>
    <contour>
      <point x="31" y="700" type="line"/>
      <point x="268" y="359" type="line"/>
      <point x="14" y="0" type="line"/>
      <point x="146" y="0" type="line"/>
      <point x="337" y="266" type="line"/>
      <point x="529" y="0" type="line"/>
      <point x="664" y="0" type="line"/>
      <point x="409" y="364" type="line"/>
      <point x="645" y="700" type="line"/>
      <point x="511" y="700" type="line"/>
      <point x="337" y="456" type="line"/>
      <point x="163" y="700" type="line"/>
    </contour>
  </outline>
</glyph>
<glyph name="Che-cy" format="2">
  <advance width="739"/>
  <unicode hex="0427"/>
  <anchor x="522" y="0" name="bottomleft"/>
  <anchor x="719" y="0" name="bottomright"/>
  <anchor x="343" y="700" name="top"/>
  <outline>
    <contour>
      <point x="540" y="278" type="curve"/>
      <point x="538" y="379" type="line"/>
      <point x="474" y="347"/>
      <point x="404" y="331"/>
      <point x="338" y="331" type="curve" smooth="yes"/>
      <point x="227" y="331"/>
      <point x="164" y="386"/>
      <point x="164" y="488" type="curve" smooth="yes"/>
      <point x="164" y="700" type="line"/>
      <point x="51" y="700" type="line"/>
      <point x="51" y="475" type="line" smooth="yes"/>
      <point x="51" y="318"/>
      <point x="150" y="230"/>
      <point x="325" y="230" type="curve" smooth="yes"/>
      <point x="391" y="230"/>
      <point x="464" y="246"/>
    </contour>
    <contour>
      <point x="522" y="0" type="line"/>
      <point x="635" y="0" type="line"/>
      <point x="635" y="700" type="line"/>
      <point x="522" y="700" type="line"/>
    </contour>
  </outline>
</glyph>
<glyph name="Sha-cy" format="2">
  <advance width="1096"/>
  <unicode hex="0428"/>
  <anchor x="877" y="0" name="bottomleft"/>
  <outline>
    <contour>
      <point x="518" y="99" type="line"/>
      <point x="190" y="99" type="line"/>
      <point x="217" y="70" type="line"/>
      <point x="217" y="700" type="line"/>
      <point x="104" y="700" type="line"/>
      <point x="104" y="0" type="line"/>
      <point x="992" y="0" type="line"/>
      <point x="992" y="700" type="line"/>
      <point x="879" y="700" type="line"/>
      <point x="879" y="70" type="line"/>
      <point x="907" y="99" type="line"/>
      <point x="577" y="99" type="line"/>
      <point x="605" y="70" type="line"/>
      <point x="605" y="700" type="line"/>
      <point x="492" y="700" type="line"/>
      <point x="492" y="70" type="line"/>
    </contour>
  </outline>
</glyph>
<glyph name="Softsign-cy" format="2">
  <advance width="715"/>
  <unicode hex="042C"/>
  <anchor x="104" y="0" name="#entry"/>
  <anchor x="176" y="585" name="center"/>
  <outline>
    <contour>
      <point x="418" y="460" type="curve" smooth="yes"/>
      <point x="217" y="460" type="line"/>
      <point x="217" y="700" type="line"/>
      <point x="104" y="700" type="line"/>
      <point x="104" y="0" type="line"/>
      <point x="399" y="0" type="line" smooth="yes"/>
      <point x="575" y="0"/>
      <point x="678" y="81"/>
      <point x="678" y="237" type="curve" smooth="yes"/>
      <point x="678" y="385"/>
      <point x="585" y="460"/>
    </contour>
    <contour>
      <point x="394" y="90" type="curve" smooth="yes"/>
      <point x="217" y="90" type="line"/>
      <point x="217" y="370" type="line"/>
      <point x="394" y="370" type="line" smooth="yes"/>
      <point x="503" y="370"/>
      <point x="563" y="328"/>
      <point x="563" y="235" type="curve" smooth="yes"/>
      <point x="563" y="140"/>
      <point x="502" y="90"/>
    </contour>
  </outline>
</glyph>
<glyph name="Ereversed-cy" format="2">
  <advance width="708"/>
  <unicode hex="042D"/>
  <anchor x="321" y="700" name="top"/>
  <outline>
    <contour>
      <point x="213" y="309" type="line"/>
      <point x="581" y="309" type="line"/>
      <point x="581" y="402" type="line"/>
      <point x="213" y="402" type="line"/>
    </contour>
    <contour>
      <point x="303" y="709" type="curve" smooth="yes"/>
      <point x="188" y="709"/>
      <point x="90" y="670"/>
      <point x="26" y="595" type="curve"/>
      <point x="98" y="523" type="line"/>
      <point x="152" y="580"/>
      <point x="219" y="606"/>
      <point x="297" y="606" type="curve" smooth="yes"/>
      <point x="439" y="606"/>
      <point x="542" y="499"/>
      <point x="542" y="350" type="curve" smooth="yes"/>
      <point x="542" y="201"/>
      <point x="439" y="94"/>
      <point x="297" y="94" type="curve" smooth="yes"/>
      <point x="219" y="94"/>
      <point x="152" y="120"/>
      <point x="98" y="177" type="curve"/>
      <point x="26" y="105" type="line"/>
      <point x="90" y="30"/>
      <point x="188" y="-9"/>
      <point x="303" y="-9" type="curve" smooth="yes"/>
      <point x="507" y="-9"/>
      <point x="658" y="142"/>
      <point x="658" y="350" type="curve" smooth="yes"/>
      <point x="658" y="558"/>
      <point x="507" y="709"/>
    </contour>
  </outline>
</glyph>
<glyph name="Iu-cy" format="2">
  <advance width="1102"/>
  <unicode hex="042E"/>
  <outline>
    <contour>
      <point x="104" y="0" type="line"/>
      <point x="217" y="0" type="line"/>
      <point x="217" y="303" type="line"/>
      <point x="398" y="303" type="line"/>
      <point x="398" y="407" type="line"/>
      <point x="217" y="407" type="line"/>
      <point x="217" y="700" type="line"/>
      <point x="104" y="700" type="line"/>
    </contour>
    <contour>
      <point x="693" y="-9" type="curve" smooth="yes"/>
      <point x="899" y="-9"/>
      <point x="1052" y="143"/>
      <point x="1052" y="350" type="curve" smooth="yes"/>
      <point x="1052" y="557"/>
      <point x="899" y="709"/>
      <point x="693" y="709" type="curve" smooth="yes"/>
      <point x="487" y="709"/>
      <point x="334" y="557"/>
      <point x="334" y="350" type="curve" smooth="yes"/>
      <point x="334" y="143"/>
      <point x="487" y="-9"/>
    </contour>
    <contour>
      <point x="693" y="94" type="curve" smooth="yes"/>
      <point x="556" y="94"/>
      <point x="450" y="199"/>
      <point x="450" y="350" type="curve" smooth="yes"/>
      <point x="450" y="501"/>
      <point x="556" y="606"/>
      <point x="693" y="606" type="curve" smooth="yes"/>
      <point x="831" y="606"/>
      <point x="937" y="501"/>
      <point x="937" y="350" type="curve" smooth="yes"/>
      <point x="937" y="199"/>
      <point x="831" y="94"/>
    </contour>
  </outline>
</glyph>
<glyph name="Ia-cy" format="2">
  <advance width="731"/>
  <unicode hex="042F"/>
  <outline>
    <contour>
      <point x="514" y="0" type="line"/>
      <point x="627" y="0" type="line"/>
      <point x="627" y="700" type="line"/>
      <point x="341" y="700" type="line" smooth="yes"/>
      <point x="166" y="700"/>
      <point x="53" y="606"/>
      <point x="53" y="445" type="curve" smooth="yes"/>
      <point x="53" y="291"/>
      <point x="157" y="199"/>
      <point x="331" y="199" type="curve" smooth="yes"/>
      <point x="543" y="199" type="line"/>
      <point x="514" y="226" type="line"/>
    </contour>
    <contour>
      <point x="54" y="0" type="line"/>
      <point x="175" y="0" type="line"/>
      <point x="343" y="249" type="line"/>
      <point x="227" y="249" type="line"/>
    </contour>
    <contour>
      <point x="514" y="263" type="line"/>
      <point x="543" y="295" type="line"/>
      <point x="339" y="295" type="line" smooth="yes"/>
      <point x="227" y="295"/>
      <point x="169" y="350"/>
      <point x="169" y="447" type="curve" smooth="yes"/>
      <point x="169" y="548"/>
      <point x="232" y="601"/>
      <point x="345" y="601" type="curve" smooth="yes"/>
      <point x="543" y="601" type="line"/>
      <point x="514" y="633" type="line"/>
    </contour>
  </outline>
</glyph>
<glyph name="ve-cy" format="2">
  <advance width="618"/>
  <unicode hex="0432"/>
  <anchor x="315" y="0" name="bottom"/>
  <anchor x="315" y="533" name="top"/>
  <outline>
    <contour>
      <point x="89" y="0" type="line"/>
      <point x="353" y="0" type="line" smooth="yes"/>
      <point x="495" y="0"/>
      <point x="564" y="55"/>
      <point x="564" y="148" type="curve" smooth="yes"/>
      <point x="564" y="238"/>
      <point x="503" y="287"/>
      <point x="375" y="287" type="curve"/>
      <point x="360" y="258" type="line"/>
      <point x="472" y="258"/>
      <point x="547" y="308"/>
      <point x="547" y="395" type="curve" smooth="yes"/>
      <point x="547" y="483"/>
      <point x="470" y="532"/>
      <point x="343" y="532" type="curve" smooth="yes"/>
      <point x="89" y="532" type="line"/>
    </contour>
    <contour>
      <point x="196" y="84" type="line"/>
      <point x="196" y="229" type="line"/>
      <point x="349" y="229" type="line" smooth="yes"/>
      <point x="422" y="229"/>
      <point x="455" y="205"/>
      <point x="455" y="155" type="curve" smooth="yes"/>
      <point x="455" y="106"/>
      <point x="417" y="84"/>
      <point x="344" y="84" type="curve" smooth="yes"/>
    </contour>
    <contour>
      <point x="196" y="308" type="line"/>
      <point x="196" y="448" type="line"/>
      <point x="333" y="448" type="line" smooth="yes"/>
      <point x="401" y="448"/>
      <point x="437" y="426"/>
      <point x="437" y="379" type="curve" smooth="yes"/>
      <point x="437" y="333"/>
      <point x="401" y="308"/>
      <point x="333" y="308" type="curve" smooth="yes"/>
    </contour>
  </outline>
</glyph>
<glyph name="ge-cy" format="2">
  <advance width="495"/>
  <unicode hex="0433"/>
  <anchor x="89" y="0" name="_bottomleft"/>
  <anchor x="89" y="0" name="bottomleft"/>
  <anchor x="418" y="0" name="bottomright"/>
  <anchor x="291" y="530" name="top"/>
  <outline>
    <contour>
      <point x="89" y="0" type="line"/>
      <point x="199" y="0" type="line"/>
      <point x="199" y="461" type="line"/>
      <point x="173" y="436" type="line"/>
      <point x="489" y="436" type="line"/>
      <point x="489" y="532" type="line"/>
      <point x="89" y="532" type="line"/>
    </contour>
  </outline>
</glyph>
<glyph name="de-cy" format="2">
  <advance width="672"/>
  <unicode hex="0434"/>
  <outline>
    <contour>
      <point x="452" y="52" type="line"/>
      <point x="562" y="52" type="line"/>
      <point x="562" y="532" type="line"/>
      <point x="137" y="532" type="line"/>
      <point x="130" y="351" type="line" smooth="yes"/>
      <point x="123" y="218"/>
      <point x="109" y="92"/>
      <point x="28" y="96" type="curve"/>
      <point x="137" y="78" type="line"/>
      <point x="213" y="94"/>
      <point x="225" y="216"/>
      <point x="230" y="343" type="curve" smooth="yes"/>
      <point x="234" y="436" type="line"/>
      <point x="452" y="436" type="line"/>
    </contour>
    <contour>
      <point x="8" y="-121" type="line"/>
      <point x="111" y="-121" type="line"/>
      <point x="111" y="0" type="line"/>
      <point x="539" y="0" type="line"/>
      <point x="539" y="-121" type="line"/>
      <point x="642" y="-121" type="line"/>
      <point x="642" y="96" type="line"/>
      <point x="8" y="96" type="line"/>
    </contour>
  </outline>
</glyph>
<glyph name="ii-cy" format="2">
  <advance width="698"/>
  <unicode hex="0438"/>
  <anchor x="499" y="0" name="bottomleft"/>
  <anchor x="659" y="0" name="bottomright"/>
  <anchor x="342" y="532" name="top"/>
  <outline>
    <contour>
      <point x="89" y="0" type="line"/>
      <point x="190" y="0" type="line"/>
      <point x="499" y="368" type="line"/>
      <point x="499" y="0" type="line"/>
      <point x="609" y="0" type="line"/>
      <point x="609" y="532" type="line"/>
      <point x="509" y="532" type="line"/>
      <point x="199" y="164" type="line"/>
      <point x="199" y="532" type="line"/>
      <point x="89" y="532" type="line"/>
    </contour>
  </outline>
</glyph>
<glyph name="ka-cy" format="2">
  <advance width="607"/>
  <unicode hex="043A"/>
  <anchor x="472" y="0" name="bottomleft"/>
  <anchor x="577" y="0" name="bottomright"/>
  <anchor x="313" y="532" name="top"/>
  <outline>
    <contour>
      <point x="472" y="0" type="line"/>
      <point x="602" y="0" type="line"/>
      <point x="363" y="313" type="line"/>
      <point x="273" y="257" type="line"/>
    </contour>
    <contour>
      <point x="89" y="0" type="line"/>
      <point x="199" y="0" type="line"/>
      <point x="199" y="532" type="line"/>
      <point x="89" y="532" type="line"/>
    </contour>
    <contour>
      <point x="166" y="219" type="line"/>
      <point x="344" y="219" type="line"/>
      <point x="344" y="312" type="line"/>
      <point x="166" y="312" type="line"/>
    </contour>
    <contour>
      <point x="373" y="253" type="line"/>
      <point x="588" y="532" type="line"/>
      <point x="470" y="532" type="line"/>
      <point x="270" y="266" type="line"/>
    </contour>
  </outline>
</glyph>
<glyph name="el-cy" format="2">
  <advance width="646"/>
  <unicode hex="043B"/>
  <anchor x="447" y="0" name="#exit"/>
  <anchor x="447" y="0" name="bottomleft"/>
  <outline>
    <contour>
      <point x="5" y="1" type="line"/>
      <point x="29" y="-5"/>
      <point x="50" y="-9"/>
      <point x="69" y="-9" type="curve" smooth="yes"/>
      <point x="192" y="-9"/>
      <point x="218" y="137"/>
      <point x="227" y="325" type="curve" smooth="yes"/>
      <point x="234" y="469" type="line"/>
      <point x="210" y="436" type="line"/>
      <point x="473" y="436" type="line"/>
      <point x="447" y="468" type="line"/>
      <point x="447" y="0" type="line"/>
      <point x="557" y="0" type="line"/>
      <point x="557" y="532" type="line"/>
      <point x="138" y="532" type="line"/>
      <point x="129" y="331" type="line" smooth="yes"/>
      <point x="123" y="215"/>
      <point x="120" y="91"/>
      <point x="35" y="91" type="curve" smooth="yes"/>
      <point x="28" y="91"/>
      <point x="20" y="92"/>
      <point x="11" y="94" type="curve"/>
    </contour>
  </outline>
</glyph>
<glyph name="en-cy" format="2">
  <advance width="684"/>
  <unicode hex="043D"/>
  <anchor x="340" y="0" name="bottom"/>
  <anchor x="485" y="0" name="bottomleft"/>
  <anchor x="340" y="427" name="center"/>
  <anchor x="340" y="532" name="top"/>
  <outline>
    <contour>
      <point x="89" y="0" type="line"/>
      <point x="199" y="0" type="line"/>
      <point x="199" y="216" type="line"/>
      <point x="485" y="216" type="line"/>
      <point x="485" y="0" type="line"/>
      <point x="595" y="0" type="line"/>
      <point x="595" y="532" type="line"/>
      <point x="485" y="532" type="line"/>
      <point x="485" y="311" type="line"/>
      <point x="199" y="311" type="line"/>
      <point x="199" y="532" type="line"/>
      <point x="89" y="532" type="line"/>
    </contour>
  </outline>
</glyph>
<glyph name="ef-cy" format="2">
  <advance width="816"/>
  <unicode hex="0444"/>
  <outline>
    <contour>
      <point x="416" y="-9" type="curve" smooth="yes"/>
      <point x="643" y="-9"/>
      <point x="776" y="89"/>
      <point x="776" y="267" type="curve" smooth="yes"/>
      <point x="776" y="443"/>
      <point x="643" y="539"/>
      <point x="417" y="539" type="curve" smooth="yes"/>
      <point x="414" y="539"/>
      <point x="395" y="539"/>
      <point x="392" y="539" type="curve" smooth="yes"/>
      <point x="168" y="538"/>
      <point x="40" y="442"/>
      <point x="40" y="267" type="curve" smooth="yes"/>
      <point x="40" y="91"/>
      <point x="168" y="-7"/>
      <point x="389" y="-9" type="curve" smooth="yes"/>
      <point x="392" y="-9"/>
      <point x="413" y="-9"/>
    </contour>
    <contour>
      <point x="413" y="87" type="curve" smooth="yes"/>
      <point x="410" y="87"/>
      <point x="399" y="87"/>
      <point x="396" y="87" type="curve" smooth="yes"/>
      <point x="229" y="89"/>
      <point x="149" y="151"/>
      <point x="149" y="267" type="curve" smooth="yes"/>
      <point x="149" y="380"/>
      <point x="228" y="441"/>
      <point x="396" y="442" type="curve" smooth="yes"/>
      <point x="399" y="442"/>
      <point x="410" y="442"/>
      <point x="413" y="442" type="curve" smooth="yes"/>
      <point x="585" y="442"/>
      <point x="668" y="383"/>
      <point x="668" y="267" type="curve" smooth="yes"/>
      <point x="668" y="149"/>
      <point x="585" y="87"/>
    </contour>
    <contour>
      <point x="354" y="-194" type="line"/>
      <point x="461" y="-194" type="line"/>
      <point x="461" y="742" type="line"/>
      <point x="354" y="742" type="line"/>
    </contour>
  </outline>
</glyph>
<glyph name="sha-cy" format="2">
  <advance width="948"/>
  <unicode hex="0448"/>
  <anchor x="745" y="0" name="bottomleft"/>
  <outline>
    <contour>
      <point x="444" y="96" type="line"/>
      <point x="173" y="96" type="line"/>
      <point x="199" y="68" type="line"/>
      <point x="199" y="532" type="line"/>
      <point x="89" y="532" type="line"/>
      <point x="89" y="0" type="line"/>
      <point x="859" y="0" type="line"/>
      <point x="859" y="532" type="line"/>
      <point x="749" y="532" type="line"/>
      <point x="749" y="68" type="line"/>
      <point x="775" y="96" type="line"/>
      <point x="503" y="96" type="line"/>
      <point x="530" y="68" type="line"/>
      <point x="530" y="532" type="line"/>
      <point x="420" y="532" type="line"/>
      <point x="420" y="68" type="line"/>
    </contour>
  </outline>
</glyph>
<glyph name="hardsign-cy" format="2">
  <advance width="650"/>
  <unicode hex="044A"/>
  <outline>
    <contour>
      <point x="416" y="356" type="curve" smooth="yes"/>
      <point x="276" y="356" type="line"/>
      <point x="276" y="532" type="line"/>
      <point x="6" y="532" type="line"/>
      <point x="6" y="436" type="line"/>
      <point x="166" y="436" type="line"/>
      <point x="166" y="0" type="line"/>
      <point x="398" y="0" type="line" smooth="yes"/>
      <point x="540" y="0"/>
      <point x="622" y="65"/>
      <point x="622" y="181" type="curve" smooth="yes"/>
      <point x="622" y="290"/>
      <point x="550" y="356"/>
    </contour>
    <contour>
      <point x="393" y="83" type="curve" smooth="yes"/>
      <point x="276" y="83" type="line"/>
      <point x="276" y="275" type="line"/>
      <point x="393" y="275" type="line" smooth="yes"/>
      <point x="471" y="275"/>
      <point x="510" y="246"/>
      <point x="510" y="183" type="curve" smooth="yes"/>
      <point x="510" y="118"/>
      <point x="470" y="83"/>
    </contour>
  </outline>
</glyph>
<glyph name="yeru-cy" format="2">
  <advance width="819"/>
  <unicode hex="044B"/>
  <anchor x="156" y="443" name="center"/>
  <anchor x="421" y="532" name="top"/>
  <outline>
    <contour>
      <point x="620" y="0" type="line"/>
      <point x="730" y="0" type="line"/>
      <point x="730" y="532" type="line"/>
      <point x="620" y="532" type="line"/>
    </contour>
    <contour>
      <point x="337" y="355" type="curve" smooth="yes"/>
      <point x="199" y="356" type="line"/>
      <point x="199" y="532" type="line"/>
      <point x="89" y="532" type="line"/>
      <point x="89" y="0" type="line"/>
      <point x="320" y="-1" type="line" smooth="yes"/>
      <point x="464" y="-2"/>
      <point x="546" y="64"/>
      <point x="546" y="180" type="curve" smooth="yes"/>
      <point x="546" y="290"/>
      <point x="473" y="354"/>
    </contour>
    <contour>
      <point x="311" y="82" type="curve" smooth="yes"/>
      <point x="199" y="83" type="line"/>
      <point x="199" y="276" type="line"/>
      <point x="311" y="275" type="line" smooth="yes"/>
      <point x="392" y="274"/>
      <point x="434" y="246"/>
      <point x="434" y="181" type="curve" smooth="yes"/>
      <point x="434" y="115"/>
      <point x="391" y="81"/>
    </contour>
  </outline>
</glyph>
<glyph name="softsign-cy" format="2">
  <advance width="582"/>
  <unicode hex="044C"/>
  <anchor x="89" y="0" name="#entry"/>
  <anchor x="156" y="443" name="center"/>
  <outline>
    <contour>
      <point x="345" y="355" type="curve" smooth="yes"/>
      <point x="199" y="356" type="line"/>
      <point x="199" y="532" type="line"/>
      <point x="89" y="532" type="line"/>
      <point x="89" y="0" type="line"/>
      <point x="328" y="-1" type="line" smooth="yes"/>
      <point x="472" y="-2"/>
      <point x="554" y="64"/>
      <point x="554" y="180" type="curve" smooth="yes"/>
      <point x="554" y="290"/>
      <point x="481" y="354"/>
    </contour>
    <contour>
      <point x="319" y="82" type="curve" smooth="yes"/>
      <point x="199" y="83" type="line"/>
      <point x="199" y="276" type="line"/>
      <point x="319" y="275" type="line" smooth="yes"/>
      <point x="400" y="274"/>
      <point x="442" y="246"/>
      <point x="442" y="181" type="curve" smooth="yes"/>
      <point x="442" y="115"/>
      <point x="399" y="81"/>
    </contour>
  </outline>
</glyph>
<glyph name="ereversed-cy" format="2">
  <advance width="577"/>
  <unicode hex="044D"/>
  <anchor x="265" y="532" name="top"/>
  <outline>
    <contour>
      <point x="175" y="229" type="line"/>
      <point x="469" y="229" type="line"/>
      <point x="469" y="310" type="line"/>
      <point x="175" y="310" type="line"/>
    </contour>
    <contour>
      <point x="247" y="539" type="curve" smooth="yes"/>
      <point x="153" y="539"/>
      <point x="73" y="508"/>
      <point x="20" y="449" type="curve"/>
      <point x="84" y="386" type="line"/>
      <point x="127" y="429"/>
      <point x="180" y="450"/>
      <point x="243" y="450" type="curve" smooth="yes"/>
      <point x="354" y="450"/>
      <point x="435" y="374"/>
      <point x="435" y="266" type="curve" smooth="yes"/>
      <point x="435" y="159"/>
      <point x="354" y="82"/>
      <point x="243" y="82" type="curve" smooth="yes"/>
      <point x="180" y="82"/>
      <point x="127" y="103"/>
      <point x="84" y="145" type="curve"/>
      <point x="20" y="82" type="line"/>
      <point x="73" y="23"/>
      <point x="153" y="-8"/>
      <point x="247" y="-8" type="curve" smooth="yes"/>
      <point x="414" y="-8"/>
      <point x="537" y="107"/>
      <point x="537" y="266" type="curve" smooth="yes"/>
      <point x="537" y="425"/>
      <point x="414" y="539"/>
    </contour>
  </outline>
</glyph>
<glyph name="iu-cy" format="2">
  <advance width="882"/>
  <unicode hex="044E"/>
  <outline>
    <contour>
      <point x="89" y="0" type="line"/>
      <point x="199" y="0" type="line"/>
      <point x="199" y="219" type="line"/>
      <point x="358" y="219" type="line"/>
      <point x="358" y="320" type="line"/>
      <point x="199" y="320" type="line"/>
      <point x="199" y="532" type="line"/>
      <point x="89" y="532" type="line"/>
    </contour>
    <contour>
      <point x="567" y="-6" type="curve" smooth="yes"/>
      <point x="725" y="-6"/>
      <point x="840" y="107"/>
      <point x="840" y="266" type="curve" smooth="yes"/>
      <point x="840" y="426"/>
      <point x="725" y="538"/>
      <point x="567" y="538" type="curve" smooth="yes"/>
      <point x="409" y="538"/>
      <point x="294" y="426"/>
      <point x="294" y="266" type="curve" smooth="yes"/>
      <point x="294" y="107"/>
      <point x="409" y="-6"/>
    </contour>
    <contour>
      <point x="567" y="89" type="curve" smooth="yes"/>
      <point x="474" y="89"/>
      <point x="403" y="158"/>
      <point x="403" y="266" type="curve" smooth="yes"/>
      <point x="403" y="374"/>
      <point x="474" y="442"/>
      <point x="567" y="442" type="curve" smooth="yes"/>
      <point x="660" y="442"/>
      <point x="731" y="374"/>
      <point x="731" y="266" type="curve" smooth="yes"/>
      <point x="731" y="158"/>
      <point x="660" y="89"/>
    </contour>
  </outline>
</glyph>
<glyph name="ia-cy" format="2">
  <advance width="615"/>
  <unicode hex="044F"/>
  <outline>
    <contour>
      <point x="427" y="0" type="line"/>
      <point x="526" y="0" type="line"/>
      <point x="526" y="532" type="line"/>
      <point x="288" y="532" type="line" smooth="yes"/>
      <point x="142" y="532"/>
      <point x="49" y="467"/>
      <point x="49" y="343" type="curve" smooth="yes"/>
      <point x="49" y="227"/>
      <point x="135" y="164"/>
      <point x="279" y="164" type="curve" smooth="yes"/>
      <point x="444" y="164" type="line"/>
      <point x="427" y="184" type="line"/>
    </contour>
    <contour>
      <point x="43" y="0" type="line"/>
      <point x="161" y="0" type="line"/>
      <point x="300" y="203" type="line"/>
      <point x="187" y="203" type="line"/>
    </contour>
    <contour>
      <point x="427" y="219" type="line"/>
      <point x="444" y="243" type="line"/>
      <point x="287" y="243" type="line" smooth="yes"/>
      <point x="204" y="243"/>
      <point x="161" y="273"/>
      <point x="161" y="339" type="curve" smooth="yes"/>
      <point x="161" y="408"/>
      <point x="208" y="437"/>
      <point x="291" y="437" type="curve" smooth="yes"/>
      <point x="444" y="437" type="line"/>
      <point x="427" y="467" type="line"/>
    </contour>
  </outline>
</glyph>
<glyph name="e-cy" format="2">
  <advance width="580"/>
  <unicode hex="0454"/>
  <anchor x="313" y="0" name="bottom"/>
  <outline>
    <contour>
      <point x="403" y="303" type="line"/>
      <point x="109" y="303" type="line"/>
      <point x="109" y="222" type="line"/>
      <point x="403" y="222" type="line"/>
    </contour>
    <contour>
      <point x="331" y="-7" type="curve" smooth="yes"/>
      <point x="425" y="-7"/>
      <point x="505" y="24"/>
      <point x="558" y="83" type="curve"/>
      <point x="494" y="146" type="line"/>
      <point x="451" y="103"/>
      <point x="398" y="82"/>
      <point x="335" y="82" type="curve" smooth="yes"/>
      <point x="224" y="82"/>
      <point x="143" y="158"/>
      <point x="143" y="266" type="curve" smooth="yes"/>
      <point x="143" y="373"/>
      <point x="224" y="450"/>
      <point x="335" y="450" type="curve" smooth="yes"/>
      <point x="398" y="450"/>
      <point x="451" y="429"/>
      <point x="494" y="387" type="curve"/>
      <point x="558" y="450" type="line"/>
      <point x="505" y="509"/>
      <point x="425" y="540"/>
      <point x="331" y="540" type="curve" smooth="yes"/>
      <point x="164" y="540"/>
      <point x="41" y="425"/>
      <point x="41" y="266" type="curve" smooth="yes"/>
      <point x="41" y="107"/>
      <point x="164" y="-7"/>
    </contour>
  </outline>
</glyph>
<glyph name="tshe-cy" format="2">
  <advance width="676"/>
  <unicode hex="045B"/>
  <anchor x="349" y="0" name="bottom"/>
  <anchor x="196" y="634" name="center"/>
  <anchor x="147" y="742" name="top"/>
  <anchor x="269" y="532" name="topright"/>
  <outline>
    <contour>
      <point x="-38" y="602" type="line"/>
      <point x="431" y="602" type="line"/>
      <point x="431" y="666" type="line"/>
      <point x="-38" y="666" type="line"/>
    </contour>
    <contour>
      <point x="380" y="538" type="curve" smooth="yes"/>
      <point x="287" y="538"/>
      <point x="212" y="501"/>
      <point x="176" y="434" type="curve"/>
      <point x="199" y="390" type="line"/>
      <point x="199" y="742" type="line"/>
      <point x="89" y="742" type="line"/>
      <point x="89" y="0" type="line"/>
      <point x="199" y="0" type="line"/>
      <point x="199" y="272" type="line" smooth="yes"/>
      <point x="199" y="383"/>
      <point x="262" y="440"/>
      <point x="357" y="440" type="curve" smooth="yes"/>
      <point x="443" y="440"/>
      <point x="493" y="391"/>
      <point x="493" y="292" type="curve" smooth="yes"/>
      <point x="493" y="0" type="line"/>
      <point x="603" y="0" type="line"/>
      <point x="603" y="305" type="line" smooth="yes"/>
      <point x="603" y="464"/>
      <point x="509" y="538"/>
    </contour>
  </outline>
</glyph>
<glyph name="yat-cy" format="2">
  <advance width="622"/>
  <unicode hex="0463"/>
  <outline>
    <contour>
      <point x="-1" y="478" type="line"/>
      <point x="434" y="478" type="line"/>
      <point x="434" y="558" type="line"/>
      <point x="-1" y="558" type="line"/>
    </contour>
    <contour>
      <point x="385" y="355" type="curve" smooth="yes"/>
      <point x="239" y="356" type="line"/>
      <point x="239" y="742" type="line"/>
      <point x="129" y="742" type="line"/>
      <point x="129" y="0" type="line"/>
      <point x="368" y="-1" type="line" smooth="yes"/>
      <point x="512" y="-2"/>
      <point x="594" y="64"/>
      <point x="594" y="180" type="curve" smooth="yes"/>
      <point x="594" y="290"/>
      <point x="521" y="354"/>
    </contour>
    <contour>
      <point x="359" y="82" type="curve" smooth="yes"/>
      <point x="239" y="83" type="line"/>
      <point x="239" y="276" type="line"/>
      <point x="359" y="275" type="line" smooth="yes"/>
      <point x="440" y="274"/>
      <point x="482" y="246"/>
      <point x="482" y="181" type="curve" smooth="yes"/>
      <point x="482" y="115"/>
      <point x="439" y="81"/>
    </contour>
  </outline>
</glyph>
<glyph name="Yusbig-cy" format="2">
  <advance width="909"/>
  <unicode hex="046A"/>
  <outline>
    <contour>
      <point x="16" y="0" type="line"/>
      <point x="134" y="0" type="line"/>
      <point x="185" y="128" type="line" smooth="yes"/>
      <point x="227" y="247"/>
      <point x="289.0" y="292.0"/>
      <point x="369" y="292" type="curve"/>
      <point x="401" y="292" type="line"/>
      <point x="401" y="0" type="line"/>
      <point x="508" y="0" type="line"/>
      <point x="508" y="292" type="line"/>
      <point x="542" y="292" type="line"/>
      <point x="620" y="292"/>
      <point x="682" y="245"/>
      <point x="723" y="128" type="curve" smooth="yes"/>
      <point x="775" y="0" type="line"/>
      <point x="893" y="0" type="line"/>
      <point x="828" y="155" type="line" smooth="yes"/>
      <point x="769" y="311"/>
      <point x="684" y="375"/>
      <point x="574" y="376" type="curve"/>
      <point x="573" y="376" type="line"/>
      <point x="809" y="629" type="line"/>
      <point x="809" y="700" type="line"/>
      <point x="101" y="700" type="line"/>
      <point x="101" y="625" type="line"/>
      <point x="335" y="376" type="line"/>
      <point x="334" y="376" type="line"/>
      <point x="228" y="376"/>
      <point x="143" y="312"/>
      <point x="82" y="155" type="curve" smooth="yes"/>
    </contour>
    <contour>
      <point x="229" y="612" type="line"/>
      <point x="680" y="612" type="line"/>
      <point x="456" y="376" type="line"/>
      <point x="455" y="376" type="line"/>
    </contour>
  </outline>
</glyph>
<glyph name="yusbig-cy" format="2">
  <advance width="717"/>
  <unicode hex="046B"/>
  <outline>
    <contour>
      <point x="13" y="0" type="line"/>
      <point x="121" y="0" type="line"/>
      <point x="155" y="90" type="line" smooth="yes"/>
      <point x="183" y="178"/>
      <point x="224" y="213"/>
      <point x="285" y="213" type="curve" smooth="yes"/>
      <point x="309" y="213" type="line"/>
      <point x="309" y="0" type="line"/>
      <point x="404" y="0" type="line"/>
      <point x="404" y="213" type="line"/>
      <point x="433" y="213" type="line" smooth="yes"/>
      <point x="495" y="213"/>
      <point x="534" y="178"/>
      <point x="562" y="90" type="curve" smooth="yes"/>
      <point x="597" y="0" type="line"/>
      <point x="705" y="0" type="line"/>
      <point x="658" y="114" type="line" smooth="yes"/>
      <point x="611" y="239"/>
      <point x="550" y="289"/>
      <point x="457" y="289" type="curve" smooth="yes"/>
      <point x="261" y="289" type="line" smooth="yes"/>
      <point x="168" y="289"/>
      <point x="108" y="239"/>
      <point x="60" y="114" type="curve" smooth="yes"/>
    </contour>
    <contour>
      <point x="356" y="288" type="line"/>
      <point x="192" y="457" type="line"/>
      <point x="522" y="457" type="line"/>
    </contour>
    <contour>
      <point x="268" y="267" type="line"/>
      <point x="444" y="267" type="line"/>
      <point x="636" y="463" type="line"/>
      <point x="636" y="532" type="line"/>
      <point x="77" y="532" type="line"/>
      <point x="77" y="463" type="line"/>
    </contour>
  </outline>
</glyph>
<glyph name="izhitsa-cy" format="2">
  <advance width="608"/>
  <unicode hex="0475"/>
  <outline>
    <contour>
      <point x="235" y="0" type="line"/>
      <point x="345" y="0" type="line"/>
      <point x="482" y="347" type="line" smooth="yes"/>
      <point x="514" y="427"/>
      <point x="530" y="439"/>
      <point x="591" y="423" type="curve"/>
      <point x="602" y="532" type="line"/>
      <point x="494" y="559"/>
      <point x="437" y="531"/>
      <point x="397" y="423" type="curve" smooth="yes"/>
      <point x="259" y="58" type="line"/>
      <point x="326" y="58" type="line"/>
      <point x="124" y="532" type="line"/>
      <point x="3" y="532" type="line"/>
    </contour>
  </outline>
</glyph>
<glyph name="semisoftsign-cy" format="2">
  <advance width="613"/>
  <unicode hex="048D"/>
  <outline>
    <contour>
      <point x="121" y="0" type="line"/>
      <point x="360" y="-1" type="line" smooth="yes"/>
      <point x="504" y="-2"/>
      <point x="586" y="59"/>
      <point x="586" y="175" type="curve" smooth="yes"/>
      <point x="586" y="285"/>
      <point x="513" y="339"/>
      <point x="377" y="340" type="curve" smooth="yes"/>
      <point x="231" y="341" type="line"/>
      <point x="231" y="532" type="line"/>
      <point x="121" y="532" type="line"/>
    </contour>
    <contour>
      <point x="351" y="82" type="curve" smooth="yes"/>
      <point x="231" y="83" type="line"/>
      <point x="231" y="261" type="line"/>
      <point x="351" y="260" type="line" smooth="yes"/>
      <point x="432" y="259"/>
      <point x="474" y="241"/>
      <point x="474" y="176" type="curve" smooth="yes"/>
      <point x="474" y="110"/>
      <point x="431" y="81"/>
    </contour>
    <contour>
      <point x="21" y="395" type="line"/>
      <point x="426" y="395" type="line"/>
      <point x="426" y="475" type="line"/>
      <point x="21" y="475" type="line"/>
    </contour>
  </outline>
</glyph>
<glyph name="Ertick-cy" format="2">
  <advance width="733"/>
  <unicode hex="048E"/>
  <outline>
    <contour>
      <point x="104" y="0" type="line"/>
      <point x="219" y="0" type="line"/>
      <point x="219" y="227" type="line"/>
      <point x="190" y="197" type="line"/>
      <point x="385" y="197" type="line" smooth="yes"/>
      <point x="567" y="197"/>
      <point x="679" y="290"/>
      <point x="679" y="449" type="curve" smooth="yes"/>
      <point x="679" y="607"/>
      <point x="567" y="700"/>
      <point x="385" y="700" type="curve" smooth="yes"/>
      <point x="104" y="700" type="line"/>
    </contour>
    <contour>
      <point x="219" y="264" type="line"/>
      <point x="219" y="633" type="line"/>
      <point x="190" y="601" type="line"/>
      <point x="380" y="601" type="line" smooth="yes"/>
      <point x="500" y="601"/>
      <point x="564" y="547"/>
      <point x="564" y="449" type="curve" smooth="yes"/>
      <point x="564" y="350"/>
      <point x="500" y="296"/>
      <point x="380" y="296" type="curve" smooth="yes"/>
      <point x="190" y="296" type="line"/>
    </contour>
    <contour>
      <point x="665" y="129" type="line"/>
      <point x="402" y="473" type="line"/>
      <point x="340" y="423" type="line"/>
      <point x="602" y="79" type="line"/>
    </contour>
  </outline>
</glyph>
<glyph name="ertick-cy" format="2">
  <advance width="701"/>
  <unicode hex="048F"/>
  <outline>
    <contour>
      <point x="391" y="-6" type="curve" smooth="yes"/>
      <point x="536" y="-6"/>
      <point x="649" y="101"/>
      <point x="649" y="265" type="curve" smooth="yes"/>
      <point x="649" y="430"/>
      <point x="536" y="538"/>
      <point x="391" y="538" type="curve" smooth="yes"/>
      <point x="244" y="538"/>
      <point x="160" y="440"/>
      <point x="160" y="265" type="curve" smooth="yes"/>
      <point x="160" y="92"/>
      <point x="248" y="-6"/>
    </contour>
    <contour>
      <point x="89" y="-194" type="line"/>
      <point x="200" y="-194" type="line"/>
      <point x="200" y="131" type="line"/>
      <point x="190" y="265" type="line"/>
      <point x="195" y="398" type="line"/>
      <point x="195" y="532" type="line"/>
      <point x="89" y="532" type="line"/>
    </contour>
    <contour>
      <point x="369" y="89" type="curve" smooth="yes"/>
      <point x="271" y="89"/>
      <point x="198" y="157"/>
      <point x="198" y="265" type="curve" smooth="yes"/>
      <point x="198" y="373"/>
      <point x="271" y="442"/>
      <point x="369" y="442" type="curve" smooth="yes"/>
      <point x="467" y="442"/>
      <point x="540" y="373"/>
      <point x="540" y="265" type="curve" smooth="yes"/>
      <point x="540" y="157"/>
      <point x="467" y="89"/>
    </contour>
    <contour>
      <point x="639" y="-16" type="line"/>
      <point x="435" y="242" type="line"/>
      <point x="372" y="193" type="line"/>
      <point x="578" y="-63" type="line"/>
    </contour>
  </outline>
</glyph>
<glyph name="gheupturn-cy" format="2">
  <advance width="475"/>
  <unicode hex="0491"/>
  <outline>
    <contour>
      <point x="89" y="0" type="line"/>
      <point x="199" y="0" type="line"/>
      <point x="199" y="436" type="line"/>
      <point x="468" y="436" type="line"/>
      <point x="468" y="641" type="line"/>
      <point x="365" y="641" type="line"/>
      <point x="365" y="532" type="line"/>
      <point x="89" y="532" type="line"/>
    </contour>
  </outline>
</glyph>
<glyph name="Ghestroke-cy" format="2">
  <advance width="623"/>
  <unicode hex="0492"/>
  <outline>
    <contour>
      <point x="27" y="280" type="line"/>
      <point x="533" y="280" type="line"/>
      <point x="533" y="365" type="line"/>
      <point x="27" y="365" type="line"/>
    </contour>
    <component base="Ge-cy" xOffset="28"/>
  </outline>
</glyph>
<glyph name="ghestroke-cy" format="2">
  <advance width="523"/>
  <unicode hex="0493"/>
  <outline>
    <contour>
      <point x="42" y="188" type="line"/>
      <point x="438" y="188" type="line"/>
      <point x="438" y="265" type="line"/>
      <point x="42" y="265" type="line"/>
    </contour>
    <component base="ge-cy" xOffset="16"/>
  </outline>
</glyph>
<glyph name="Ghemiddlehook-cy" format="2">
  <advance width="704"/>
  <unicode hex="0494"/>
  <outline>
    <contour>
      <point x="104" y="0" type="line"/>
      <point x="217" y="0" type="line"/>
      <point x="217" y="630" type="line"/>
      <point x="190" y="601" type="line"/>
      <point x="591" y="601" type="line"/>
      <point x="591" y="700" type="line"/>
      <point x="104" y="700" type="line"/>
    </contour>
    <contour>
      <point x="320" y="-139" type="line"/>
      <point x="507" y="-179"/>
      <point x="660" y="-54"/>
      <point x="660" y="139" type="curve" smooth="yes"/>
      <point x="660" y="366"/>
      <point x="437" y="463"/>
      <point x="205" y="349" type="curve"/>
      <point x="208" y="250" type="line"/>
      <point x="370" y="358"/>
      <point x="547" y="298"/>
      <point x="547" y="131" type="curve" smooth="yes"/>
      <point x="547" y="7"/>
      <point x="454" y="-70"/>
      <point x="339" y="-45" type="curve"/>
    </contour>
  </outline>
</glyph>
<glyph name="zedescender-cy" format="2">
  <advance width="549"/>
  <unicode hex="0499"/>
  <outline>
    <contour>
      <point x="251" y="-8" type="curve" smooth="yes"/>
      <point x="169" y="-8"/>
      <point x="88" y="13"/>
      <point x="27" y="50" type="curve"/>
      <point x="59" y="134" type="line"/>
      <point x="110" y="104"/>
      <point x="179" y="86"/>
      <point x="244" y="86" type="curve" smooth="yes"/>
      <point x="333" y="86"/>
      <point x="387" y="116"/>
      <point x="387" y="165" type="curve" smooth="yes"/>
      <point x="387" y="210"/>
      <point x="345" y="235"/>
      <point x="272" y="235" type="curve" smooth="yes"/>
      <point x="172" y="235" type="line"/>
      <point x="172" y="313" type="line"/>
      <point x="264" y="313" type="line" smooth="yes"/>
      <point x="332" y="313"/>
      <point x="372" y="337"/>
      <point x="372" y="378" type="curve" smooth="yes"/>
      <point x="372" y="420"/>
      <point x="323" y="446"/>
      <point x="244" y="446" type="curve" smooth="yes"/>
      <point x="190" y="446"/>
      <point x="135" y="433"/>
      <point x="76" y="406" type="curve"/>
      <point x="47" y="491" type="line"/>
      <point x="113" y="522"/>
      <point x="174" y="538"/>
      <point x="237" y="540" type="curve" smooth="yes"/>
      <point x="380" y="545"/>
      <point x="485" y="483"/>
      <point x="485" y="394" type="curve" smooth="yes"/>
      <point x="485" y="318"/>
      <point x="409" y="262"/>
      <point x="305" y="262" type="curve"/>
      <point x="309" y="287" type="line"/>
      <point x="427" y="287"/>
      <point x="500" y="237"/>
      <point x="500" y="156" type="curve" smooth="yes"/>
      <point x="500" y="60"/>
      <point x="397" y="-8"/>
    </contour>
    <contour>
      <point x="307" y="23" type="line"/>
      <point x="307" y="-111" type="line"/>
      <point x="203" y="-111" type="line"/>
      <point x="203" y="23" type="line"/>
    </contour>
  </outline>
</glyph>
<glyph name="Kaverticalstroke-cy" format="2">
  <advance width="747"/>
  <unicode hex="049C"/>
  <outline>
    <contour>
      <point x="597" y="0" type="line"/>
      <point x="731" y="0" type="line"/>
      <point x="469" y="401" type="line"/>
      <point x="376" y="343" type="line"/>
    </contour>
    <contour>
      <point x="104" y="0" type="line"/>
      <point x="216" y="0" type="line"/>
      <point x="216" y="700" type="line"/>
      <point x="104" y="700" type="line"/>
    </contour>
    <contour>
      <point x="182" y="301" type="line"/>
      <point x="446" y="301" type="line"/>
      <point x="446" y="402" type="line"/>
      <point x="182" y="402" type="line"/>
    </contour>
    <contour>
      <point x="277" y="167" type="line"/>
      <point x="362" y="167" type="line"/>
      <point x="362" y="537" type="line"/>
      <point x="277" y="537" type="line"/>
    </contour>
    <contour>
      <point x="479" y="337" type="line"/>
      <point x="713" y="700" type="line"/>
      <point x="591" y="700" type="line"/>
      <point x="373" y="352" type="line"/>
    </contour>
  </outline>
</glyph>
<glyph name="kaverticalstroke-cy" format="2">
  <advance width="623"/>
  <unicode hex="049D"/>
  <outline>
    <contour>
      <point x="485" y="0" type="line"/>
      <point x="614" y="0" type="line"/>
      <point x="405" y="312" type="line"/>
      <point x="317" y="257" type="line"/>
    </contour>
    <contour>
      <point x="86" y="0" type="line"/>
      <point x="196" y="0" type="line"/>
      <point x="196" y="532" type="line"/>
      <point x="86" y="532" type="line"/>
    </contour>
    <contour>
      <point x="164" y="219" type="line"/>
      <point x="382" y="219" type="line"/>
      <point x="382" y="312" type="line"/>
      <point x="164" y="312" type="line"/>
    </contour>
    <contour>
      <point x="415" y="254" type="line"/>
      <point x="599" y="532" type="line"/>
      <point x="484" y="532" type="line"/>
      <point x="314" y="266" type="line"/>
    </contour>
    <contour>
      <point x="239" y="125" type="line"/>
      <point x="319" y="125" type="line"/>
      <point x="319" y="407" type="line"/>
      <point x="239" y="407" type="line"/>
    </contour>
  </outline>
</glyph>
<glyph name="kastroke-cy" format="2">
  <advance width="606"/>
  <unicode hex="049F"/>
  <anchor x="323" y="0" name="bottom"/>
  <anchor x="323" y="532" name="top"/>
  <outline>
    <contour>
      <point x="-1" y="597" type="line"/>
      <point x="349" y="597" type="line"/>
      <point x="349" y="674" type="line"/>
      <point x="-1" y="676" type="line"/>
    </contour>
    <contour>
      <point x="471" y="0" type="line"/>
      <point x="601" y="0" type="line"/>
      <point x="362" y="313" type="line"/>
      <point x="272" y="257" type="line"/>
    </contour>
    <contour>
      <point x="89" y="0" type="line"/>
      <point x="199" y="0" type="line"/>
      <point x="199" y="742" type="line"/>
      <point x="89" y="742" type="line"/>
    </contour>
    <contour>
      <point x="166" y="219" type="line"/>
      <point x="343" y="219" type="line"/>
      <point x="343" y="312" type="line"/>
      <point x="166" y="312" type="line"/>
    </contour>
    <contour>
      <point x="372" y="253" type="line"/>
      <point x="588" y="532" type="line"/>
      <point x="470" y="532" type="line"/>
      <point x="269" y="266" type="line"/>
    </contour>
  </outline>
</glyph>
<glyph name="Kabashkir-cy" format="2">
  <advance width="835"/>
  <unicode hex="04A0"/>
  <anchor x="500" y="0" name="bottom"/>
  <anchor x="500" y="701" name="top"/>
  <outline>
    <contour>
      <point x="14" y="601" type="line"/>
      <point x="335" y="601" type="line"/>
      <point x="335" y="700" type="line"/>
      <point x="14" y="700" type="line"/>
    </contour>
    <contour>
      <point x="690" y="0" type="line"/>
      <point x="820" y="0" type="line"/>
      <point x="537" y="401" type="line"/>
      <point x="444" y="343" type="line"/>
    </contour>
    <contour>
      <point x="223" y="0" type="line"/>
      <point x="335" y="0" type="line"/>
      <point x="335" y="700" type="line"/>
      <point x="223" y="700" type="line"/>
    </contour>
    <contour>
      <point x="301" y="301" type="line"/>
      <point x="532" y="301" type="line"/>
      <point x="532" y="402" type="line"/>
      <point x="301" y="402" type="line"/>
    </contour>
    <contour>
      <point x="547" y="337" type="line"/>
      <point x="809" y="700" type="line"/>
      <point x="687" y="700" type="line"/>
      <point x="442" y="352" type="line"/>
    </contour>
  </outline>
</glyph>
<glyph name="kabashkir-cy" format="2">
  <advance width="684"/>
  <unicode hex="04A1"/>
  <anchor x="401" y="0" name="bottom"/>
  <anchor x="401" y="532" name="top"/>
  <outline>
    <contour>
      <point x="6" y="438" type="line"/>
      <point x="276" y="438" type="line"/>
      <point x="276" y="532" type="line"/>
      <point x="6" y="532" type="line"/>
    </contour>
    <contour>
      <point x="549" y="0" type="line"/>
      <point x="679" y="0" type="line"/>
      <point x="440" y="313" type="line"/>
      <point x="350" y="257" type="line"/>
    </contour>
    <contour>
      <point x="166" y="0" type="line"/>
      <point x="276" y="0" type="line"/>
      <point x="276" y="532" type="line"/>
      <point x="166" y="532" type="line"/>
    </contour>
    <contour>
      <point x="243" y="219" type="line"/>
      <point x="421" y="219" type="line"/>
      <point x="421" y="312" type="line"/>
      <point x="243" y="312" type="line"/>
    </contour>
    <contour>
      <point x="450" y="253" type="line"/>
      <point x="665" y="532" type="line"/>
      <point x="547" y="532" type="line"/>
      <point x="347" y="266" type="line"/>
    </contour>
  </outline>
</glyph>
<glyph name="Pemiddlehook-cy" format="2">
  <advance width="1191"/>
  <unicode hex="04A6"/>
  <anchor x="602" y="0" name="bottomleft"/>
  <outline>
    <contour>
      <point x="815" y="-139" type="line"/>
      <point x="1002" y="-179"/>
      <point x="1155" y="-54"/>
      <point x="1155" y="139" type="curve" smooth="yes"/>
      <point x="1155" y="365"/>
      <point x="933" y="463"/>
      <point x="700" y="349" type="curve"/>
      <point x="703" y="250" type="line"/>
      <point x="873" y="355"/>
      <point x="1042" y="297"/>
      <point x="1042" y="131" type="curve" smooth="yes"/>
      <point x="1042" y="7"/>
      <point x="950" y="-70"/>
      <point x="834" y="-45" type="curve"/>
    </contour>
    <component base="Pe-cy"/>
  </outline>
</glyph>
<glyph name="pemiddlehook-cy" format="2">
  <advance width="980"/>
  <unicode hex="04A7"/>
  <outline>
    <contour>
      <point x="89" y="0" type="line"/>
      <point x="199" y="0" type="line"/>
      <point x="199" y="463" type="line"/>
      <point x="173" y="436" type="line"/>
      <point x="493" y="436" type="line"/>
      <point x="467" y="463" type="line"/>
      <point x="467" y="0" type="line"/>
      <point x="577" y="0" type="line"/>
      <point x="577" y="532" type="line"/>
      <point x="89" y="532" type="line"/>
    </contour>
    <contour>
      <point x="623" y="-192" type="line"/>
      <point x="822" y="-232"/>
      <point x="962" y="-120"/>
      <point x="962" y="54" type="curve" smooth="yes"/>
      <point x="962" y="261"/>
      <point x="758" y="345"/>
      <point x="551" y="247" type="curve"/>
      <point x="554" y="149" type="line"/>
      <point x="670" y="227"/>
      <point x="849" y="213"/>
      <point x="849" y="49" type="curve" smooth="yes"/>
      <point x="849" y="-56"/>
      <point x="773" y="-120"/>
      <point x="646" y="-97" type="curve"/>
    </contour>
  </outline>
</glyph>
<glyph name="haabkhasian-cy" format="2">
  <advance width="812"/>
  <unicode hex="04A9"/>
  <outline>
    <contour>
      <point x="370" y="-9" type="curve" smooth="yes"/>
      <point x="583" y="-9"/>
      <point x="748" y="134"/>
      <point x="748" y="320" type="curve" smooth="yes"/>
      <point x="748" y="453"/>
      <point x="660" y="541"/>
      <point x="525" y="541" type="curve" smooth="yes"/>
      <point x="385" y="541"/>
      <point x="294" y="447"/>
      <point x="294" y="304" type="curve" smooth="yes"/>
      <point x="294" y="82"/>
      <point x="515" y="-57"/>
      <point x="753" y="6" type="curve"/>
      <point x="747" y="86" type="line"/>
      <point x="555" y="38"/>
      <point x="401" y="131"/>
      <point x="401" y="306" type="curve" smooth="yes"/>
      <point x="401" y="392"/>
      <point x="449" y="448"/>
      <point x="523" y="448" type="curve" smooth="yes"/>
      <point x="594" y="448"/>
      <point x="641" y="395"/>
      <point x="641" y="313" type="curve" smooth="yes"/>
      <point x="641" y="169"/>
      <point x="540" y="73"/>
      <point x="387" y="73" type="curve" smooth="yes"/>
      <point x="246" y="73"/>
      <point x="154" y="155"/>
      <point x="154" y="282" type="curve" smooth="yes"/>
      <point x="154" y="364"/>
      <point x="195" y="440"/>
      <point x="267" y="494" type="curve"/>
      <point x="180" y="541" type="line"/>
      <point x="94" y="485"/>
      <point x="44" y="390"/>
      <point x="44" y="286" type="curve" smooth="yes"/>
      <point x="44" y="109"/>
      <point x="175" y="-9"/>
    </contour>
  </outline>
</glyph>
<glyph name="Ustrait-cy" format="2">
  <advance width="676"/>
  <unicode hex="04AE"/>
  <anchor x="338" y="0" name="bottom"/>
  <anchor x="335" y="251" name="center"/>
  <anchor x="338" y="700" name="top"/>
  <outline>
    <contour>
      <point x="281" y="0" type="line"/>
      <point x="395" y="0" type="line"/>
      <point x="395" y="272" type="line"/>
      <point x="369" y="202" type="line"/>
      <point x="671" y="700" type="line"/>
      <point x="558" y="700" type="line"/>
      <point x="308" y="289" type="line"/>
      <point x="376" y="289" type="line"/>
      <point x="127" y="700" type="line"/>
      <point x="5" y="700" type="line"/>
      <point x="307" y="202" type="line"/>
      <point x="281" y="272" type="line"/>
    </contour>
  </outline>
</glyph>
<glyph name="ustrait-cy" format="2">
  <advance width="582"/>
  <unicode hex="04AF"/>
  <anchor x="290" y="5" name="center"/>
  <outline>
    <contour>
      <point x="257" y="-55" type="line"/>
      <point x="324" y="-55" type="line"/>
      <point x="578" y="532" type="line"/>
      <point x="472" y="532" type="line"/>
      <point x="265" y="57" type="line"/>
      <point x="321" y="57" type="line"/>
      <point x="119" y="532" type="line"/>
      <point x="4" y="532" type="line"/>
    </contour>
    <contour>
      <point x="346" y="54" type="line"/>
      <point x="235" y="54" type="line"/>
      <point x="235" y="-194" type="line"/>
      <point x="346" y="-194" type="line"/>
    </contour>
  </outline>
</glyph>
<glyph name="Ustraitstroke-cy" format="2">
  <advance width="676"/>
  <unicode hex="04B0"/>
  <outline>
    <contour>
      <point x="119.08" y="213" type="line"/>
      <point x="551.4" y="213" type="line"/>
      <point x="551.4" y="290" type="line"/>
      <point x="119.08" y="290" type="line"/>
    </contour>
    <component base="Ustrait-cy"/>
  </outline>
</glyph>
<glyph name="ustraitstroke-cy" format="2">
  <advance width="582"/>
  <unicode hex="04B1"/>
  <outline>
    <contour>
      <point x="69.29" y="-33" type="line"/>
      <point x="510.45" y="-33" type="line"/>
      <point x="510.45" y="44" type="line"/>
      <point x="69.29" y="44" type="line"/>
    </contour>
    <component base="ustrait-cy"/>
  </outline>
</glyph>
<glyph name="Tetse-cy" format="2">
  <advance width="978"/>
  <unicode hex="04B4"/>
  <anchor x="306" y="0" name="bottom"/>
  <anchor x="306" y="336" name="center"/>
  <anchor x="306" y="700" name="top"/>
  <outline>
    <contour>
      <point x="251" y="0" type="line"/>
      <point x="364" y="0" type="line"/>
      <point x="364" y="630" type="line"/>
      <point x="336" y="601" type="line"/>
      <point x="568" y="601" type="line"/>
      <point x="568" y="700" type="line"/>
      <point x="15" y="700" type="line"/>
      <point x="15" y="601" type="line"/>
      <point x="278" y="601" type="line"/>
      <point x="251" y="630" type="line"/>
    </contour>
    <component base="Tse-cy" xOffset="147" yOffset="-1"/>
  </outline>
</glyph>
<glyph name="cheverticalstroke-cy" format="2">
  <advance width="615"/>
  <unicode hex="04B9"/>
  <outline>
    <contour>
      <point x="238" y="75" type="line"/>
      <point x="318" y="75" type="line"/>
      <point x="318" y="363" type="line"/>
      <point x="238" y="363" type="line"/>
    </contour>
    <component base="che-cy" xOffset="-1"/>
  </outline>
</glyph>
<glyph name="Cheabkhasian-cy" format="2">
  <advance width="997"/>
  <unicode hex="04BC"/>
  <anchor x="604" y="0" name="bottom"/>
  <anchor x="598" y="703" name="top"/>
  <outline>
    <contour>
      <point x="603" y="-9" type="curve" smooth="yes"/>
      <point x="703" y="-9"/>
      <point x="808" y="27"/>
      <point x="892" y="103" type="curve"/>
      <point x="809" y="177" type="line"/>
      <point x="747" y="120"/>
      <point x="673" y="93"/>
      <point x="604" y="93" type="curve" smooth="yes"/>
      <point x="469" y="93"/>
      <point x="349" y="191"/>
      <point x="349" y="350" type="curve" smooth="yes"/>
      <point x="349" y="505"/>
      <point x="463" y="608"/>
      <point x="598" y="608" type="curve" smooth="yes"/>
      <point x="733" y="608"/>
      <point x="843" y="506"/>
      <point x="841" y="350" type="curve"/>
      <point x="868" y="392" type="line"/>
      <point x="224" y="392" type="line" smooth="yes"/>
      <point x="138" y="392"/>
      <point x="115" y="477"/>
      <point x="167" y="556" type="curve"/>
      <point x="59" y="576" type="line"/>
      <point x="-11" y="434"/>
      <point x="51" y="295"/>
      <point x="210" y="295" type="curve" smooth="yes"/>
      <point x="952" y="295" type="line"/>
      <point x="955" y="312"/>
      <point x="957" y="336"/>
      <point x="957" y="353" type="curve" smooth="yes"/>
      <point x="957" y="573"/>
      <point x="791" y="709"/>
      <point x="598" y="709" type="curve" smooth="yes"/>
      <point x="405" y="709"/>
      <point x="234" y="572"/>
      <point x="234" y="348" type="curve" smooth="yes"/>
      <point x="234" y="121"/>
      <point x="410" y="-9"/>
    </contour>
  </outline>
</glyph>
<glyph name="Kahook-cy" format="2">
  <advance width="721"/>
  <unicode hex="04C3"/>
  <outline>
    <contour>
      <point x="104" y="0" type="line"/>
      <point x="216" y="0" type="line"/>
      <point x="216" y="700" type="line"/>
      <point x="104" y="700" type="line"/>
    </contour>
    <contour>
      <point x="182" y="301" type="line"/>
      <point x="396" y="301" type="line"/>
      <point x="396" y="402" type="line"/>
      <point x="182" y="402" type="line"/>
    </contour>
    <contour>
      <point x="431" y="341" type="line"/>
      <point x="689" y="700" type="line"/>
      <point x="567" y="700" type="line"/>
      <point x="323" y="352" type="line"/>
    </contour>
    <contour>
      <point x="527" y="-203" type="curve" smooth="yes"/>
      <point x="634" y="-203"/>
      <point x="701" y="-137"/>
      <point x="701" y="-28" type="curve" smooth="yes"/>
      <point x="701" y="86"/>
      <point x="578" y="228"/>
      <point x="416" y="390" type="curve"/>
      <point x="325" y="328" type="line"/>
      <point x="452" y="213"/>
      <point x="577" y="64"/>
      <point x="577" y="-25" type="curve" smooth="yes"/>
      <point x="577" y="-76"/>
      <point x="548" y="-105"/>
      <point x="503" y="-105" type="curve" smooth="yes"/>
      <point x="482" y="-105"/>
      <point x="459" y="-98"/>
      <point x="435" y="-86" type="curve"/>
      <point x="406" y="-173" type="line"/>
      <point x="445" y="-193"/>
      <point x="485" y="-203"/>
    </contour>
  </outline>
</glyph>
<glyph name="kahook-cy" format="2">
  <advance width="607"/>
  <unicode hex="04C4"/>
  <outline>
    <contour>
      <point x="412" y="-201" type="curve" smooth="yes"/>
      <point x="516" y="-201"/>
      <point x="583" y="-136"/>
      <point x="583" y="-34" type="curve" smooth="yes"/>
      <point x="583" y="71"/>
      <point x="502" y="194"/>
      <point x="363" y="315" type="curve"/>
      <point x="276" y="256" type="line"/>
      <point x="394" y="162"/>
      <point x="473" y="50"/>
      <point x="473" y="-29" type="curve" smooth="yes"/>
      <point x="473" y="-79"/>
      <point x="442" y="-109"/>
      <point x="395" y="-109" type="curve" smooth="yes"/>
      <point x="372" y="-109"/>
      <point x="348" y="-102"/>
      <point x="324" y="-90" type="curve"/>
      <point x="294" y="-172" type="line"/>
      <point x="333" y="-191"/>
      <point x="373" y="-201"/>
    </contour>
    <contour>
      <point x="89" y="0" type="line"/>
      <point x="199" y="0" type="line"/>
      <point x="199" y="532" type="line"/>
      <point x="89" y="532" type="line"/>
    </contour>
    <contour>
      <point x="166" y="219" type="line"/>
      <point x="344" y="219" type="line"/>
      <point x="344" y="313" type="line"/>
      <point x="166" y="313" type="line"/>
    </contour>
    <contour>
      <point x="373" y="254" type="line"/>
      <point x="588" y="532" type="line"/>
      <point x="470" y="532" type="line"/>
      <point x="270" y="266" type="line"/>
    </contour>
  </outline>
</glyph>
<glyph name="enhook-cy" format="2">
  <advance width="689"/>
  <unicode hex="04C8"/>
  <outline>
    <contour>
      <point x="427" y="-200" type="curve" smooth="yes"/>
      <point x="538" y="-200"/>
      <point x="600" y="-130"/>
      <point x="600" y="-22" type="curve"/>
      <point x="600" y="532" type="line"/>
      <point x="490" y="532" type="line"/>
      <point x="490" y="311" type="line"/>
      <point x="199" y="311" type="line"/>
      <point x="199" y="532" type="line"/>
      <point x="89" y="532" type="line"/>
      <point x="89" y="0" type="line"/>
      <point x="199" y="0" type="line"/>
      <point x="199" y="216" type="line"/>
      <point x="490" y="216" type="line"/>
      <point x="490" y="-19" type="line" smooth="yes"/>
      <point x="490" y="-78"/>
      <point x="461" y="-108"/>
      <point x="412" y="-108" type="curve" smooth="yes"/>
      <point x="384" y="-108"/>
      <point x="359" y="-100"/>
      <point x="340" y="-85" type="curve"/>
      <point x="308" y="-168" type="line"/>
      <point x="337" y="-190"/>
      <point x="382" y="-200"/>
    </contour>
  </outline>
</glyph>
<glyph name="Chekhakassian-cy" format="2">
  <advance width="734"/>
  <unicode hex="04CB"/>
  <outline>
    <contour>
      <point x="322" y="254" type="curve" smooth="yes"/>
      <point x="388" y="254"/>
      <point x="461" y="270"/>
      <point x="536" y="302" type="curve"/>
      <point x="535" y="402" type="line"/>
      <point x="470" y="371"/>
      <point x="401" y="354"/>
      <point x="334" y="354" type="curve" smooth="yes"/>
      <point x="224" y="354"/>
      <point x="161" y="407"/>
      <point x="161" y="502" type="curve" smooth="yes"/>
      <point x="161" y="700" type="line"/>
      <point x="48" y="700" type="line"/>
      <point x="48" y="489" type="line" smooth="yes"/>
      <point x="48" y="338"/>
      <point x="147" y="254"/>
    </contour>
    <contour>
      <point x="395" y="-151" type="line"/>
      <point x="501" y="-151" type="line"/>
      <point x="501" y="29" type="line"/>
      <point x="491" y="0" type="line"/>
      <point x="630" y="0" type="line"/>
      <point x="630" y="99" type="line"/>
      <point x="395" y="99" type="line"/>
    </contour>
    <contour>
      <point x="517" y="0" type="line"/>
      <point x="630" y="0" type="line"/>
      <point x="630" y="700" type="line"/>
      <point x="517" y="700" type="line"/>
    </contour>
  </outline>
</glyph>
<glyph name="palochka-cy" format="2">
  <advance width="288"/>
  <unicode hex="04CF"/>
  <anchor x="144" y="0" name="bottom"/>
  <anchor x="144" y="360" name="center"/>
  <anchor x="325" y="360" name="dot"/>
  <anchor x="144" y="742" name="top"/>
  <anchor x="285" y="742" name="topright"/>
  <outline>
    <contour>
      <point x="89" y="0" type="line"/>
      <point x="199" y="0" type="line"/>
      <point x="199" y="742" type="line"/>
      <point x="89" y="742" type="line"/>
    </contour>
  </outline>
</glyph>
<glyph name="dzeabkhasian-cy" format="2">
  <advance width="534"/>
  <unicode hex="04E1"/>
  <outline>
    <contour>
      <point x="235" y="-201" type="curve" smooth="yes"/>
      <point x="416" y="-201"/>
      <point x="503" y="-100"/>
      <point x="503" y="22" type="curve" smooth="yes"/>
      <point x="503" y="146"/>
      <point x="418" y="231"/>
      <point x="249" y="231" type="curve" smooth="yes"/>
      <point x="213" y="231" type="line"/>
      <point x="264" y="196" type="line"/>
      <point x="472" y="453" type="line"/>
      <point x="472" y="532" type="line"/>
      <point x="7" y="532" type="line"/>
      <point x="7" y="435" type="line"/>
      <point x="385" y="435" type="line"/>
      <point x="375" y="477" type="line"/>
      <point x="167" y="220" type="line"/>
      <point x="167" y="142" type="line"/>
      <point x="228" y="142" type="line" smooth="yes"/>
      <point x="340" y="142"/>
      <point x="390" y="95"/>
      <point x="390" y="22" type="curve" smooth="yes"/>
      <point x="390" y="-54"/>
      <point x="333" y="-100"/>
      <point x="231" y="-100" type="curve" smooth="yes"/>
      <point x="148" y="-100"/>
      <point x="70" y="-70"/>
      <point x="22" y="-24" type="curve"/>
      <point x="-19" y="-116" type="line"/>
      <point x="37" y="-168"/>
      <point x="134" y="-201"/>
    </contour>
  </outline>
</glyph>
<glyph name="Obarred-cy" format="2">
  <advance width="846"/>
  <unicode hex="04E8"/>
  <anchor x="423" y="0" name="bottom"/>
  <anchor x="423" y="350" name="center"/>
  <anchor x="505" y="0" name="ogonek"/>
  <anchor x="423" y="700" name="top"/>
  <anchor x="50" y="700" name="topleft"/>
  <anchor x="635" y="700" name="topright"/>
  <outline>
    <contour>
      <point x="423" y="709" type="curve" smooth="yes"/>
      <point x="207" y="709"/>
      <point x="48" y="556"/>
      <point x="48" y="350" type="curve" smooth="yes"/>
      <point x="48" y="144"/>
      <point x="207" y="-9"/>
      <point x="423" y="-9" type="curve" smooth="yes"/>
      <point x="638" y="-9"/>
      <point x="797" y="143"/>
      <point x="797" y="350" type="curve" smooth="yes"/>
      <point x="797" y="557"/>
      <point x="638" y="709"/>
    </contour>
    <contour>
      <point x="423" y="607" type="curve" smooth="yes"/>
      <point x="556" y="607"/>
      <point x="659" y="520"/>
      <point x="678" y="395" type="curve"/>
      <point x="167" y="395" type="line"/>
      <point x="186" y="520"/>
      <point x="289" y="607"/>
    </contour>
    <contour>
      <point x="423" y="93" type="curve" smooth="yes"/>
      <point x="289" y="93"/>
      <point x="186" y="180"/>
      <point x="167" y="305" type="curve"/>
      <point x="678" y="305" type="line"/>
      <point x="659" y="180"/>
      <point x="556" y="93"/>
    </contour>
  </outline>
</glyph>
<glyph name="Hahook-cy" format="2">
  <advance width="683"/>
  <unicode hex="04FC"/>
  <outline>
    <contour>
      <point x="10" y="0" type="line"/>
      <point x="142" y="0" type="line"/>
      <point x="349" y="291" type="line"/>
      <point x="409" y="362" type="line"/>
      <point x="654" y="700" type="line"/>
      <point x="529" y="700" type="line"/>
      <point x="344" y="442" type="line"/>
      <point x="156" y="700" type="line"/>
      <point x="25" y="700" type="line"/>
      <point x="272" y="359" type="line"/>
    </contour>
    <contour>
      <point x="480" y="-203" type="curve" smooth="yes"/>
      <point x="577" y="-203"/>
      <point x="655" y="-143"/>
      <point x="655" y="-37" type="curve" smooth="yes"/>
      <point x="655" y="74"/>
      <point x="540" y="202"/>
      <point x="395" y="382" type="curve"/>
      <point x="322" y="300" type="line"/>
      <point x="431" y="169"/>
      <point x="531" y="49"/>
      <point x="531" y="-32" type="curve" smooth="yes"/>
      <point x="531" y="-83"/>
      <point x="501" y="-112"/>
      <point x="456" y="-112" type="curve" smooth="yes"/>
      <point x="435" y="-112"/>
      <point x="412" y="-106"/>
      <point x="388" y="-93" type="curve"/>
      <point x="360" y="-173" type="line"/>
      <point x="399" y="-193"/>
      <point x="440" y="-203"/>
    </contour>
  </outline>
</glyph>
<glyph name="Hastroke-cy" format="2">
  <advance width="693"/>
  <unicode hex="04FE"/>
  <outline>
    <contour>
      <point x="91" y="313" type="line"/>
      <point x="596" y="313" type="line"/>
      <point x="596" y="398" type="line"/>
      <point x="91" y="398" type="line"/>
    </contour>
    <contour>
      <point x="39" y="700" type="line"/>
      <point x="277" y="359" type="line"/>
      <point x="22" y="0" type="line"/>
      <point x="155" y="0" type="line"/>
      <point x="345" y="266" type="line"/>
      <point x="537" y="0" type="line"/>
      <point x="673" y="0" type="line"/>
      <point x="417" y="364" type="line"/>
      <point x="653" y="700" type="line"/>
      <point x="520" y="700" type="line"/>
      <point x="345" y="456" type="line"/>
      <point x="171" y="700" type="line"/>
    </contour>
  </outline>
</glyph>
<glyph name="hastroke-cy" format="2">
  <advance width="576"/>
  <unicode hex="04FF"/>
  <outline>
    <contour>
      <point x="18" y="0" type="line"/>
      <point x="140" y="0" type="line"/>
      <point x="308" y="219" type="line"/>
      <point x="263" y="225" type="line"/>
      <point x="429" y="0" type="line"/>
      <point x="557" y="0" type="line"/>
      <point x="327" y="308" type="line"/>
      <point x="326" y="241" type="line"/>
      <point x="547" y="532" type="line"/>
      <point x="429" y="532" type="line"/>
      <point x="266" y="317" type="line"/>
      <point x="312" y="320" type="line"/>
      <point x="154" y="532" type="line"/>
      <point x="28" y="532" type="line"/>
      <point x="247" y="237" type="line"/>
      <point x="250" y="304" type="line"/>
    </contour>
    <contour>
      <point x="84" y="227" type="line"/>
      <point x="494" y="227" type="line"/>
      <point x="494" y="304" type="line"/>
      <point x="84" y="304" type="line"/>
    </contour>
  </outline>
</glyph>
<glyph name="Reversedze-cy" format="2">
  <advance width="645"/>
  <unicode hex="0510"/>
  <outline>
    <contour>
      <point x="614" y="72" type="curve"/>
      <point x="576" y="157" type="line"/>
      <point x="424" y="46"/>
      <point x="169" y="76"/>
      <point x="169" y="213" type="curve" smooth="yes"/>
      <point x="169" y="280"/>
      <point x="227" y="315"/>
      <point x="323" y="315" type="curve" smooth="yes"/>
      <point x="482" y="315" type="line"/>
      <point x="482" y="407" type="line"/>
      <point x="331" y="407" type="line" smooth="yes"/>
      <point x="247" y="407"/>
      <point x="198" y="443"/>
      <point x="198" y="503" type="curve" smooth="yes"/>
      <point x="198" y="619"/>
      <point x="403" y="647"/>
      <point x="557" y="556" type="curve"/>
      <point x="593" y="650" type="line"/>
      <point x="376" y="770"/>
      <point x="82" y="700"/>
      <point x="82" y="517" type="curve" smooth="yes"/>
      <point x="82" y="416"/>
      <point x="165" y="348"/>
      <point x="287" y="348" type="curve"/>
      <point x="283" y="378" type="line"/>
      <point x="143" y="378"/>
      <point x="53" y="304"/>
      <point x="53" y="196" type="curve" smooth="yes"/>
      <point x="53" y="-9"/>
      <point x="396" y="-79"/>
    </contour>
  </outline>
</glyph>
<glyph name="reversedze-cy" format="2">
  <advance width="549"/>
  <unicode hex="0511"/>
  <outline>
    <contour>
      <point x="298" y="-8" type="curve" smooth="yes"/>
      <point x="380" y="-8"/>
      <point x="461" y="13"/>
      <point x="522" y="50" type="curve"/>
      <point x="490" y="134" type="line"/>
      <point x="439" y="104"/>
      <point x="370" y="86"/>
      <point x="305" y="86" type="curve" smooth="yes"/>
      <point x="216" y="86"/>
      <point x="162" y="116"/>
      <point x="162" y="165" type="curve" smooth="yes"/>
      <point x="162" y="210"/>
      <point x="204" y="235"/>
      <point x="277" y="235" type="curve" smooth="yes"/>
      <point x="377" y="235" type="line"/>
      <point x="377" y="313" type="line"/>
      <point x="285" y="313" type="line" smooth="yes"/>
      <point x="217" y="313"/>
      <point x="177" y="337"/>
      <point x="177" y="378" type="curve" smooth="yes"/>
      <point x="177" y="420"/>
      <point x="226" y="446"/>
      <point x="305" y="446" type="curve" smooth="yes"/>
      <point x="359" y="446"/>
      <point x="414" y="433"/>
      <point x="473" y="406" type="curve"/>
      <point x="502" y="491" type="line"/>
      <point x="436" y="522"/>
      <point x="375" y="538"/>
      <point x="312" y="540" type="curve" smooth="yes"/>
      <point x="169" y="545"/>
      <point x="64" y="483"/>
      <point x="64" y="394" type="curve" smooth="yes"/>
      <point x="64" y="318"/>
      <point x="140" y="262"/>
      <point x="244" y="262" type="curve"/>
      <point x="240" y="287" type="line"/>
      <point x="122" y="287"/>
      <point x="49" y="237"/>
      <point x="49" y="156" type="curve" smooth="yes"/>
      <point x="49" y="60"/>
      <point x="152" y="-8"/>
    </contour>
  </outline>
</glyph>
